<svg width="61" height="67" viewBox="0 0 61 67" fill="none" xmlns="http://www.w3.org/2000/svg">
<ellipse cx="28.7167" cy="37.5" rx="28.5096" ry="29.5073" fill="white" fill-opacity="0.25"/>
<circle cx="47.7363" cy="12.4927" r="12.5" fill="#FFC26D" fill-opacity="0.5"/>
<path d="M45.9504 16.2847C45.857 16.2847 45.7917 16.252 45.7544 16.1867C45.717 16.112 45.6984 16.0327 45.6984 15.9487C45.7077 15.7807 45.745 15.692 45.8104 15.6827C45.8757 15.6733 45.9597 15.6687 46.0624 15.6687C46.4637 15.6687 46.781 15.65 47.0144 15.6127C47.257 15.566 47.4297 15.454 47.5324 15.2767C47.635 15.09 47.6864 14.7913 47.6864 14.3807V11.4687C47.6957 11.058 47.677 10.7547 47.6304 10.5587C47.5837 10.3627 47.4997 10.232 47.3784 10.1667C47.257 10.1013 47.0844 10.0733 46.8604 10.0827C46.6457 10.0827 46.3657 10.078 46.0204 10.0687C45.927 10.0687 45.8617 10.036 45.8244 9.97068C45.787 9.89601 45.7684 9.81668 45.7684 9.73268C45.7777 9.56468 45.815 9.47134 45.8804 9.45268C45.9457 9.43401 46.0297 9.42468 46.1324 9.42468C46.4497 9.42468 46.7764 9.37801 47.1124 9.28468C47.4577 9.19134 47.761 9.09334 48.0224 8.99068C48.293 8.87868 48.4657 8.80868 48.5404 8.78068C48.615 8.75268 48.6944 8.75268 48.7784 8.78068C48.8624 8.79934 48.9044 8.89734 48.9044 9.07468V14.3807C48.9044 14.7913 48.9557 15.09 49.0584 15.2767C49.161 15.454 49.329 15.566 49.5624 15.6127C49.805 15.65 50.127 15.6687 50.5284 15.6687C50.631 15.6687 50.715 15.6733 50.7804 15.6827C50.8457 15.692 50.883 15.7807 50.8924 15.9487C50.8924 16.0327 50.8737 16.112 50.8364 16.1867C50.8084 16.252 50.743 16.2847 50.6404 16.2847C50.4164 16.2753 50.1504 16.266 49.8424 16.2567C49.5437 16.2567 49.2497 16.252 48.9604 16.2427C48.6804 16.2427 48.4564 16.2427 48.2884 16.2427C48.1297 16.2427 47.9057 16.2427 47.6164 16.2427C47.3364 16.252 47.0424 16.2567 46.7344 16.2567C46.4357 16.266 46.1744 16.2753 45.9504 16.2847Z" fill="white"/>
<path d="M21.1504 44.9927H23.4837M29.4337 60.1593L27.0771 57.826M29.4337 60.1593L27.0771 62.4927M29.4337 60.1593C23.5421 60.1593 18.5954 57.826 17.6504 55.4927M32.9699 59.8922C37.0194 59.2622 40.1274 57.581 40.9837 55.4927M23.4837 41.4927H35.1504C37.3321 41.4927 38.4217 41.4927 39.2337 41.9617C39.7657 42.2689 40.2075 42.7107 40.5147 43.2427C40.9837 44.0547 40.9837 45.1443 40.9837 47.326C40.9837 49.5077 40.9837 50.5973 40.5147 51.4093C40.2075 51.9414 39.7657 52.3832 39.2337 52.6903C38.4217 53.1593 37.3321 53.1593 35.1504 53.1593H34.6907C33.8892 53.1593 33.4891 53.1593 33.1146 53.0765C32.6126 52.9651 32.1414 52.7444 31.7344 52.4302C31.4311 52.1945 31.1744 51.8877 30.6611 51.2717C30.2527 50.7817 30.0474 50.5367 29.8129 50.4258C29.6577 50.353 29.4885 50.3152 29.3171 50.3152C29.1457 50.3152 28.9764 50.353 28.8212 50.4258C28.5867 50.5355 28.3826 50.7805 27.9731 51.2717C27.4597 51.8877 27.2031 52.1945 26.8997 52.4302C26.4927 52.7444 26.0215 52.9651 25.5196 53.0765C25.1462 53.1593 24.7449 53.1593 23.9434 53.1593H23.4837C21.3021 53.1593 20.2124 53.1593 19.4004 52.6903C18.8684 52.3832 18.4266 51.9414 18.1194 51.4093C17.6504 50.5973 17.6504 49.5077 17.6504 47.326C17.6504 45.1443 17.6504 44.0547 18.1194 43.2427C18.4266 42.7107 18.8684 42.2689 19.4004 41.9617C20.2124 41.4927 21.3021 41.4927 23.4837 41.4927Z" stroke="#FFC26D" stroke-width="1.5" stroke-linecap="round" stroke-linejoin="round"/>
<path d="M22.307 29.3127C21.8377 29.3127 21.3897 29.2487 20.963 29.1207C20.5364 28.9927 20.1897 28.8007 19.923 28.5447C19.6564 28.278 19.523 27.9367 19.523 27.5207C19.523 27.2433 19.6137 26.9873 19.795 26.7527C19.9764 26.5073 20.2484 26.3847 20.611 26.3847C20.8457 26.3847 21.027 26.4433 21.155 26.5607C21.283 26.678 21.347 26.7633 21.347 26.8167C21.347 26.838 21.299 26.8753 21.203 26.9287C21.1177 26.982 21.0324 27.0673 20.947 27.1847C20.8617 27.302 20.819 27.462 20.819 27.6647C20.819 28.006 20.963 28.2673 21.251 28.4487C21.5497 28.63 21.9177 28.7207 22.355 28.7207C22.9097 28.7207 23.331 28.566 23.619 28.2567C23.9177 27.9473 24.067 27.4673 24.067 26.8167C24.067 26.3153 23.9337 25.9047 23.667 25.5847C23.4004 25.254 22.979 25.0727 22.403 25.0407H21.811C21.7364 25.0407 21.6777 25.0087 21.635 24.9447C21.5924 24.87 21.571 24.7953 21.571 24.7207C21.571 24.6353 21.5924 24.5553 21.635 24.4807C21.6777 24.406 21.7364 24.3633 21.811 24.3527H22.403C22.8297 24.31 23.1657 24.1233 23.411 23.7927C23.6564 23.4513 23.779 23.0513 23.779 22.5927C23.779 22.0487 23.6244 21.6487 23.315 21.3927C23.0164 21.1367 22.691 21.0087 22.339 21.0087C21.9977 21.0087 21.6884 21.11 21.411 21.3127C21.1444 21.5153 21.011 21.8033 21.011 22.1767C21.011 22.4113 21.0537 22.5713 21.139 22.6567C21.2244 22.742 21.3097 22.79 21.395 22.8007C21.491 22.8007 21.539 22.8113 21.539 22.8327C21.539 22.886 21.475 22.9713 21.347 23.0887C21.219 23.206 21.0377 23.2647 20.803 23.2647C20.451 23.2647 20.179 23.158 19.987 22.9447C19.8057 22.7207 19.715 22.4487 19.715 22.1287C19.715 21.5847 19.9657 21.174 20.467 20.8967C20.979 20.6193 21.6084 20.4807 22.355 20.4807C22.8777 20.4807 23.3577 20.5607 23.795 20.7207C24.2324 20.87 24.579 21.0993 24.835 21.4087C25.1017 21.718 25.235 22.1127 25.235 22.5927C25.235 23.0087 25.0857 23.414 24.787 23.8087C24.499 24.2033 24.0404 24.486 23.411 24.6567V24.7207C23.7204 24.7527 24.0457 24.8327 24.387 24.9607C24.7284 25.0887 25.0164 25.2967 25.251 25.5847C25.4964 25.8727 25.619 26.2727 25.619 26.7847C25.619 27.4033 25.459 27.8993 25.139 28.2727C24.8297 28.6353 24.4244 28.8967 23.923 29.0567C23.4217 29.2273 22.883 29.3127 22.307 29.3127ZM27.4639 29.0407C27.3679 29.0407 27.2986 29.0033 27.2559 28.9287C27.2132 28.854 27.1919 28.774 27.1919 28.6887C27.2026 28.5073 27.2452 28.406 27.3199 28.3847C27.3946 28.3633 27.4852 28.3527 27.5919 28.3527C27.9332 28.3527 28.1732 28.294 28.3119 28.1767C28.4506 28.0487 28.5359 27.894 28.5679 27.7127C28.6106 27.5207 28.6319 27.3233 28.6319 27.1207V20.7687C28.6319 20.566 28.6106 20.374 28.5679 20.1927C28.5359 20.0007 28.4506 19.846 28.3119 19.7287C28.1732 19.6007 27.9332 19.5367 27.5919 19.5367C27.4852 19.5367 27.3946 19.526 27.3199 19.5047C27.2452 19.4833 27.2026 19.382 27.1919 19.2007C27.1919 19.1153 27.2132 19.0353 27.2559 18.9607C27.2986 18.886 27.3679 18.8487 27.4639 18.8487C27.8159 18.8593 28.1412 18.87 28.4399 18.8807C28.7386 18.8913 29.0479 18.8967 29.3679 18.8967H31.8639C32.8879 18.8967 33.8159 19.0993 34.6479 19.5047C35.4799 19.91 36.1412 20.4913 36.6319 21.2487C37.1226 22.006 37.3679 22.9233 37.3679 24.0007C37.3679 24.854 37.2026 25.5953 36.8719 26.2247C36.5412 26.854 36.0986 27.3767 35.5439 27.7927C34.9892 28.198 34.3652 28.502 33.6719 28.7047C32.9892 28.8967 32.2906 28.9927 31.5759 28.9927H29.3679C29.0479 28.9927 28.7386 28.9927 28.4399 28.9927C28.1412 29.0033 27.8159 29.0193 27.4639 29.0407ZM31.8159 28.4007C32.6799 28.4007 33.3786 28.2193 33.9119 27.8567C34.4452 27.4833 34.8292 26.966 35.0639 26.3047C35.3092 25.6433 35.4319 24.8753 35.4319 24.0007C35.4319 23.126 35.2772 22.3473 34.9679 21.6647C34.6586 20.982 34.2052 20.4487 33.6079 20.0647C33.0212 19.67 32.3066 19.4727 31.4639 19.4727C31.2932 19.4727 31.0692 19.478 30.7919 19.4887C30.5146 19.4887 30.3226 19.4887 30.2159 19.4887V27.3127C30.2159 27.7393 30.3439 28.0273 30.5999 28.1767C30.8666 28.326 31.2719 28.4007 31.8159 28.4007Z" fill="#FFC26D"/>
<path d="M5.20703 34.9927H51.707" stroke="#FFC26D" stroke-linecap="round"/>
</svg>
