<svg width="88" height="89" viewBox="0 0 88 89" fill="none" xmlns="http://www.w3.org/2000/svg">
<ellipse cx="43.5096" cy="37.5073" rx="28.5096" ry="29.5073" fill="white" fill-opacity="0.25"/>
<path d="M3.15 84.28C2.73933 84.28 2.34733 84.224 1.974 84.112C1.60067 84 1.29733 83.832 1.064 83.608C0.830667 83.3747 0.714 83.076 0.714 82.712C0.714 82.4693 0.793333 82.2453 0.952 82.04C1.11067 81.8253 1.34867 81.718 1.666 81.718C1.87133 81.718 2.03 81.7693 2.142 81.872C2.254 81.9747 2.31 82.0493 2.31 82.096C2.31 82.1147 2.268 82.1473 2.184 82.194C2.10933 82.2407 2.03467 82.3153 1.96 82.418C1.88533 82.5207 1.848 82.6607 1.848 82.838C1.848 83.1367 1.974 83.3653 2.226 83.524C2.48733 83.6827 2.80933 83.762 3.192 83.762C3.67733 83.762 4.046 83.6267 4.298 83.356C4.55933 83.0853 4.69 82.6653 4.69 82.096C4.69 81.6573 4.57333 81.298 4.34 81.018C4.10667 80.7287 3.738 80.57 3.234 80.542H2.716C2.65067 80.542 2.59933 80.514 2.562 80.458C2.52467 80.3927 2.506 80.3273 2.506 80.262C2.506 80.1873 2.52467 80.1173 2.562 80.052C2.59933 79.9867 2.65067 79.9493 2.716 79.94H3.234C3.60733 79.9027 3.90133 79.7393 4.116 79.45C4.33067 79.1513 4.438 78.8013 4.438 78.4C4.438 77.924 4.30267 77.574 4.032 77.35C3.77067 77.126 3.486 77.014 3.178 77.014C2.87933 77.014 2.60867 77.1027 2.366 77.28C2.13267 77.4573 2.016 77.7093 2.016 78.036C2.016 78.2413 2.05333 78.3813 2.128 78.456C2.20267 78.5307 2.27733 78.5727 2.352 78.582C2.436 78.582 2.478 78.5913 2.478 78.61C2.478 78.6567 2.422 78.7313 2.31 78.834C2.198 78.9367 2.03933 78.988 1.834 78.988C1.526 78.988 1.288 78.8947 1.12 78.708C0.961333 78.512 0.882 78.274 0.882 77.994C0.882 77.518 1.10133 77.1587 1.54 76.916C1.988 76.6733 2.53867 76.552 3.192 76.552C3.64933 76.552 4.06933 76.622 4.452 76.762C4.83467 76.8927 5.138 77.0933 5.362 77.364C5.59533 77.6347 5.712 77.98 5.712 78.4C5.712 78.764 5.58133 79.1187 5.32 79.464C5.068 79.8093 4.66667 80.0567 4.116 80.206V80.262C4.38667 80.29 4.67133 80.36 4.97 80.472C5.26867 80.584 5.52067 80.766 5.726 81.018C5.94067 81.27 6.048 81.62 6.048 82.068C6.048 82.6093 5.908 83.0433 5.628 83.37C5.35733 83.6873 5.00267 83.916 4.564 84.056C4.12533 84.2053 3.654 84.28 3.15 84.28ZM7.66227 84.042C7.57827 84.042 7.5176 84.0093 7.48027 83.944C7.44293 83.8787 7.42427 83.8087 7.42427 83.734C7.4336 83.5753 7.47093 83.4867 7.53627 83.468C7.6016 83.4493 7.68093 83.44 7.77427 83.44C8.07293 83.44 8.28293 83.3887 8.40427 83.286C8.5256 83.174 8.60027 83.0387 8.62827 82.88C8.6656 82.712 8.68427 82.5393 8.68427 82.362V76.804C8.68427 76.6267 8.6656 76.4587 8.62827 76.3C8.60027 76.132 8.5256 75.9967 8.40427 75.894C8.28293 75.782 8.07293 75.726 7.77427 75.726C7.68093 75.726 7.6016 75.7167 7.53627 75.698C7.47093 75.6793 7.4336 75.5907 7.42427 75.432C7.42427 75.3573 7.44293 75.2873 7.48027 75.222C7.5176 75.1567 7.57827 75.124 7.66227 75.124C7.97027 75.1333 8.25493 75.1427 8.51627 75.152C8.7776 75.1613 9.04827 75.166 9.32827 75.166H11.5123C12.4083 75.166 13.2203 75.3433 13.9483 75.698C14.6763 76.0527 15.2549 76.5613 15.6843 77.224C16.1136 77.8867 16.3283 78.6893 16.3283 79.632C16.3283 80.3787 16.1836 81.0273 15.8943 81.578C15.6049 82.1287 15.2176 82.586 14.7323 82.95C14.2469 83.3047 13.7009 83.5707 13.0943 83.748C12.4969 83.916 11.8856 84 11.2603 84H9.32827C9.04827 84 8.7776 84 8.51627 84C8.25493 84.0093 7.97027 84.0233 7.66227 84.042ZM11.4703 83.482C12.2263 83.482 12.8376 83.3233 13.3043 83.006C13.7709 82.6793 14.1069 82.2267 14.3123 81.648C14.5269 81.0693 14.6343 80.3973 14.6343 79.632C14.6343 78.8667 14.4989 78.1853 14.2283 77.588C13.9576 76.9907 13.5609 76.524 13.0383 76.188C12.5249 75.8427 11.8996 75.67 11.1623 75.67C11.0129 75.67 10.8169 75.6747 10.5743 75.684C10.3316 75.684 10.1636 75.684 10.0703 75.684V82.53C10.0703 82.9033 10.1823 83.1553 10.4063 83.286C10.6396 83.4167 10.9943 83.482 11.4703 83.482ZM17.4217 86.73C17.3284 86.7113 17.249 86.66 17.1837 86.576C17.1184 86.5013 17.095 86.4173 17.1137 86.324L20.8937 74.41C20.931 74.3073 20.9917 74.2327 21.0757 74.186C21.169 74.1393 21.2624 74.1253 21.3557 74.144C21.4584 74.1627 21.5424 74.214 21.6077 74.298C21.673 74.382 21.6964 74.4707 21.6777 74.564L17.8697 86.478C17.8324 86.5713 17.767 86.6367 17.6737 86.674C17.5897 86.7207 17.5057 86.7393 17.4217 86.73ZM26.4455 84.14C26.4455 84.14 26.3941 84.0093 26.2915 83.748C26.1981 83.4773 26.0721 83.1273 25.9135 82.698C25.7641 82.2593 25.5915 81.7833 25.3955 81.27C25.2088 80.7473 25.0175 80.2293 24.8215 79.716C24.6348 79.1933 24.4621 78.7173 24.3035 78.288C24.1541 77.8587 24.0281 77.5133 23.9255 77.252C23.8321 76.9907 23.7855 76.86 23.7855 76.86C23.6361 76.4773 23.4868 76.202 23.3375 76.034C23.1881 75.866 22.9641 75.754 22.6655 75.698C22.5348 75.67 22.4415 75.6467 22.3855 75.628C22.3388 75.6093 22.3155 75.5253 22.3155 75.376C22.3155 75.2173 22.3715 75.1333 22.4835 75.124C22.5955 75.1053 22.7261 75.096 22.8755 75.096C23.5008 75.1053 23.9861 75.222 24.3315 75.446C24.6768 75.6607 24.9521 76.034 25.1575 76.566L27.1875 82.026H27.2295L29.1615 76.412C29.2641 76.1133 29.2688 75.9267 29.1755 75.852C29.0821 75.768 28.8721 75.726 28.5455 75.726C28.4521 75.726 28.3728 75.7167 28.3075 75.698C28.2421 75.6793 28.2048 75.5907 28.1955 75.432C28.1955 75.3573 28.2141 75.2873 28.2515 75.222C28.2888 75.1567 28.3495 75.124 28.4335 75.124C28.7321 75.1333 28.9888 75.1427 29.2035 75.152C29.4275 75.1613 29.6795 75.166 29.9595 75.166C30.1461 75.166 30.3001 75.166 30.4215 75.166C30.5428 75.1567 30.6641 75.152 30.7855 75.152C30.9161 75.1427 31.0795 75.1333 31.2755 75.124C31.3688 75.124 31.4341 75.1567 31.4715 75.222C31.5088 75.2873 31.5275 75.3573 31.5275 75.432C31.5181 75.5907 31.4808 75.6793 31.4155 75.698C31.3595 75.7167 31.2801 75.726 31.1775 75.726C30.8228 75.726 30.5428 75.7913 30.3375 75.922C30.1321 76.0527 29.9548 76.3047 29.8055 76.678C29.8055 76.6687 29.7541 76.7993 29.6515 77.07C29.5581 77.3313 29.4321 77.686 29.2735 78.134C29.1148 78.5727 28.9375 79.058 28.7415 79.59C28.5548 80.122 28.3635 80.654 28.1675 81.186C27.9715 81.718 27.7941 82.208 27.6355 82.656C27.4768 83.104 27.3461 83.4633 27.2435 83.734C27.1501 84.0047 27.1035 84.14 27.1035 84.14H26.4455ZM31.9985 84.042C31.9052 84.042 31.8399 84.0093 31.8025 83.944C31.7652 83.8787 31.7465 83.8087 31.7465 83.734C31.7559 83.5753 31.7932 83.4867 31.8585 83.468C31.9239 83.4493 32.0032 83.44 32.0965 83.44C32.3952 83.44 32.6052 83.3887 32.7265 83.286C32.8479 83.174 32.9225 83.0387 32.9505 82.88C32.9879 82.712 33.0065 82.5393 33.0065 82.362V76.818C33.0065 76.6407 32.9879 76.468 32.9505 76.3C32.9225 76.132 32.8479 75.9967 32.7265 75.894C32.6052 75.782 32.3952 75.726 32.0965 75.726C32.0032 75.726 31.9239 75.7167 31.8585 75.698C31.7932 75.6793 31.7559 75.5907 31.7465 75.432C31.7465 75.3573 31.7652 75.2873 31.8025 75.222C31.8399 75.1567 31.9052 75.124 31.9985 75.124C32.2972 75.1333 32.5772 75.1427 32.8385 75.152C33.1092 75.1613 33.3845 75.166 33.6645 75.166H36.0725C36.8285 75.1753 37.4399 75.292 37.9065 75.516C38.3825 75.74 38.7279 76.0247 38.9425 76.37C39.1572 76.7153 39.2645 77.0747 39.2645 77.448C39.2645 77.9427 39.0639 78.4093 38.6625 78.848C38.2705 79.2867 37.7152 79.5993 36.9965 79.786C37.3512 80.346 37.7105 80.9107 38.0745 81.48C38.4385 82.04 38.8585 82.5673 39.3345 83.062C39.4652 83.1647 39.5912 83.2487 39.7125 83.314C39.8432 83.3793 39.9972 83.4213 40.1745 83.44C40.2492 83.4493 40.3239 83.4633 40.3985 83.482C40.4732 83.4913 40.5152 83.5753 40.5245 83.734C40.5245 83.8087 40.5059 83.8787 40.4685 83.944C40.4312 84.0093 40.3659 84.042 40.2725 84.042C40.0765 84.0327 39.9179 84.0233 39.7965 84.014C39.6845 84.014 39.5725 84.0093 39.4605 84C39.3485 84 39.1992 84 39.0125 84C38.6299 83.9253 38.3032 83.79 38.0325 83.594C37.7712 83.398 37.5145 83.1273 37.2625 82.782C37.0012 82.4273 36.7585 82.068 36.5345 81.704C36.3105 81.34 36.0912 80.9853 35.8765 80.64C35.7552 80.444 35.6292 80.304 35.4985 80.22C35.3772 80.1267 35.1439 80.08 34.7985 80.08H34.3925V82.362C34.4019 82.5393 34.4205 82.712 34.4485 82.88C34.4765 83.0387 34.5512 83.174 34.6725 83.286C34.8032 83.3887 35.0132 83.44 35.3025 83.44C35.3959 83.44 35.4752 83.4493 35.5405 83.468C35.6059 83.4867 35.6432 83.5753 35.6525 83.734C35.6525 83.8087 35.6339 83.8787 35.5965 83.944C35.5592 84.0093 35.4939 84.042 35.4005 84.042C34.8032 84.014 34.2199 84 33.6505 84C33.3705 84 33.0999 84 32.8385 84C32.5772 84.0093 32.2972 84.0233 31.9985 84.042ZM34.3925 79.534H35.6245C36.1005 79.534 36.4739 79.4687 36.7445 79.338C37.0245 79.2073 37.2345 79.0393 37.3745 78.834C37.5145 78.6287 37.6032 78.414 37.6405 78.19C37.6872 77.966 37.7105 77.7607 37.7105 77.574C37.7105 77.266 37.6405 76.9673 37.5005 76.678C37.3699 76.3887 37.1319 76.1507 36.7865 75.964C36.4505 75.7773 35.9792 75.684 35.3725 75.684C34.9712 75.684 34.7052 75.7633 34.5745 75.922C34.4532 76.0713 34.3925 76.3793 34.3925 76.846V79.534ZM44.8163 81.214C44.723 81.214 44.6436 81.1627 44.5783 81.06C44.5223 80.9573 44.4943 80.8593 44.4943 80.766C44.4943 80.6633 44.5223 80.5653 44.5783 80.472C44.6436 80.3693 44.723 80.318 44.8163 80.318H47.8823C47.985 80.318 48.0643 80.3693 48.1203 80.472C48.1763 80.5653 48.2043 80.6633 48.2043 80.766C48.2043 80.8593 48.1763 80.9573 48.1203 81.06C48.0643 81.1627 47.985 81.214 47.8823 81.214H44.8163ZM55.2102 84.168C54.4915 84.168 53.8895 84.042 53.4042 83.79C52.9282 83.5287 52.6902 83.1553 52.6902 82.67C52.6902 82.3993 52.7695 82.18 52.9282 82.012C53.0962 81.844 53.3109 81.76 53.5722 81.76C53.7402 81.76 53.8755 81.8067 53.9782 81.9C54.0902 81.984 54.1462 82.0447 54.1462 82.082C54.1462 82.11 54.0902 82.1753 53.9782 82.278C53.8755 82.3713 53.8242 82.5253 53.8242 82.74C53.8242 83.0013 53.9455 83.2207 54.1882 83.398C54.4402 83.566 54.8182 83.65 55.3222 83.65C55.7609 83.65 56.1015 83.5567 56.3442 83.37C56.5962 83.174 56.7222 82.9033 56.7222 82.558C56.7222 82.278 56.6289 82.0633 56.4422 81.914C56.2649 81.7553 56.0315 81.6293 55.7422 81.536C55.4622 81.4427 55.1589 81.3493 54.8322 81.256C54.5149 81.1627 54.2115 81.046 53.9222 80.906C53.6329 80.766 53.3949 80.5747 53.2082 80.332C53.0309 80.08 52.9422 79.7487 52.9422 79.338C52.9422 78.918 53.0682 78.5727 53.3202 78.302C53.5722 78.0313 53.8942 77.8307 54.2862 77.7C54.6782 77.56 55.0749 77.49 55.4762 77.49C55.8215 77.49 56.1482 77.5413 56.4562 77.644C56.7642 77.7373 57.0162 77.882 57.2122 78.078C57.4175 78.274 57.5202 78.5213 57.5202 78.82C57.5202 79.0533 57.4455 79.2633 57.2962 79.45C57.1469 79.6367 56.9415 79.73 56.6802 79.73C56.5122 79.73 56.3722 79.688 56.2602 79.604C56.1575 79.5107 56.1062 79.4453 56.1062 79.408C56.1062 79.3893 56.1389 79.3567 56.2042 79.31C56.2789 79.254 56.3489 79.184 56.4142 79.1C56.4795 79.0067 56.5122 78.89 56.5122 78.75C56.4935 78.4793 56.3629 78.2787 56.1202 78.148C55.8775 78.0173 55.6069 77.952 55.3082 77.952C54.9815 77.952 54.6782 78.0313 54.3982 78.19C54.1182 78.3487 53.9782 78.5773 53.9782 78.876C53.9782 79.1467 54.0342 79.3567 54.1462 79.506C54.2675 79.6553 54.4542 79.786 54.7062 79.898C54.9675 80.0007 55.3035 80.1173 55.7142 80.248C56.1249 80.3787 56.4842 80.514 56.7922 80.654C57.1095 80.794 57.3522 80.9807 57.5202 81.214C57.6975 81.438 57.7862 81.746 57.7862 82.138C57.7862 82.53 57.6742 82.88 57.4502 83.188C57.2262 83.496 56.9182 83.7387 56.5262 83.916C56.1435 84.084 55.7049 84.168 55.2102 84.168ZM58.9112 86.912C58.8459 86.912 58.7899 86.8793 58.7432 86.814C58.7059 86.758 58.6872 86.6973 58.6872 86.632C58.6966 86.492 58.7292 86.4127 58.7852 86.394C58.8506 86.3847 58.9252 86.38 59.0092 86.38C59.2612 86.38 59.4339 86.3333 59.5272 86.24C59.6299 86.156 59.6906 86.0393 59.7092 85.89C59.7279 85.7407 59.7372 85.5867 59.7372 85.428V79.352C59.7372 79.184 59.7279 79.03 59.7092 78.89C59.6999 78.7407 59.6486 78.624 59.5552 78.54C59.4619 78.4467 59.2846 78.4 59.0232 78.4C58.9392 78.4 58.8599 78.3907 58.7852 78.372C58.7199 78.344 58.6872 78.26 58.6872 78.12C58.6872 77.98 58.7619 77.896 58.9112 77.868C59.3406 77.8027 59.6672 77.7373 59.8912 77.672C60.1246 77.6067 60.2972 77.5507 60.4092 77.504C60.5306 77.4573 60.6379 77.4293 60.7312 77.42C60.8059 77.4107 60.8666 77.4247 60.9132 77.462C60.9692 77.4993 60.9972 77.574 60.9972 77.686V78.358H61.0392C61.3006 78.1153 61.6132 77.91 61.9772 77.742C62.3412 77.574 62.6912 77.49 63.0272 77.49C63.5966 77.49 64.1006 77.63 64.5392 77.91C64.9779 78.19 65.3232 78.582 65.5752 79.086C65.8272 79.5807 65.9532 80.1593 65.9532 80.822C65.9532 81.494 65.7992 82.082 65.4912 82.586C65.1832 83.09 64.7866 83.482 64.3012 83.762C63.8159 84.0327 63.2979 84.168 62.7472 84.168C62.3272 84.168 61.9866 84.1213 61.7252 84.028C61.4732 83.944 61.2539 83.846 61.0672 83.734H61.0112V85.428C61.0112 85.5867 61.0206 85.7407 61.0392 85.89C61.0579 86.0393 61.1186 86.156 61.2212 86.24C61.3239 86.3333 61.4966 86.38 61.7392 86.38C61.8232 86.38 61.8932 86.3847 61.9492 86.394C62.0146 86.4127 62.0519 86.492 62.0612 86.632C62.0612 86.6973 62.0426 86.758 62.0052 86.814C61.9679 86.8793 61.9119 86.912 61.8372 86.912C61.5666 86.8933 61.3146 86.8793 61.0812 86.87C60.8572 86.87 60.6192 86.87 60.3672 86.87C60.1152 86.87 59.8772 86.87 59.6532 86.87C59.4292 86.8793 59.1819 86.8933 58.9112 86.912ZM62.6352 83.692C62.9992 83.692 63.3026 83.6033 63.5452 83.426C63.7879 83.2393 63.9792 83.006 64.1192 82.726C64.2686 82.4367 64.3712 82.1287 64.4272 81.802C64.4926 81.466 64.5252 81.1533 64.5252 80.864C64.5252 80.4253 64.4552 80.0053 64.3152 79.604C64.1846 79.1933 63.9699 78.8573 63.6712 78.596C63.3819 78.3253 62.9992 78.19 62.5232 78.19C62.1686 78.19 61.8746 78.2647 61.6412 78.414C61.4079 78.554 61.1979 78.722 61.0112 78.918V82.67C61.1139 82.9127 61.3006 83.146 61.5712 83.37C61.8512 83.5847 62.2059 83.692 62.6352 83.692ZM68.893 84.168C68.3237 84.168 67.8663 84.0047 67.521 83.678C67.185 83.3513 67.017 82.9593 67.017 82.502C67.017 82.026 67.1383 81.6527 67.381 81.382C67.633 81.1113 67.9597 80.9107 68.361 80.78C68.7717 80.6493 69.215 80.5607 69.691 80.514C70.1763 80.4673 70.6477 80.43 71.105 80.402V79.296C71.105 78.8573 70.993 78.5167 70.769 78.274C70.5543 78.022 70.1857 77.896 69.663 77.896C69.4017 77.896 69.1543 77.98 68.921 78.148C68.697 78.316 68.585 78.5587 68.585 78.876C68.585 79.0253 68.6223 79.1513 68.697 79.254C68.7717 79.3567 68.8463 79.436 68.921 79.492C68.9957 79.548 69.033 79.5853 69.033 79.604C69.033 79.6413 68.977 79.7113 68.865 79.814C68.7623 79.9073 68.6177 79.954 68.431 79.954C68.1417 79.954 67.9177 79.8467 67.759 79.632C67.6003 79.4173 67.521 79.1793 67.521 78.918C67.521 78.5633 67.6283 78.2833 67.843 78.078C68.067 77.8727 68.3517 77.7233 68.697 77.63C69.0423 77.5367 69.3923 77.49 69.747 77.49C70.167 77.49 70.573 77.5413 70.965 77.644C71.3663 77.7467 71.693 77.9427 71.945 78.232C72.2063 78.5213 72.337 78.9553 72.337 79.534V82.796C72.3463 82.8893 72.3697 83.0013 72.407 83.132C72.4443 83.2627 72.5143 83.3793 72.617 83.482C72.729 83.5753 72.8783 83.622 73.065 83.622C73.1303 83.622 73.1817 83.636 73.219 83.664C73.2563 83.6827 73.275 83.7433 73.275 83.846C73.275 83.93 73.2283 83.9953 73.135 84.042C73.0417 84.0887 72.9343 84.1213 72.813 84.14C72.6917 84.1587 72.589 84.168 72.505 84.168C72.1597 84.168 71.8517 84.07 71.581 83.874C71.3103 83.6687 71.1517 83.3887 71.105 83.034C70.8997 83.4073 70.5917 83.692 70.181 83.888C69.7797 84.0747 69.3503 84.168 68.893 84.168ZM69.341 83.412C69.6583 83.412 69.9477 83.3327 70.209 83.174C70.4797 83.0153 70.6943 82.8007 70.853 82.53C71.021 82.25 71.105 81.942 71.105 81.606V80.808C70.1437 80.8733 69.4577 81.0273 69.047 81.27C68.6363 81.5127 68.431 81.9093 68.431 82.46C68.431 83.0947 68.7343 83.412 69.341 83.412ZM77.126 84.168C76.1647 84.168 75.4133 83.8647 74.872 83.258C74.34 82.642 74.074 81.83 74.074 80.822C74.102 80.178 74.2607 79.6087 74.55 79.114C74.8487 78.6193 75.2407 78.232 75.726 77.952C76.2207 77.6627 76.7667 77.5087 77.364 77.49C77.6907 77.49 78.022 77.532 78.358 77.616C78.7033 77.6907 78.988 77.8353 79.212 78.05C79.4453 78.2553 79.562 78.554 79.562 78.946C79.562 79.2167 79.478 79.4687 79.31 79.702C79.142 79.926 78.9087 80.038 78.61 80.038C78.4047 80.038 78.246 79.9867 78.134 79.884C78.022 79.7813 77.966 79.7067 77.966 79.66C77.966 79.6413 78.0033 79.604 78.078 79.548C78.162 79.4827 78.2413 79.3987 78.316 79.296C78.3907 79.184 78.428 79.0487 78.428 78.89C78.428 78.5913 78.3207 78.372 78.106 78.232C77.8913 78.092 77.6487 78.0173 77.378 78.008C76.9673 78.008 76.636 78.092 76.384 78.26C76.1413 78.428 75.9547 78.652 75.824 78.932C75.6933 79.2027 75.6047 79.5013 75.558 79.828C75.5207 80.1547 75.502 80.472 75.502 80.78C75.502 81.2933 75.5813 81.7553 75.74 82.166C75.8987 82.5673 76.1227 82.8847 76.412 83.118C76.7013 83.3513 77.0467 83.468 77.448 83.468C77.8587 83.468 78.204 83.3793 78.484 83.202C78.764 83.0247 79.0207 82.7633 79.254 82.418C79.3193 82.3247 79.4173 82.3153 79.548 82.39C79.6133 82.4273 79.66 82.4787 79.688 82.544C79.716 82.6093 79.7067 82.6747 79.66 82.74C79.352 83.1787 78.9693 83.5287 78.512 83.79C78.0547 84.042 77.5927 84.168 77.126 84.168ZM83.9945 84.168C83.2759 84.168 82.6692 84.014 82.1745 83.706C81.6892 83.398 81.3252 82.9873 81.0825 82.474C80.8399 81.9607 80.7185 81.4007 80.7185 80.794C80.7185 80.3833 80.7885 79.9867 80.9285 79.604C81.0779 79.212 81.2879 78.8573 81.5585 78.54C81.8292 78.2133 82.1559 77.9567 82.5385 77.77C82.9212 77.5833 83.3552 77.49 83.8405 77.49C84.6992 77.49 85.3432 77.714 85.7725 78.162C86.2112 78.6007 86.4632 79.1607 86.5285 79.842C86.5285 80.1687 86.4352 80.3833 86.2485 80.486C86.0712 80.5887 85.8379 80.64 85.5485 80.64H82.1465C82.1465 81.1813 82.2212 81.6667 82.3705 82.096C82.5199 82.516 82.7532 82.852 83.0705 83.104C83.3972 83.3467 83.8265 83.468 84.3585 83.468C84.7505 83.468 85.0865 83.384 85.3665 83.216C85.6465 83.048 85.9172 82.754 86.1785 82.334C86.2532 82.2407 86.3559 82.236 86.4865 82.32C86.5612 82.3573 86.6079 82.418 86.6265 82.502C86.6452 82.5767 86.6359 82.642 86.5985 82.698C86.3092 83.1553 85.9452 83.5147 85.5065 83.776C85.0679 84.0373 84.5639 84.168 83.9945 84.168ZM82.1465 80.108H84.4285C84.6525 80.108 84.8299 80.066 84.9605 79.982C85.1005 79.8887 85.1752 79.7347 85.1845 79.52C85.1845 79.1187 85.0725 78.764 84.8485 78.456C84.6339 78.1387 84.2979 77.98 83.8405 77.98C83.3739 77.98 82.9819 78.1667 82.6645 78.54C82.3565 78.9133 82.1839 79.436 82.1465 80.108Z" fill="white"/>
<circle cx="62.5293" cy="12.5" r="12.5" fill="#FFC26D" fill-opacity="0.5"/>
<path d="M35.9434 45H38.2767M44.2267 60.1667L41.87 57.8333M44.2267 60.1667L41.87 62.5M44.2267 60.1667C38.335 60.1667 33.3884 57.8333 32.4434 55.5M47.7629 59.8995C51.8124 59.2695 54.9204 57.5883 55.7767 55.5M38.2767 41.5H49.9434C52.125 41.5 53.2147 41.5 54.0267 41.969C54.5587 42.2762 55.0005 42.718 55.3077 43.25C55.7767 44.062 55.7767 45.1517 55.7767 47.3333C55.7767 49.515 55.7767 50.6047 55.3077 51.4167C55.0005 51.9487 54.5587 52.3905 54.0267 52.6977C53.2147 53.1667 52.125 53.1667 49.9434 53.1667H49.4837C48.6822 53.1667 48.282 53.1667 47.9075 53.0838C47.4056 52.9724 46.9344 52.7517 46.5274 52.4375C46.224 52.2018 45.9674 51.895 45.454 51.279C45.0457 50.789 44.8404 50.544 44.6059 50.4332C44.4507 50.3603 44.2814 50.3226 44.11 50.3226C43.9386 50.3226 43.7693 50.3603 43.6142 50.4332C43.3797 50.5428 43.1755 50.7878 42.766 51.279C42.2527 51.895 41.996 52.2018 41.6927 52.4375C41.2857 52.7517 40.8145 52.9724 40.3125 53.0838C39.9392 53.1667 39.5379 53.1667 38.7364 53.1667H38.2767C36.095 53.1667 35.0054 53.1667 34.1934 52.6977C33.6613 52.3905 33.2195 51.9487 32.9124 51.4167C32.4434 50.6047 32.4434 49.515 32.4434 47.3333C32.4434 45.1517 32.4434 44.062 32.9124 43.25C33.2195 42.718 33.6613 42.2762 34.1934 41.969C35.0054 41.5 36.095 41.5 38.2767 41.5Z" stroke="#FFC26D" stroke-width="1.5" stroke-linecap="round" stroke-linejoin="round"/>
<path d="M37.1 29.32C36.6307 29.32 36.1827 29.256 35.756 29.128C35.3293 29 34.9827 28.808 34.716 28.552C34.4493 28.2853 34.316 27.944 34.316 27.528C34.316 27.2507 34.4067 26.9947 34.588 26.76C34.7693 26.5147 35.0413 26.392 35.404 26.392C35.6387 26.392 35.82 26.4507 35.948 26.568C36.076 26.6853 36.14 26.7707 36.14 26.824C36.14 26.8453 36.092 26.8827 35.996 26.936C35.9107 26.9893 35.8253 27.0747 35.74 27.192C35.6547 27.3093 35.612 27.4693 35.612 27.672C35.612 28.0133 35.756 28.2747 36.044 28.456C36.3427 28.6373 36.7107 28.728 37.148 28.728C37.7027 28.728 38.124 28.5733 38.412 28.264C38.7107 27.9547 38.86 27.4747 38.86 26.824C38.86 26.3227 38.7267 25.912 38.46 25.592C38.1933 25.2613 37.772 25.08 37.196 25.048H36.604C36.5293 25.048 36.4707 25.016 36.428 24.952C36.3853 24.8773 36.364 24.8027 36.364 24.728C36.364 24.6427 36.3853 24.5627 36.428 24.488C36.4707 24.4133 36.5293 24.3707 36.604 24.36H37.196C37.6227 24.3173 37.9587 24.1307 38.204 23.8C38.4493 23.4587 38.572 23.0587 38.572 22.6C38.572 22.056 38.4173 21.656 38.108 21.4C37.8093 21.144 37.484 21.016 37.132 21.016C36.7907 21.016 36.4813 21.1173 36.204 21.32C35.9373 21.5227 35.804 21.8107 35.804 22.184C35.804 22.4187 35.8467 22.5787 35.932 22.664C36.0173 22.7493 36.1027 22.7973 36.188 22.808C36.284 22.808 36.332 22.8187 36.332 22.84C36.332 22.8933 36.268 22.9787 36.14 23.096C36.012 23.2133 35.8307 23.272 35.596 23.272C35.244 23.272 34.972 23.1653 34.78 22.952C34.5987 22.728 34.508 22.456 34.508 22.136C34.508 21.592 34.7587 21.1813 35.26 20.904C35.772 20.6267 36.4013 20.488 37.148 20.488C37.6707 20.488 38.1507 20.568 38.588 20.728C39.0253 20.8773 39.372 21.1067 39.628 21.416C39.8947 21.7253 40.028 22.12 40.028 22.6C40.028 23.016 39.8787 23.4213 39.58 23.816C39.292 24.2107 38.8333 24.4933 38.204 24.664V24.728C38.5133 24.76 38.8387 24.84 39.18 24.968C39.5213 25.096 39.8093 25.304 40.044 25.592C40.2893 25.88 40.412 26.28 40.412 26.792C40.412 27.4107 40.252 27.9067 39.932 28.28C39.6227 28.6427 39.2173 28.904 38.716 29.064C38.2147 29.2347 37.676 29.32 37.1 29.32ZM42.2569 29.048C42.1609 29.048 42.0915 29.0107 42.0489 28.936C42.0062 28.8613 41.9849 28.7813 41.9849 28.696C41.9955 28.5147 42.0382 28.4133 42.1129 28.392C42.1875 28.3707 42.2782 28.36 42.3849 28.36C42.7262 28.36 42.9662 28.3013 43.1049 28.184C43.2435 28.056 43.3289 27.9013 43.3609 27.72C43.4035 27.528 43.4249 27.3307 43.4249 27.128V20.776C43.4249 20.5733 43.4035 20.3813 43.3609 20.2C43.3289 20.008 43.2435 19.8533 43.1049 19.736C42.9662 19.608 42.7262 19.544 42.3849 19.544C42.2782 19.544 42.1875 19.5333 42.1129 19.512C42.0382 19.4907 41.9955 19.3893 41.9849 19.208C41.9849 19.1227 42.0062 19.0427 42.0489 18.968C42.0915 18.8933 42.1609 18.856 42.2569 18.856C42.6089 18.8667 42.9342 18.8773 43.2329 18.888C43.5315 18.8987 43.8409 18.904 44.1609 18.904H46.6569C47.6809 18.904 48.6089 19.1067 49.4409 19.512C50.2729 19.9173 50.9342 20.4987 51.4249 21.256C51.9155 22.0133 52.1609 22.9307 52.1609 24.008C52.1609 24.8613 51.9955 25.6027 51.6649 26.232C51.3342 26.8613 50.8915 27.384 50.3369 27.8C49.7822 28.2053 49.1582 28.5093 48.4649 28.712C47.7822 28.904 47.0835 29 46.3689 29H44.1609C43.8409 29 43.5315 29 43.2329 29C42.9342 29.0107 42.6089 29.0267 42.2569 29.048ZM46.6089 28.408C47.4729 28.408 48.1715 28.2267 48.7049 27.864C49.2382 27.4907 49.6222 26.9733 49.8569 26.312C50.1022 25.6507 50.2249 24.8827 50.2249 24.008C50.2249 23.1333 50.0702 22.3547 49.7609 21.672C49.4515 20.9893 48.9982 20.456 48.4009 20.072C47.8142 19.6773 47.0995 19.48 46.2569 19.48C46.0862 19.48 45.8622 19.4853 45.5849 19.496C45.3075 19.496 45.1155 19.496 45.0089 19.496V27.32C45.0089 27.7467 45.1369 28.0347 45.3929 28.184C45.6595 28.3333 46.0649 28.408 46.6089 28.408Z" fill="#FFC26D"/>
<path d="M20 35H66.5" stroke="#FFC26D" stroke-linecap="round"/>
</svg>
