<svg width="61" height="68" viewBox="0 0 61 68" fill="none" xmlns="http://www.w3.org/2000/svg">
<ellipse cx="28.5096" cy="37.5073" rx="28.5096" ry="29.5073" fill="white" fill-opacity="0.25"/>
<circle cx="47.5293" cy="12.5" r="12.5" fill="#FFC26D" fill-opacity="0.5"/>
<path d="M20.9434 45H23.2767M29.2267 60.1667L26.87 57.8333M29.2267 60.1667L26.87 62.5M29.2267 60.1667C23.335 60.1667 18.3884 57.8333 17.4434 55.5M32.7629 59.8995C36.8124 59.2695 39.9204 57.5883 40.7767 55.5M23.2767 41.5H34.9434C37.125 41.5 38.2147 41.5 39.0267 41.969C39.5587 42.2762 40.0005 42.718 40.3077 43.25C40.7767 44.062 40.7767 45.1517 40.7767 47.3333C40.7767 49.515 40.7767 50.6047 40.3077 51.4167C40.0005 51.9487 39.5587 52.3905 39.0267 52.6977C38.2147 53.1667 37.125 53.1667 34.9434 53.1667H34.4837C33.6822 53.1667 33.282 53.1667 32.9075 53.0838C32.4056 52.9724 31.9344 52.7517 31.5274 52.4375C31.224 52.2018 30.9674 51.895 30.454 51.279C30.0457 50.789 29.8404 50.544 29.6059 50.4332C29.4507 50.3603 29.2814 50.3226 29.11 50.3226C28.9386 50.3226 28.7693 50.3603 28.6142 50.4332C28.3797 50.5428 28.1755 50.7878 27.766 51.279C27.2527 51.895 26.996 52.2018 26.6927 52.4375C26.2857 52.7517 25.8145 52.9724 25.3125 53.0838C24.9392 53.1667 24.5379 53.1667 23.7364 53.1667H23.2767C21.095 53.1667 20.0054 53.1667 19.1934 52.6977C18.6613 52.3905 18.2195 51.9487 17.9124 51.4167C17.4434 50.6047 17.4434 49.515 17.4434 47.3333C17.4434 45.1517 17.4434 44.062 17.9124 43.25C18.2195 42.718 18.6613 42.2762 19.1934 41.969C20.0054 41.5 21.095 41.5 23.2767 41.5Z" stroke="#FFC26D" stroke-width="1.5" stroke-linecap="round" stroke-linejoin="round"/>
<path d="M22.1 29.32C21.6307 29.32 21.1827 29.256 20.756 29.128C20.3293 29 19.9827 28.808 19.716 28.552C19.4493 28.2853 19.316 27.944 19.316 27.528C19.316 27.2507 19.4067 26.9947 19.588 26.76C19.7693 26.5147 20.0413 26.392 20.404 26.392C20.6387 26.392 20.82 26.4507 20.948 26.568C21.076 26.6853 21.14 26.7707 21.14 26.824C21.14 26.8453 21.092 26.8827 20.996 26.936C20.9107 26.9893 20.8253 27.0747 20.74 27.192C20.6547 27.3093 20.612 27.4693 20.612 27.672C20.612 28.0133 20.756 28.2747 21.044 28.456C21.3427 28.6373 21.7107 28.728 22.148 28.728C22.7027 28.728 23.124 28.5733 23.412 28.264C23.7107 27.9547 23.86 27.4747 23.86 26.824C23.86 26.3227 23.7267 25.912 23.46 25.592C23.1933 25.2613 22.772 25.08 22.196 25.048H21.604C21.5293 25.048 21.4707 25.016 21.428 24.952C21.3853 24.8773 21.364 24.8027 21.364 24.728C21.364 24.6427 21.3853 24.5627 21.428 24.488C21.4707 24.4133 21.5293 24.3707 21.604 24.36H22.196C22.6227 24.3173 22.9587 24.1307 23.204 23.8C23.4493 23.4587 23.572 23.0587 23.572 22.6C23.572 22.056 23.4173 21.656 23.108 21.4C22.8093 21.144 22.484 21.016 22.132 21.016C21.7907 21.016 21.4813 21.1173 21.204 21.32C20.9373 21.5227 20.804 21.8107 20.804 22.184C20.804 22.4187 20.8467 22.5787 20.932 22.664C21.0173 22.7493 21.1027 22.7973 21.188 22.808C21.284 22.808 21.332 22.8187 21.332 22.84C21.332 22.8933 21.268 22.9787 21.14 23.096C21.012 23.2133 20.8307 23.272 20.596 23.272C20.244 23.272 19.972 23.1653 19.78 22.952C19.5987 22.728 19.508 22.456 19.508 22.136C19.508 21.592 19.7587 21.1813 20.26 20.904C20.772 20.6267 21.4013 20.488 22.148 20.488C22.6707 20.488 23.1507 20.568 23.588 20.728C24.0253 20.8773 24.372 21.1067 24.628 21.416C24.8947 21.7253 25.028 22.12 25.028 22.6C25.028 23.016 24.8787 23.4213 24.58 23.816C24.292 24.2107 23.8333 24.4933 23.204 24.664V24.728C23.5133 24.76 23.8387 24.84 24.18 24.968C24.5213 25.096 24.8093 25.304 25.044 25.592C25.2893 25.88 25.412 26.28 25.412 26.792C25.412 27.4107 25.252 27.9067 24.932 28.28C24.6227 28.6427 24.2173 28.904 23.716 29.064C23.2147 29.2347 22.676 29.32 22.1 29.32ZM27.2569 29.048C27.1609 29.048 27.0915 29.0107 27.0489 28.936C27.0062 28.8613 26.9849 28.7813 26.9849 28.696C26.9955 28.5147 27.0382 28.4133 27.1129 28.392C27.1875 28.3707 27.2782 28.36 27.3849 28.36C27.7262 28.36 27.9662 28.3013 28.1049 28.184C28.2435 28.056 28.3289 27.9013 28.3609 27.72C28.4035 27.528 28.4249 27.3307 28.4249 27.128V20.776C28.4249 20.5733 28.4035 20.3813 28.3609 20.2C28.3289 20.008 28.2435 19.8533 28.1049 19.736C27.9662 19.608 27.7262 19.544 27.3849 19.544C27.2782 19.544 27.1875 19.5333 27.1129 19.512C27.0382 19.4907 26.9955 19.3893 26.9849 19.208C26.9849 19.1227 27.0062 19.0427 27.0489 18.968C27.0915 18.8933 27.1609 18.856 27.2569 18.856C27.6089 18.8667 27.9342 18.8773 28.2329 18.888C28.5315 18.8987 28.8409 18.904 29.1609 18.904H31.6569C32.6809 18.904 33.6089 19.1067 34.4409 19.512C35.2729 19.9173 35.9342 20.4987 36.4249 21.256C36.9155 22.0133 37.1609 22.9307 37.1609 24.008C37.1609 24.8613 36.9955 25.6027 36.6649 26.232C36.3342 26.8613 35.8915 27.384 35.3369 27.8C34.7822 28.2053 34.1582 28.5093 33.4649 28.712C32.7822 28.904 32.0835 29 31.3689 29H29.1609C28.8409 29 28.5315 29 28.2329 29C27.9342 29.0107 27.6089 29.0267 27.2569 29.048ZM31.6089 28.408C32.4729 28.408 33.1715 28.2267 33.7049 27.864C34.2382 27.4907 34.6222 26.9733 34.8569 26.312C35.1022 25.6507 35.2249 24.8827 35.2249 24.008C35.2249 23.1333 35.0702 22.3547 34.7609 21.672C34.4515 20.9893 33.9982 20.456 33.4009 20.072C32.8142 19.6773 32.0995 19.48 31.2569 19.48C31.0862 19.48 30.8622 19.4853 30.5849 19.496C30.3075 19.496 30.1155 19.496 30.0089 19.496V27.32C30.0089 27.7467 30.1369 28.0347 30.3929 28.184C30.6595 28.3333 31.0649 28.408 31.6089 28.408Z" fill="#FFC26D"/>
<path d="M5 35H51.5" stroke="#FFC26D" stroke-linecap="round"/>
</svg>
