<svg width="20" height="22" viewBox="0 0 20 22" fill="none" xmlns="http://www.w3.org/2000/svg">
<path d="M9.99964 2.98606e-07C11.3069 -0.000416416 12.5799 0.435332 13.6317 1.24329C14.6835 2.05125 15.4588 3.18886 15.8438 4.48915C16.2288 5.78945 16.2031 7.18395 15.7707 8.46797C15.3382 9.75199 14.5217 10.8579 13.4409 11.6234C15.3168 12.3395 16.9438 13.6236 18.1126 15.3104C19.2813 16.9971 19.9383 19.0093 19.9989 21.088C20.0046 21.2034 19.9881 21.3188 19.9503 21.4274C19.9125 21.5361 19.8543 21.6358 19.7791 21.7207C19.7038 21.8056 19.613 21.874 19.512 21.9219C19.411 21.9698 19.3018 21.9962 19.1908 21.9996C19.0799 22.003 18.9694 21.9833 18.8658 21.9417C18.7623 21.9 18.6678 21.8373 18.5879 21.7571C18.5079 21.6769 18.4442 21.5809 18.4004 21.4748C18.3566 21.3686 18.3336 21.2544 18.3327 21.1389C18.2665 18.8846 17.3596 16.7458 15.8042 15.1756C14.2488 13.6054 12.1671 12.7272 10.0002 12.7272C7.83334 12.7272 5.75162 13.6054 4.19619 15.1756C2.64076 16.7458 1.73385 18.8846 1.66766 21.1389C1.66103 21.369 1.56684 21.587 1.40581 21.7448C1.24478 21.9027 1.0301 21.9875 0.809009 21.9806C0.587913 21.9737 0.378508 21.8756 0.22686 21.708C0.0752115 21.5404 -0.00625739 21.317 0.000375486 21.0869C0.0612294 19.0084 0.718303 16.9964 1.88703 15.3099C3.05576 13.6234 4.68267 12.3394 6.55837 11.6234C5.47762 10.8579 4.66108 9.75199 4.22861 8.46797C3.79614 7.18395 3.77051 5.78945 4.15549 4.48915C4.54046 3.18886 5.31575 2.05125 6.36759 1.24329C7.41942 0.435332 8.69238 -0.000416416 9.99964 2.98606e-07ZM5.55355 6.36296C5.55355 7.59028 6.02198 8.76733 6.85578 9.63518C7.68958 10.503 8.82047 10.9906 9.99964 10.9906C11.1788 10.9906 12.3097 10.503 13.1435 9.63518C13.9773 8.76733 14.4457 7.59028 14.4457 6.36296C14.4457 5.13565 13.9773 3.95859 13.1435 3.09075C12.3097 2.2229 11.1788 1.73535 9.99964 1.73535C8.82047 1.73535 7.68958 2.2229 6.85578 3.09075C6.02198 3.95859 5.55355 5.13565 5.55355 6.36296Z" fill="#273166"/>
</svg>
