<svg width="24" height="24" viewBox="0 0 24 24" fill="none" xmlns="http://www.w3.org/2000/svg">
<path d="M11.9996 1C13.3069 0.999584 14.5799 1.43533 15.6317 2.24329C16.6835 3.05125 17.4588 4.18886 17.8438 5.48915C18.2288 6.78945 18.2031 8.18395 17.7707 9.46797C17.3382 10.752 16.5217 11.8579 15.4409 12.6234C17.3168 13.3395 18.9438 14.6236 20.1126 16.3104C21.2813 17.9971 21.9383 20.0093 21.9989 22.088C22.0046 22.2034 21.9881 22.3188 21.9503 22.4274C21.9125 22.5361 21.8543 22.6358 21.7791 22.7207C21.7038 22.8056 21.613 22.874 21.512 22.9219C21.411 22.9698 21.3018 22.9962 21.1908 22.9996C21.0799 23.003 20.9694 22.9833 20.8658 22.9417C20.7623 22.9 20.6678 22.8373 20.5879 22.7571C20.5079 22.6769 20.4442 22.5809 20.4004 22.4748C20.3566 22.3686 20.3336 22.2545 20.3327 22.1389C20.2665 19.8846 19.3596 17.7458 17.8042 16.1756C16.2488 14.6054 14.1671 13.7272 12.0002 13.7272C9.83334 13.7272 7.75162 14.6054 6.19619 16.1756C4.64076 17.7458 3.73385 19.8846 3.66766 22.1389C3.66103 22.369 3.56684 22.587 3.40581 22.7448C3.24478 22.9027 3.0301 22.9875 2.80901 22.9806C2.58791 22.9737 2.37851 22.8756 2.22686 22.708C2.07521 22.5404 1.99374 22.317 2.00038 22.0869C2.06123 20.0084 2.7183 17.9964 3.88703 16.3099C5.05576 14.6234 6.68267 13.3394 8.55837 12.6234C7.47762 11.8579 6.66108 10.752 6.22861 9.46797C5.79614 8.18395 5.77051 6.78945 6.15549 5.48915C6.54046 4.18886 7.31575 3.05125 8.36759 2.24329C9.41942 1.43533 10.6924 0.999584 11.9996 1ZM7.55355 7.36296C7.55355 8.59028 8.02198 9.76733 8.85578 10.6352C9.68958 11.503 10.8205 11.9906 11.9996 11.9906C13.1788 11.9906 14.3097 11.503 15.1435 10.6352C15.9773 9.76733 16.4457 8.59028 16.4457 7.36296C16.4457 6.13565 15.9773 4.95859 15.1435 4.09075C14.3097 3.2229 13.1788 2.73535 11.9996 2.73535C10.8205 2.73535 9.68958 3.2229 8.85578 4.09075C8.02198 4.95859 7.55355 6.13565 7.55355 7.36296Z" fill="white"/>
</svg>
