<svg width="24" height="24" viewBox="0 0 24 24" fill="none" xmlns="http://www.w3.org/2000/svg">
<path d="M16.2863 6.36593L19.2129 3.37105C19.4201 3.15902 19.6664 3.05301 19.9516 3.05301C20.2368 3.05301 20.4827 3.15902 20.6892 3.37105C20.8957 3.58307 20.9993 3.83503 21 4.12692C21.0007 4.41881 20.8971 4.67042 20.6892 4.88174L17.0115 8.61872C16.8043 8.83074 16.5626 8.93676 16.2863 8.93676C16.0101 8.93676 15.7683 8.83074 15.5611 8.61872L14.0849 7.10802C13.895 6.91367 13.8 6.67089 13.8 6.37971C13.8 6.08853 13.895 5.83657 14.0849 5.62383C14.2921 5.41181 14.5383 5.30579 14.8235 5.30579C15.1088 5.30579 15.3546 5.41181 15.5611 5.62383L16.2863 6.36593ZM10.2518 18.902L5.90072 20.8103C5.21007 21.1106 4.55396 21.0534 3.93237 20.6385C3.31079 20.2237 3 19.636 3 18.8755V5.12027C3 4.5372 3.20305 4.03823 3.60915 3.62336C4.01525 3.20849 4.50285 3.00071 5.07194 3H10.2518C10.5453 3 10.7915 3.10177 10.9904 3.30532C11.1894 3.50886 11.2885 3.76047 11.2878 4.06014C11.2871 4.3598 11.1876 4.61176 10.9894 4.81601C10.7912 5.02026 10.5453 5.12168 10.2518 5.12027H5.07194V18.849L10.2518 16.5697L15.4317 18.849V12.5412C15.4317 12.2408 15.5311 11.9892 15.73 11.7864C15.9289 11.5836 16.1748 11.4818 16.4676 11.4811C16.7605 11.4804 17.0067 11.5821 17.2063 11.7864C17.4059 11.9907 17.505 12.2423 17.5036 12.5412V18.8755C17.5036 19.6353 17.1928 20.223 16.5712 20.6385C15.9496 21.0541 15.2935 21.1113 14.6029 20.8103L10.2518 18.902ZM10.2518 5.12027H5.07194H11.2878H10.2518Z" fill="white"/>
</svg>
