<svg width="58" height="59" viewBox="0 0 58 59" fill="none" xmlns="http://www.w3.org/2000/svg">
<path d="M28.5488 0.492676C44.002 0.492745 56.5586 13.4639 56.5586 29.5005C56.5583 45.5369 44.0018 58.5073 28.5488 58.5073C13.0958 58.5073 0.539313 45.5369 0.539062 29.5005C0.539062 13.4638 13.0956 0.492676 28.5488 0.492676Z" fill="white" fill-opacity="0.25" stroke="#31FBFB"/>
<path d="M27.2689 39.473C28.0395 39.473 28.6907 39.2071 29.2225 38.6754C29.7542 38.1428 30.02 37.4916 30.02 36.7218V31.0835H33.889V28.9018H28.9306V34.6918C28.7077 34.449 28.4575 34.2682 28.1798 34.1492C27.9031 34.0302 27.5994 33.9707 27.2689 33.9707C26.4992 33.9707 25.848 34.2365 25.3153 34.7683C24.7836 35.3009 24.5177 35.9521 24.5177 36.7218C24.5177 37.4916 24.7836 38.1428 25.3153 38.6754C25.848 39.2071 26.4992 39.473 27.2689 39.473ZM21.4124 42.7427C20.7598 42.7427 20.2153 42.5245 19.779 42.0882C19.3426 41.6518 19.124 41.1074 19.123 40.4548V19.5306C19.123 18.8789 19.3417 18.3349 19.779 17.8986C20.2162 17.4623 20.7607 17.2436 21.4124 17.2427H32.5814L38.9564 23.6177V40.4548C38.9564 41.1064 38.7382 41.6509 38.3019 42.0882C37.8655 42.5255 37.3206 42.7436 36.667 42.7427H21.4124ZM31.873 24.326V18.6593H21.4124C21.1942 18.6593 20.994 18.75 20.8117 18.9313C20.6294 19.1127 20.5388 19.3124 20.5397 19.5306V40.4548C20.5397 40.672 20.6304 40.8717 20.8117 41.054C20.993 41.2363 21.1928 41.327 21.411 41.326H36.6685C36.8857 41.326 37.0854 41.2353 37.2677 41.054C37.45 40.8727 37.5407 40.6725 37.5397 40.4533V24.326H31.873Z" fill="#31FBFB"/>
</svg>
