<svg width="61" height="67" viewBox="0 0 61 67" fill="none" xmlns="http://www.w3.org/2000/svg">
<ellipse cx="28.912" cy="37.5" rx="28.5096" ry="29.5073" fill="white" fill-opacity="0.25"/>
<circle cx="48.1035" cy="12.4927" r="12.5" fill="#31FBFB" fill-opacity="0.5"/>
<path d="M48.5043 16.2727C47.7483 16.2727 47.123 16.0907 46.6283 15.7267C46.1337 15.3533 45.765 14.8727 45.5223 14.2847C45.289 13.6967 45.1723 13.0713 45.1723 12.4087C45.1723 11.7367 45.289 11.1113 45.5223 10.5327C45.765 9.94468 46.1337 9.47334 46.6283 9.11868C47.123 8.75468 47.7483 8.57268 48.5043 8.57268C49.2323 8.57268 49.8437 8.75468 50.3383 9.11868C50.833 9.48268 51.2063 9.95868 51.4583 10.5467C51.7103 11.1253 51.8363 11.746 51.8363 12.4087C51.8363 12.894 51.7617 13.37 51.6123 13.8367C51.4723 14.294 51.2623 14.7093 50.9823 15.0827C50.7023 15.4467 50.3523 15.736 49.9323 15.9507C49.5217 16.1653 49.0457 16.2727 48.5043 16.2727ZM48.5183 15.7547C49.1437 15.7547 49.629 15.47 49.9743 14.9007C50.3197 14.322 50.4923 13.4913 50.4923 12.4087C50.4923 11.326 50.3197 10.5047 49.9743 9.94468C49.629 9.37534 49.1437 9.09068 48.5183 9.09068C47.8743 9.09068 47.3797 9.37534 47.0343 9.94468C46.689 10.5047 46.5163 11.326 46.5163 12.4087C46.5163 13.4913 46.689 14.322 47.0343 14.9007C47.3797 15.47 47.8743 15.7547 48.5183 15.7547Z" fill="white"/>
<path d="M27.6322 47.473C28.4028 47.473 29.054 47.2071 29.5857 46.6754C30.1175 46.1428 30.3833 45.4916 30.3833 44.7218V39.0835H34.2522V36.9018H29.2939V42.6918C29.071 42.449 28.8207 42.2682 28.5431 42.1492C28.2664 42.0302 27.9627 41.9707 27.6322 41.9707C26.8624 41.9707 26.2112 42.2365 25.6786 42.7683C25.1469 43.3009 24.881 43.9521 24.881 44.7218C24.881 45.4916 25.1469 46.1428 25.6786 46.6754C26.2112 47.2071 26.8624 47.473 27.6322 47.473ZM21.7757 50.7427C21.1231 50.7427 20.5786 50.5245 20.1422 50.0882C19.7059 49.6518 19.4873 49.1074 19.4863 48.4548V27.5306C19.4863 26.8789 19.705 26.3349 20.1422 25.8986C20.5795 25.4623 21.124 25.2436 21.7757 25.2427H32.9447L39.3197 31.6177V48.4548C39.3197 49.1064 39.1015 49.6509 38.6652 50.0882C38.2288 50.5255 37.6839 50.7436 37.0303 50.7427H21.7757ZM32.2363 32.326V26.6593H21.7757C21.5575 26.6593 21.3573 26.75 21.175 26.9313C20.9927 27.1127 20.9021 27.3124 20.903 27.5306V48.4548C20.903 48.672 20.9937 48.8717 21.175 49.054C21.3563 49.2363 21.5561 49.327 21.7742 49.326H37.0317C37.249 49.326 37.4487 49.2353 37.631 49.054C37.8133 48.8727 37.9039 48.6725 37.903 48.4533V32.326H32.2363Z" fill="#31FBFB"/>
</svg>
