<svg width="61" height="91" viewBox="0 0 61 91" fill="none" xmlns="http://www.w3.org/2000/svg">
<path d="M6.48634 84.9629C6.39301 84.9629 6.32768 84.9302 6.29034 84.8649C6.25301 84.7996 6.23434 84.7296 6.23434 84.6549C6.24368 84.4962 6.28101 84.4076 6.34634 84.3889C6.41168 84.3702 6.49101 84.3609 6.58434 84.3609C6.83634 84.3609 7.02768 84.3096 7.15834 84.2069C7.28901 84.1042 7.39168 83.9689 7.46634 83.8009C7.55034 83.6329 7.62968 83.4602 7.70434 83.2829L10.1543 77.4869C10.2477 77.2629 10.2663 77.0949 10.2103 76.9829C10.1543 76.8616 10.061 76.7776 9.93034 76.7309C9.79968 76.6749 9.65501 76.6329 9.49634 76.6049C9.35634 76.5769 9.26301 76.5536 9.21634 76.5349C9.16968 76.5069 9.14634 76.4229 9.14634 76.2829C9.14634 76.1242 9.20234 76.0402 9.31434 76.0309C9.42634 76.0122 9.55701 76.0029 9.70634 76.0029C10.089 76.0029 10.4157 76.0402 10.6863 76.1149C10.957 76.1896 11.1903 76.3342 11.3863 76.5489C11.5823 76.7542 11.7643 77.0669 11.9323 77.4869L14.2843 83.2829C14.3497 83.4416 14.4197 83.6049 14.4943 83.7729C14.569 83.9409 14.667 84.0809 14.7883 84.1929C14.919 84.2956 15.0823 84.3516 15.2783 84.3609C15.381 84.3609 15.4603 84.3702 15.5163 84.3889C15.5817 84.4076 15.619 84.4962 15.6283 84.6549C15.6283 84.7296 15.605 84.7996 15.5583 84.8649C15.521 84.9302 15.4603 84.9629 15.3763 84.9629C15.0777 84.9442 14.8163 84.9302 14.5923 84.9209C14.3683 84.9209 14.1163 84.9209 13.8363 84.9209C13.2857 84.9209 12.707 84.9349 12.1003 84.9629C12.007 84.9629 11.9417 84.9302 11.9043 84.8649C11.867 84.7996 11.8483 84.7296 11.8483 84.6549C11.8577 84.4962 11.895 84.4076 11.9603 84.3889C12.0257 84.3702 12.105 84.3609 12.1983 84.3609C12.6557 84.3609 12.903 84.2769 12.9403 84.1089C12.987 83.9409 12.945 83.6656 12.8143 83.2829L12.3383 82.1209H8.88034C8.74034 82.4756 8.63768 82.7322 8.57234 82.8909C8.51634 83.0496 8.47901 83.1522 8.46034 83.1989C8.45101 83.2456 8.44168 83.2736 8.43234 83.2829C8.32968 83.6002 8.27368 83.8382 8.26434 83.9969C8.26434 84.1462 8.33901 84.2442 8.48834 84.2909C8.64701 84.3376 8.90834 84.3609 9.27234 84.3609C9.37501 84.3609 9.45434 84.3702 9.51034 84.3889C9.57568 84.4076 9.61301 84.4962 9.62234 84.6549C9.62234 84.7296 9.59901 84.7996 9.55234 84.8649C9.51501 84.9302 9.45434 84.9629 9.37034 84.9629C9.07168 84.9442 8.81034 84.9302 8.58634 84.9209C8.37168 84.9209 8.12434 84.9209 7.84434 84.9209C7.65768 84.9209 7.49901 84.9209 7.36834 84.9209C7.24701 84.9302 7.12101 84.9349 6.99034 84.9349C6.85968 84.9442 6.69168 84.9536 6.48634 84.9629ZM9.14634 81.5189H12.0863L10.6723 77.9209H10.6303L9.14634 81.5189ZM18.6627 85.0889C18.0281 85.0889 17.5241 84.8976 17.1507 84.5149C16.7774 84.1322 16.5907 83.6282 16.5907 83.0029V80.4129C16.5907 80.2449 16.5814 80.0909 16.5627 79.9509C16.5534 79.8016 16.5021 79.6849 16.4087 79.6009C16.3154 79.5076 16.1381 79.4609 15.8767 79.4609C15.7927 79.4609 15.7134 79.4516 15.6387 79.4329C15.5734 79.4049 15.5407 79.3209 15.5407 79.1809C15.5407 79.0409 15.6154 78.9569 15.7647 78.9289C16.1941 78.8636 16.5207 78.7982 16.7447 78.7329C16.9781 78.6676 17.1554 78.6116 17.2767 78.5649C17.3981 78.5182 17.5054 78.4902 17.5987 78.4809C17.6734 78.4716 17.7341 78.4856 17.7807 78.5229C17.8367 78.5602 17.8647 78.6349 17.8647 78.7469V82.9889C17.8647 83.2969 17.9301 83.5489 18.0607 83.7449C18.2007 83.9409 18.3734 84.0856 18.5787 84.1789C18.7841 84.2722 18.9941 84.3189 19.2087 84.3189C19.5354 84.3189 19.8201 84.2629 20.0627 84.1509C20.3054 84.0296 20.5014 83.8942 20.6507 83.7449C20.8001 83.5862 20.8981 83.4556 20.9447 83.3529V80.4129C20.9447 80.2449 20.9354 80.0909 20.9167 79.9509C20.9074 79.8016 20.8561 79.6849 20.7627 79.6009C20.6694 79.5076 20.4921 79.4609 20.2307 79.4609C20.1467 79.4609 20.0674 79.4516 19.9927 79.4329C19.9274 79.4049 19.8947 79.3209 19.8947 79.1809C19.8947 79.0409 19.9694 78.9569 20.1187 78.9289C20.5481 78.8636 20.8747 78.7982 21.0987 78.7329C21.3321 78.6676 21.5094 78.6116 21.6307 78.5649C21.7521 78.5182 21.8594 78.4902 21.9527 78.4809C22.0274 78.4716 22.0881 78.4856 22.1347 78.5229C22.1907 78.5602 22.2187 78.6349 22.2187 78.7469V83.5909C22.2187 84.1416 22.5874 84.4169 23.3247 84.4169C23.4274 84.4169 23.4927 84.4449 23.5207 84.5009C23.5487 84.5569 23.5627 84.6176 23.5627 84.6829C23.5627 84.8136 23.4834 84.8929 23.3247 84.9209L21.0707 85.0749C21.0054 85.0749 20.9681 85.0469 20.9587 84.9909C20.9494 84.9349 20.9447 84.8696 20.9447 84.7949V84.0109H20.9167C20.7394 84.1789 20.5481 84.3469 20.3427 84.5149C20.1467 84.6829 19.9134 84.8182 19.6427 84.9209C19.3814 85.0329 19.0547 85.0889 18.6627 85.0889ZM27.0882 85.0889C26.5656 85.0889 26.0802 84.9489 25.6322 84.6689C25.1842 84.3889 24.8249 83.9969 24.5542 83.4929C24.2836 82.9889 24.1482 82.4056 24.1482 81.7429C24.1482 81.1642 24.2836 80.6229 24.5542 80.1189C24.8342 79.6056 25.2169 79.1949 25.7022 78.8869C26.1969 78.5696 26.7569 78.4109 27.3822 78.4109C27.6809 78.4109 27.9749 78.4482 28.2642 78.5229C28.5536 78.5882 28.8009 78.6816 29.0062 78.8029H29.0482V76.6609C29.0482 76.4929 29.0389 76.3389 29.0202 76.1989C29.0109 76.0496 28.9596 75.9329 28.8662 75.8489C28.7729 75.7556 28.5956 75.7089 28.3342 75.7089C28.2502 75.7089 28.1709 75.6996 28.0962 75.6809C28.0309 75.6529 27.9982 75.5689 27.9982 75.4289C27.9982 75.2889 28.0729 75.2049 28.2222 75.1769C28.6516 75.1116 28.9782 75.0462 29.2022 74.9809C29.4356 74.9156 29.6129 74.8596 29.7342 74.8129C29.8556 74.7662 29.9629 74.7382 30.0562 74.7289C30.1309 74.7196 30.1916 74.7336 30.2382 74.7709C30.2942 74.8082 30.3222 74.8829 30.3222 74.9949V83.6329C30.3222 84.1836 30.6862 84.4589 31.4142 84.4589C31.5169 84.4589 31.5822 84.4869 31.6102 84.5429C31.6382 84.5896 31.6522 84.6362 31.6522 84.6829C31.6522 84.8136 31.5729 84.8929 31.4142 84.9209L29.1882 85.0749C29.1229 85.0749 29.0856 85.0469 29.0762 84.9909C29.0669 84.9349 29.0622 84.8696 29.0622 84.7949V84.2349H29.0202C28.7869 84.4776 28.4929 84.6829 28.1382 84.8509C27.7929 85.0096 27.4429 85.0889 27.0882 85.0889ZM27.5642 84.3889C27.9189 84.3889 28.2129 84.3189 28.4462 84.1789C28.6796 84.0296 28.8802 83.8662 29.0482 83.6889V79.9929C29.0016 79.8342 28.9129 79.6756 28.7822 79.5169C28.6609 79.3489 28.4929 79.2089 28.2782 79.0969C28.0729 78.9756 27.8209 78.9149 27.5222 78.9149C26.9809 78.9149 26.5236 79.1716 26.1502 79.6849C25.7769 80.1889 25.5902 80.8982 25.5902 81.8129C25.5902 82.2516 25.6602 82.6716 25.8002 83.0729C25.9496 83.4649 26.1689 83.7822 26.4582 84.0249C26.7476 84.2676 27.1162 84.3889 27.5642 84.3889ZM32.3813 84.9629C32.316 84.9629 32.26 84.9349 32.2133 84.8789C32.176 84.8136 32.1573 84.7482 32.1573 84.6829C32.176 84.5429 32.2133 84.4682 32.2693 84.4589C32.3253 84.4402 32.4 84.4309 32.4933 84.4309C32.7546 84.4309 32.932 84.3889 33.0253 84.3049C33.1186 84.2116 33.17 84.0902 33.1793 83.9409C33.198 83.7916 33.2073 83.6376 33.2073 83.4789V80.2729C33.2073 80.1049 33.198 79.9509 33.1793 79.8109C33.17 79.6616 33.1186 79.5449 33.0253 79.4609C32.932 79.3676 32.7546 79.3209 32.4933 79.3209C32.4093 79.3209 32.33 79.3116 32.2553 79.2929C32.19 79.2649 32.1573 79.1809 32.1573 79.0409C32.1573 78.9009 32.232 78.8169 32.3813 78.7889C32.8106 78.7236 33.1373 78.6582 33.3613 78.5929C33.5946 78.5276 33.772 78.4716 33.8933 78.4249C34.0146 78.3782 34.122 78.3502 34.2153 78.3409C34.29 78.3316 34.3506 78.3456 34.3973 78.3829C34.4533 78.4202 34.4813 78.4949 34.4813 78.6069V83.4789C34.4813 83.6376 34.486 83.7916 34.4953 83.9409C34.514 84.0902 34.57 84.2116 34.6633 84.3049C34.766 84.3889 34.948 84.4309 35.2093 84.4309C35.2933 84.4309 35.3633 84.4402 35.4193 84.4589C35.4846 84.4682 35.522 84.5429 35.5313 84.6829C35.5313 84.7482 35.5126 84.8136 35.4753 84.8789C35.438 84.9349 35.382 84.9629 35.3073 84.9629C35.0366 84.9442 34.7846 84.9302 34.5513 84.9209C34.3273 84.9209 34.0893 84.9209 33.8373 84.9209C33.5853 84.9209 33.3473 84.9209 33.1233 84.9209C32.8993 84.9302 32.652 84.9442 32.3813 84.9629ZM33.7673 76.7869C33.506 76.7869 33.2866 76.7076 33.1093 76.5489C32.932 76.3809 32.8433 76.1756 32.8433 75.9329C32.8433 75.7182 32.9506 75.5269 33.1653 75.3589C33.38 75.1909 33.6226 75.1069 33.8933 75.1069C34.1266 75.1069 34.318 75.1909 34.4673 75.3589C34.6166 75.5176 34.6913 75.7229 34.6913 75.9749C34.6913 76.1989 34.6026 76.3902 34.4253 76.5489C34.248 76.7076 34.0286 76.7869 33.7673 76.7869ZM39.5782 85.0889C38.9249 85.0889 38.3509 84.9349 37.8562 84.6269C37.3709 84.3189 36.9929 83.9176 36.7222 83.4229C36.4515 82.9282 36.3162 82.4009 36.3162 81.8409C36.3162 81.2902 36.4142 80.8002 36.6102 80.3709C36.8062 79.9416 37.0629 79.5822 37.3802 79.2929C37.7069 79.0036 38.0615 78.7842 38.4442 78.6349C38.8269 78.4856 39.2049 78.4109 39.5782 78.4109C40.2315 78.4109 40.8009 78.5649 41.2862 78.8729C41.7809 79.1809 42.1635 79.5822 42.4342 80.0769C42.7049 80.5716 42.8402 81.0989 42.8402 81.6589C42.8402 82.2096 42.7375 82.6996 42.5322 83.1289C42.3362 83.5582 42.0749 83.9176 41.7482 84.2069C41.4309 84.4962 41.0809 84.7156 40.6982 84.8649C40.3155 85.0142 39.9422 85.0889 39.5782 85.0889ZM39.5782 84.5709C40.0355 84.5709 40.3949 84.4356 40.6562 84.1649C40.9269 83.8942 41.1182 83.5396 41.2302 83.1009C41.3515 82.6529 41.4122 82.1722 41.4122 81.6589C41.4122 81.1642 41.3515 80.7116 41.2302 80.3009C41.1089 79.8902 40.9129 79.5589 40.6422 79.3069C40.3715 79.0549 40.0169 78.9289 39.5782 78.9289C39.1209 78.9289 38.7569 79.0642 38.4862 79.3349C38.2155 79.5962 38.0242 79.9462 37.9122 80.3849C37.8002 80.8142 37.7442 81.2902 37.7442 81.8129C37.7442 82.2982 37.8002 82.7509 37.9122 83.1709C38.0335 83.5909 38.2295 83.9316 38.5002 84.1929C38.7709 84.4449 39.1302 84.5709 39.5782 84.5709ZM43.7706 78.4669C43.6773 78.4949 43.598 78.4809 43.5326 78.4249C43.4766 78.3689 43.4486 78.2989 43.4486 78.2149C43.4486 78.1309 43.4953 78.0702 43.5886 78.0329C44.382 77.7342 44.7786 77.3189 44.7786 76.7869C44.7786 76.6189 44.7226 76.4836 44.6106 76.3809C44.508 76.2689 44.3866 76.1756 44.2466 76.1009C44.116 76.0169 43.9946 75.9236 43.8826 75.8209C43.78 75.7182 43.7286 75.5876 43.7286 75.4289C43.7286 75.2516 43.794 75.0929 43.9246 74.9529C44.0646 74.8036 44.2326 74.7289 44.4286 74.7289C44.6993 74.7289 44.942 74.8129 45.1566 74.9809C45.3713 75.1489 45.5393 75.3636 45.6606 75.6249C45.782 75.8769 45.8426 76.1336 45.8426 76.3949C45.8426 76.7776 45.7353 77.1089 45.5206 77.3889C45.3153 77.6596 45.054 77.8836 44.7366 78.0609C44.4193 78.2382 44.0973 78.3736 43.7706 78.4669ZM48.9797 85.0889C48.2611 85.0889 47.6591 84.9629 47.1737 84.7109C46.6977 84.4496 46.4597 84.0762 46.4597 83.5909C46.4597 83.3202 46.5391 83.1009 46.6977 82.9329C46.8657 82.7649 47.0804 82.6809 47.3417 82.6809C47.5097 82.6809 47.6451 82.7276 47.7477 82.8209C47.8597 82.9049 47.9157 82.9656 47.9157 83.0029C47.9157 83.0309 47.8597 83.0962 47.7477 83.1989C47.6451 83.2922 47.5937 83.4462 47.5937 83.6609C47.5937 83.9222 47.7151 84.1416 47.9577 84.3189C48.2097 84.4869 48.5877 84.5709 49.0917 84.5709C49.5304 84.5709 49.8711 84.4776 50.1137 84.2909C50.3657 84.0949 50.4917 83.8242 50.4917 83.4789C50.4917 83.1989 50.3984 82.9842 50.2117 82.8349C50.0344 82.6762 49.8011 82.5502 49.5117 82.4569C49.2317 82.3636 48.9284 82.2702 48.6017 82.1769C48.2844 82.0836 47.9811 81.9669 47.6917 81.8269C47.4024 81.6869 47.1644 81.4956 46.9777 81.2529C46.8004 81.0009 46.7117 80.6696 46.7117 80.2589C46.7117 79.8389 46.8377 79.4936 47.0897 79.2229C47.3417 78.9522 47.6637 78.7516 48.0557 78.6209C48.4477 78.4809 48.8444 78.4109 49.2457 78.4109C49.5911 78.4109 49.9177 78.4622 50.2257 78.5649C50.5337 78.6582 50.7857 78.8029 50.9817 78.9989C51.1871 79.1949 51.2897 79.4422 51.2897 79.7409C51.2897 79.9742 51.2151 80.1842 51.0657 80.3709C50.9164 80.5576 50.7111 80.6509 50.4497 80.6509C50.2817 80.6509 50.1417 80.6089 50.0297 80.5249C49.9271 80.4316 49.8757 80.3662 49.8757 80.3289C49.8757 80.3102 49.9084 80.2776 49.9737 80.2309C50.0484 80.1749 50.1184 80.1049 50.1837 80.0209C50.2491 79.9276 50.2817 79.8109 50.2817 79.6709C50.2631 79.4002 50.1324 79.1996 49.8897 79.0689C49.6471 78.9382 49.3764 78.8729 49.0777 78.8729C48.7511 78.8729 48.4477 78.9522 48.1677 79.1109C47.8877 79.2696 47.7477 79.4982 47.7477 79.7969C47.7477 80.0676 47.8037 80.2776 47.9157 80.4269C48.0371 80.5762 48.2237 80.7069 48.4757 80.8189C48.7371 80.9216 49.0731 81.0382 49.4837 81.1689C49.8944 81.2996 50.2537 81.4349 50.5617 81.5749C50.8791 81.7149 51.1217 81.9016 51.2897 82.1349C51.4671 82.3589 51.5557 82.6669 51.5557 83.0589C51.5557 83.4509 51.4437 83.8009 51.2197 84.1089C50.9957 84.4169 50.6877 84.6596 50.2957 84.8369C49.9131 85.0049 49.4744 85.0889 48.9797 85.0889Z" fill="white"/>
<ellipse cx="28.912" cy="38.4282" rx="28.5096" ry="29.5073" fill="white" fill-opacity="0.25"/>
<circle cx="48.1035" cy="13.4209" r="12.5" fill="#31FBFB" fill-opacity="0.5"/>
<path d="M27.6322 48.4012C28.4028 48.4012 29.054 48.1354 29.5857 47.6036C30.1175 47.071 30.3833 46.4198 30.3833 45.6501V40.0117H34.2522V37.8301H29.2939V43.62C29.071 43.3773 28.8207 43.1964 28.5431 43.0774C28.2664 42.9584 27.9627 42.8989 27.6322 42.8989C26.8624 42.8989 26.2112 43.1648 25.6786 43.6965C25.1469 44.2292 24.881 44.8803 24.881 45.6501C24.881 46.4198 25.1469 47.071 25.6786 47.6036C26.2112 48.1354 26.8624 48.4012 27.6322 48.4012ZM21.7757 51.6709C21.1231 51.6709 20.5786 51.4527 20.1422 51.0164C19.7059 50.5801 19.4873 50.0356 19.4863 49.383V28.4588C19.4863 27.8071 19.705 27.2631 20.1422 26.8268C20.5795 26.3905 21.124 26.1718 21.7757 26.1709H32.9447L39.3197 32.5459V49.383C39.3197 50.0347 39.1015 50.5791 38.6652 51.0164C38.2288 51.4537 37.6839 51.6718 37.0303 51.6709H21.7757ZM32.2363 33.2542V27.5876H21.7757C21.5575 27.5876 21.3573 27.6782 21.175 27.8596C20.9927 28.0409 20.9021 28.2406 20.903 28.4588V49.383C20.903 49.6002 20.9937 49.8 21.175 49.9822C21.3563 50.1645 21.5561 50.2552 21.7742 50.2542H37.0317C37.249 50.2542 37.4487 50.1636 37.631 49.9822C37.8133 49.8009 37.9039 49.6007 37.903 49.3816V33.2542H32.2363Z" fill="#31FBFB"/>
</svg>
