<svg width="61" height="67" viewBox="0 0 61 67" fill="none" xmlns="http://www.w3.org/2000/svg">
<ellipse cx="28.912" cy="37.5" rx="28.5096" ry="29.5073" fill="white" fill-opacity="0.25"/>
<circle cx="48.1035" cy="12.4927" r="12.5" fill="#31FBFB" fill-opacity="0.5"/>
<path d="M27.6322 47.473C28.4028 47.473 29.054 47.2071 29.5857 46.6754C30.1175 46.1428 30.3833 45.4916 30.3833 44.7218V39.0835H34.2522V36.9018H29.2939V42.6918C29.071 42.449 28.8207 42.2682 28.5431 42.1492C28.2664 42.0302 27.9627 41.9707 27.6322 41.9707C26.8624 41.9707 26.2112 42.2365 25.6786 42.7683C25.1469 43.3009 24.881 43.9521 24.881 44.7218C24.881 45.4916 25.1469 46.1428 25.6786 46.6754C26.2112 47.2071 26.8624 47.473 27.6322 47.473ZM21.7757 50.7427C21.1231 50.7427 20.5786 50.5245 20.1422 50.0882C19.7059 49.6518 19.4873 49.1074 19.4863 48.4548V27.5306C19.4863 26.8789 19.705 26.3349 20.1422 25.8986C20.5795 25.4623 21.124 25.2436 21.7757 25.2427H32.9447L39.3197 31.6177V48.4548C39.3197 49.1064 39.1015 49.6509 38.6652 50.0882C38.2288 50.5255 37.6839 50.7436 37.0303 50.7427H21.7757ZM32.2363 32.326V26.6593H21.7757C21.5575 26.6593 21.3573 26.75 21.175 26.9313C20.9927 27.1127 20.9021 27.3124 20.903 27.5306V48.4548C20.903 48.672 20.9937 48.8717 21.175 49.054C21.3563 49.2363 21.5561 49.327 21.7742 49.326H37.0317C37.249 49.326 37.4487 49.2353 37.631 49.054C37.8133 48.8727 37.9039 48.6725 37.903 48.4533V32.326H32.2363Z" fill="#31FBFB"/>
</svg>
