<svg width="61" height="67" viewBox="0 0 61 67" fill="none" xmlns="http://www.w3.org/2000/svg">
<ellipse cx="28.5155" cy="37.5" rx="28.5096" ry="29.5073" fill="white" fill-opacity="0.25"/>
<circle cx="47.707" cy="12.4927" r="12.5" fill="#6DFFC8" fill-opacity="0.5"/>
<g clip-path="url(#clip0_1931_67476)">
<path d="M29.0059 32.7427C29.8809 29.2886 33.1856 27.5249 40.3809 27.4927C40.4959 27.4922 40.6099 27.5146 40.7162 27.5584C40.8226 27.6022 40.9192 27.6667 41.0005 27.748C41.0819 27.8293 41.1463 27.926 41.1901 28.0323C41.234 28.1387 41.2563 28.2527 41.2559 28.3677V44.1177C41.2559 44.3497 41.1637 44.5723 40.9996 44.7364C40.8355 44.9005 40.6129 44.9927 40.3809 44.9927C33.3809 44.9927 30.6766 46.4042 29.0059 48.4927M29.0059 32.7427C28.1309 29.2886 24.8261 27.5249 17.6309 27.4927C17.5158 27.4922 17.4019 27.5146 17.2955 27.5584C17.1891 27.6022 17.0925 27.6667 17.0112 27.748C16.9298 27.8293 16.8654 27.926 16.8216 28.0323C16.7778 28.1387 16.7554 28.2527 16.7559 28.3677V44.0121C16.7559 44.5524 17.0906 44.9927 17.6309 44.9927C24.6309 44.9927 27.345 46.4146 29.0059 48.4927M29.0059 32.7427V48.4927" stroke="#6DFFC8" stroke-width="2" stroke-linecap="round" stroke-linejoin="round"/>
</g>
<defs>
<clipPath id="clip0_1931_67476">
<rect width="28" height="28" fill="white" transform="translate(15.0059 23.9927)"/>
</clipPath>
</defs>
</svg>
