<svg width="61" height="67" viewBox="0 0 61 67" fill="none" xmlns="http://www.w3.org/2000/svg">
<ellipse cx="28.5155" cy="37.5" rx="28.5096" ry="29.5073" fill="white" fill-opacity="0.25"/>
<circle cx="47.707" cy="12.4927" r="12.5" fill="#6DFFC8" fill-opacity="0.5"/>
<path d="M45.9211 16.2847C45.8277 16.2847 45.7624 16.252 45.7251 16.1867C45.6877 16.112 45.6691 16.0327 45.6691 15.9487C45.6784 15.7807 45.7157 15.692 45.7811 15.6827C45.8464 15.6733 45.9304 15.6687 46.0331 15.6687C46.4344 15.6687 46.7517 15.65 46.9851 15.6127C47.2277 15.566 47.4004 15.454 47.5031 15.2767C47.6057 15.09 47.6571 14.7913 47.6571 14.3807V11.4687C47.6664 11.058 47.6477 10.7547 47.6011 10.5587C47.5544 10.3627 47.4704 10.232 47.3491 10.1667C47.2277 10.1013 47.0551 10.0733 46.8311 10.0827C46.6164 10.0827 46.3364 10.078 45.9911 10.0687C45.8977 10.0687 45.8324 10.036 45.7951 9.97068C45.7577 9.89601 45.7391 9.81668 45.7391 9.73268C45.7484 9.56468 45.7857 9.47134 45.8511 9.45268C45.9164 9.43401 46.0004 9.42468 46.1031 9.42468C46.4204 9.42468 46.7471 9.37801 47.0831 9.28468C47.4284 9.19134 47.7317 9.09334 47.9931 8.99068C48.2637 8.87868 48.4364 8.80868 48.5111 8.78068C48.5857 8.75268 48.6651 8.75268 48.7491 8.78068C48.8331 8.79934 48.8751 8.89734 48.8751 9.07468V14.3807C48.8751 14.7913 48.9264 15.09 49.0291 15.2767C49.1317 15.454 49.2997 15.566 49.5331 15.6127C49.7757 15.65 50.0977 15.6687 50.4991 15.6687C50.6017 15.6687 50.6857 15.6733 50.7511 15.6827C50.8164 15.692 50.8537 15.7807 50.8631 15.9487C50.8631 16.0327 50.8444 16.112 50.8071 16.1867C50.7791 16.252 50.7137 16.2847 50.6111 16.2847C50.3871 16.2753 50.1211 16.266 49.8131 16.2567C49.5144 16.2567 49.2204 16.252 48.9311 16.2427C48.6511 16.2427 48.4271 16.2427 48.2591 16.2427C48.1004 16.2427 47.8764 16.2427 47.5871 16.2427C47.3071 16.252 47.0131 16.2567 46.7051 16.2567C46.4064 16.266 46.1451 16.2753 45.9211 16.2847Z" fill="white"/>
<g clip-path="url(#clip0_2053_12250)">
<path d="M29.0059 32.7427C29.8809 29.2886 33.1856 27.5249 40.3809 27.4927C40.4959 27.4922 40.6099 27.5146 40.7162 27.5584C40.8226 27.6022 40.9192 27.6667 41.0005 27.748C41.0819 27.8293 41.1463 27.926 41.1901 28.0323C41.234 28.1387 41.2563 28.2527 41.2559 28.3677V44.1177C41.2559 44.3497 41.1637 44.5723 40.9996 44.7364C40.8355 44.9005 40.6129 44.9927 40.3809 44.9927C33.3809 44.9927 30.6766 46.4042 29.0059 48.4927M29.0059 32.7427C28.1309 29.2886 24.8261 27.5249 17.6309 27.4927C17.5158 27.4922 17.4019 27.5146 17.2955 27.5584C17.1891 27.6022 17.0925 27.6667 17.0112 27.748C16.9298 27.8293 16.8654 27.926 16.8216 28.0323C16.7778 28.1387 16.7554 28.2527 16.7559 28.3677V44.0121C16.7559 44.5524 17.0906 44.9927 17.6309 44.9927C24.6309 44.9927 27.345 46.4146 29.0059 48.4927M29.0059 32.7427V48.4927" stroke="#6DFFC8" stroke-width="2" stroke-linecap="round" stroke-linejoin="round"/>
</g>
<defs>
<clipPath id="clip0_2053_12250">
<rect width="28" height="28" fill="white" transform="translate(15.0059 23.9927)"/>
</clipPath>
</defs>
</svg>
