<svg width="72" height="89" viewBox="0 0 72 89" fill="none" xmlns="http://www.w3.org/2000/svg">
<ellipse cx="36.3143" cy="37.5073" rx="28.5096" ry="29.5073" fill="white" fill-opacity="0.25"/>
<path d="M1.64469 84.042C1.55135 84.042 1.48602 84.0093 1.44869 83.944C1.41135 83.8787 1.39269 83.8087 1.39269 83.734C1.40202 83.5753 1.43935 83.4867 1.50469 83.468C1.57002 83.4493 1.64935 83.44 1.74269 83.44C2.04135 83.44 2.25135 83.3887 2.37269 83.286C2.49402 83.174 2.56869 83.0387 2.59669 82.88C2.63402 82.712 2.65269 82.5393 2.65269 82.362V76.804C2.65269 76.6267 2.63402 76.4587 2.59669 76.3C2.56869 76.132 2.49402 75.9967 2.37269 75.894C2.25135 75.782 2.04135 75.726 1.74269 75.726C1.64935 75.726 1.57002 75.7167 1.50469 75.698C1.43935 75.6793 1.40202 75.5907 1.39269 75.432C1.39269 75.3573 1.41135 75.2873 1.44869 75.222C1.48602 75.1567 1.55135 75.124 1.64469 75.124C1.94335 75.1333 2.22335 75.1427 2.48469 75.152C2.74602 75.1613 3.01669 75.166 3.29669 75.166H5.27069C5.81202 75.166 6.23669 75.208 6.54469 75.292C6.86202 75.3667 7.13735 75.4787 7.37069 75.628C7.61335 75.7867 7.80469 76.006 7.94469 76.286C8.08469 76.5567 8.15469 76.8553 8.15469 77.182C8.15469 77.602 8.05669 77.9567 7.86069 78.246C7.66469 78.526 7.41735 78.75 7.11869 78.918C6.82935 79.0767 6.54469 79.1887 6.26469 79.254V79.296C6.75935 79.2867 7.19802 79.3753 7.58069 79.562C7.96335 79.7487 8.26669 79.996 8.49069 80.304C8.71469 80.612 8.83135 80.948 8.84069 81.312C8.85935 81.844 8.74735 82.2827 8.50469 82.628C8.26202 82.9733 7.94469 83.2487 7.55269 83.454C7.17002 83.6593 6.75002 83.804 6.29269 83.888C5.84469 83.972 5.41069 84.014 4.99069 84.014L3.31069 84C3.03069 84 2.75535 84 2.48469 84C2.22335 84.0093 1.94335 84.0233 1.64469 84.042ZM4.03869 79.016H4.62669C4.81335 79.016 5.02335 79.0067 5.25669 78.988C5.49002 78.9693 5.71402 78.9133 5.92869 78.82C6.14335 78.7173 6.31602 78.554 6.44669 78.33C6.58669 78.0967 6.65669 77.77 6.65669 77.35C6.65669 76.8553 6.53535 76.454 6.29269 76.146C6.05935 75.838 5.63469 75.684 5.01869 75.684H4.03869V79.016ZM5.04669 83.454C5.46669 83.4447 5.84935 83.3747 6.19469 83.244C6.54002 83.1133 6.81535 82.894 7.02069 82.586C7.22602 82.278 7.32869 81.8533 7.32869 81.312C7.30069 81.0133 7.19802 80.7333 7.02069 80.472C6.85269 80.2107 6.57269 79.996 6.18069 79.828C5.79802 79.66 5.27535 79.576 4.61269 79.576H4.03869V82.362C4.03869 82.8287 4.10869 83.1273 4.24869 83.258C4.38869 83.3887 4.65469 83.454 5.04669 83.454ZM13.336 84.168C12.6827 84.168 12.1087 84.014 11.614 83.706C11.1287 83.398 10.7507 82.9967 10.48 82.502C10.2093 82.0073 10.074 81.48 10.074 80.92C10.074 80.3693 10.172 79.8793 10.368 79.45C10.564 79.0207 10.8207 78.6613 11.138 78.372C11.4647 78.0827 11.8193 77.8633 12.202 77.714C12.5847 77.5647 12.9627 77.49 13.336 77.49C13.9893 77.49 14.5587 77.644 15.044 77.952C15.5387 78.26 15.9213 78.6613 16.192 79.156C16.4627 79.6507 16.598 80.178 16.598 80.738C16.598 81.2887 16.4953 81.7787 16.29 82.208C16.094 82.6373 15.8327 82.9967 15.506 83.286C15.1887 83.5753 14.8387 83.7947 14.456 83.944C14.0733 84.0933 13.7 84.168 13.336 84.168ZM13.336 83.65C13.7933 83.65 14.1527 83.5147 14.414 83.244C14.6847 82.9733 14.876 82.6187 14.988 82.18C15.1093 81.732 15.17 81.2513 15.17 80.738C15.17 80.2433 15.1093 79.7907 14.988 79.38C14.8667 78.9693 14.6707 78.638 14.4 78.386C14.1293 78.134 13.7747 78.008 13.336 78.008C12.8787 78.008 12.5147 78.1433 12.244 78.414C11.9733 78.6753 11.782 79.0253 11.67 79.464C11.558 79.8933 11.502 80.3693 11.502 80.892C11.502 81.3773 11.558 81.83 11.67 82.25C11.7913 82.67 11.9873 83.0107 12.258 83.272C12.5287 83.524 12.888 83.65 13.336 83.65ZM21.0059 84.168C20.3526 84.168 19.7786 84.014 19.2839 83.706C18.7986 83.398 18.4206 82.9967 18.1499 82.502C17.8793 82.0073 17.7439 81.48 17.7439 80.92C17.7439 80.3693 17.8419 79.8793 18.0379 79.45C18.2339 79.0207 18.4906 78.6613 18.8079 78.372C19.1346 78.0827 19.4893 77.8633 19.8719 77.714C20.2546 77.5647 20.6326 77.49 21.0059 77.49C21.6593 77.49 22.2286 77.644 22.7139 77.952C23.2086 78.26 23.5913 78.6613 23.8619 79.156C24.1326 79.6507 24.2679 80.178 24.2679 80.738C24.2679 81.2887 24.1653 81.7787 23.9599 82.208C23.7639 82.6373 23.5026 82.9967 23.1759 83.286C22.8586 83.5753 22.5086 83.7947 22.1259 83.944C21.7433 84.0933 21.3699 84.168 21.0059 84.168ZM21.0059 83.65C21.4633 83.65 21.8226 83.5147 22.0839 83.244C22.3546 82.9733 22.5459 82.6187 22.6579 82.18C22.7793 81.732 22.8399 81.2513 22.8399 80.738C22.8399 80.2433 22.7793 79.7907 22.6579 79.38C22.5366 78.9693 22.3406 78.638 22.0699 78.386C21.7993 78.134 21.4446 78.008 21.0059 78.008C20.5486 78.008 20.1846 78.1433 19.9139 78.414C19.6433 78.6753 19.4519 79.0253 19.3399 79.464C19.2279 79.8933 19.1719 80.3693 19.1719 80.892C19.1719 81.3773 19.2279 81.83 19.3399 82.25C19.4613 82.67 19.6573 83.0107 19.9279 83.272C20.1986 83.524 20.5579 83.65 21.0059 83.65ZM25.2765 84.042C25.2018 84.042 25.1458 84.014 25.1085 83.958C25.0711 83.8927 25.0525 83.8273 25.0525 83.762C25.0618 83.622 25.0945 83.5473 25.1505 83.538C25.2158 83.5193 25.2905 83.51 25.3745 83.51C25.6358 83.51 25.8131 83.468 25.9065 83.384C26.0091 83.2907 26.0651 83.1693 26.0745 83.02C26.0931 82.8707 26.1025 82.7167 26.1025 82.558V75.74C26.1025 75.572 26.0931 75.418 26.0745 75.278C26.0651 75.1287 26.0138 75.012 25.9205 74.928C25.8271 74.8347 25.6498 74.788 25.3885 74.788C25.3045 74.788 25.2251 74.7787 25.1505 74.76C25.0851 74.732 25.0525 74.648 25.0525 74.508C25.0525 74.368 25.1271 74.284 25.2765 74.256C25.7058 74.1907 26.0325 74.1253 26.2565 74.06C26.4898 73.9947 26.6671 73.9387 26.7885 73.892C26.9098 73.8453 27.0171 73.8173 27.1105 73.808C27.1851 73.7987 27.2458 73.8127 27.2925 73.85C27.3485 73.8873 27.3765 73.962 27.3765 74.074V80.472C27.7871 80.388 28.1231 80.2153 28.3845 79.954L29.5605 78.75C29.6165 78.6847 29.6771 78.6147 29.7425 78.54C29.8171 78.4653 29.8591 78.3953 29.8685 78.33C29.8871 78.2647 29.8498 78.2133 29.7565 78.176C29.6631 78.1387 29.4858 78.1293 29.2245 78.148C29.1218 78.1293 29.0658 78.0453 29.0565 77.896C29.0565 77.8213 29.0751 77.756 29.1125 77.7C29.1591 77.644 29.2151 77.616 29.2805 77.616C29.4951 77.6253 29.7518 77.6347 30.0505 77.644C30.3585 77.6533 30.6151 77.658 30.8205 77.658C30.9791 77.658 31.1331 77.6533 31.2825 77.644C31.4411 77.6347 31.5998 77.6253 31.7585 77.616C31.8331 77.616 31.8891 77.644 31.9265 77.7C31.9638 77.756 31.9825 77.8213 31.9825 77.896C31.9731 78.0173 31.9451 78.092 31.8985 78.12C31.8611 78.1387 31.8098 78.148 31.7445 78.148C31.3805 78.148 31.0865 78.2133 30.8625 78.344C30.6385 78.4747 30.3865 78.6847 30.1065 78.974L28.9305 80.178C29.0425 80.3273 29.1918 80.5093 29.3785 80.724C29.5651 80.9387 29.7611 81.1673 29.9665 81.41C30.1811 81.6433 30.3818 81.8673 30.5685 82.082C30.7551 82.2873 30.9045 82.4553 31.0165 82.586C31.2871 82.8753 31.5111 83.0993 31.6885 83.258C31.8751 83.4073 32.1038 83.4913 32.3745 83.51C32.4491 83.5193 32.5191 83.5333 32.5845 83.552C32.6498 83.5613 32.6825 83.6313 32.6825 83.762C32.6825 83.8273 32.6638 83.8927 32.6265 83.958C32.5985 84.014 32.5425 84.042 32.4585 84.042C32.3278 84.0327 32.2205 84.0233 32.1365 84.014C32.0525 84.014 31.9591 84.0093 31.8565 84C31.7538 84 31.6045 84 31.4085 84C31.2218 84 30.9511 84 30.5965 84C30.2698 83.6453 29.8918 83.2207 29.4625 82.726C29.0425 82.2313 28.6225 81.7413 28.2025 81.256C28.1091 81.1533 27.9878 81.06 27.8385 80.976C27.6985 80.8827 27.5445 80.8453 27.3765 80.864V82.558C27.3765 82.7167 27.3811 82.8707 27.3905 83.02C27.4091 83.1693 27.4651 83.2907 27.5585 83.384C27.6611 83.468 27.8385 83.51 28.0905 83.51C28.1838 83.51 28.2585 83.5193 28.3145 83.538C28.3798 83.5473 28.4171 83.622 28.4265 83.762C28.4265 83.8273 28.4078 83.8927 28.3705 83.958C28.3331 84.014 28.2771 84.042 28.2025 84.042C27.9318 84.0233 27.6798 84.0093 27.4465 84C27.2131 84 26.9751 84 26.7325 84C26.4805 84 26.2425 84 26.0185 84C25.7945 84.0093 25.5471 84.0233 25.2765 84.042ZM39.627 84.168C38.9737 84.168 38.3997 84.014 37.905 83.706C37.4197 83.398 37.0417 82.9967 36.771 82.502C36.5003 82.0073 36.365 81.48 36.365 80.92C36.365 80.3693 36.463 79.8793 36.659 79.45C36.855 79.0207 37.1117 78.6613 37.429 78.372C37.7557 78.0827 38.1103 77.8633 38.493 77.714C38.8757 77.5647 39.2537 77.49 39.627 77.49C40.2803 77.49 40.8497 77.644 41.335 77.952C41.8297 78.26 42.2123 78.6613 42.483 79.156C42.7537 79.6507 42.889 80.178 42.889 80.738C42.889 81.2887 42.7863 81.7787 42.581 82.208C42.385 82.6373 42.1237 82.9967 41.797 83.286C41.4797 83.5753 41.1297 83.7947 40.747 83.944C40.3643 84.0933 39.991 84.168 39.627 84.168ZM39.627 83.65C40.0843 83.65 40.4437 83.5147 40.705 83.244C40.9757 82.9733 41.167 82.6187 41.279 82.18C41.4003 81.732 41.461 81.2513 41.461 80.738C41.461 80.2433 41.4003 79.7907 41.279 79.38C41.1577 78.9693 40.9617 78.638 40.691 78.386C40.4203 78.134 40.0657 78.008 39.627 78.008C39.1697 78.008 38.8057 78.1433 38.535 78.414C38.2643 78.6753 38.073 79.0253 37.961 79.464C37.849 79.8933 37.793 80.3693 37.793 80.892C37.793 81.3773 37.849 81.83 37.961 82.25C38.0823 82.67 38.2783 83.0107 38.549 83.272C38.8197 83.524 39.179 83.65 39.627 83.65ZM44.1636 84.042C44.0889 84.042 44.0329 84.014 43.9956 83.958C43.9582 83.8927 43.9396 83.8273 43.9396 83.762C43.9489 83.622 43.9816 83.5473 44.0376 83.538C44.0936 83.5193 44.1682 83.51 44.2616 83.51C44.5229 83.51 44.7002 83.468 44.7936 83.384C44.8962 83.2907 44.9522 83.1693 44.9616 83.02C44.9709 82.8707 44.9756 82.7167 44.9756 82.558V78.204H44.0376C43.9629 78.204 43.9022 78.176 43.8556 78.12C43.8182 78.0547 43.7996 77.9893 43.7996 77.924C43.8089 77.7747 43.8416 77.6953 43.8976 77.686C43.9629 77.6673 44.0422 77.658 44.1356 77.658H44.9756V77.07C44.9756 76.4447 45.0736 75.8893 45.2696 75.404C45.4656 74.9187 45.7549 74.5313 46.1376 74.242C46.5296 73.9527 47.0056 73.8033 47.5656 73.794C47.8549 73.794 48.1349 73.85 48.4056 73.962C48.6762 74.074 48.9002 74.2327 49.0776 74.438C49.2549 74.634 49.3436 74.8767 49.3436 75.166C49.3436 75.4273 49.2642 75.67 49.1056 75.894C48.9469 76.1087 48.7182 76.216 48.4196 76.216C48.2236 76.216 48.0696 76.1647 47.9576 76.062C47.8549 75.9593 47.8036 75.8893 47.8036 75.852C47.8036 75.824 47.8409 75.782 47.9156 75.726C47.9996 75.6607 48.0789 75.5673 48.1536 75.446C48.2376 75.3247 48.2796 75.1753 48.2796 74.998C48.2796 74.7927 48.2002 74.62 48.0416 74.48C47.8922 74.3307 47.7009 74.256 47.4676 74.256C47.1596 74.256 46.9216 74.3493 46.7536 74.536C46.5856 74.7227 46.4689 74.956 46.4036 75.236C46.3382 75.516 46.2962 75.8007 46.2776 76.09C46.2682 76.3793 46.2636 76.622 46.2636 76.818V77.658H47.6356C47.7289 77.658 47.8082 77.6673 47.8736 77.686C47.9389 77.6953 47.9762 77.7747 47.9856 77.924C47.9856 77.9893 47.9622 78.0547 47.9156 78.12C47.8782 78.176 47.8222 78.204 47.7476 78.204H46.2636V82.558C46.2636 82.8287 46.2822 83.034 46.3196 83.174C46.3662 83.314 46.4596 83.4073 46.5996 83.454C46.7489 83.4913 46.9682 83.51 47.2576 83.51C47.3509 83.51 47.4256 83.5193 47.4816 83.538C47.5376 83.5473 47.5702 83.622 47.5796 83.762C47.5796 83.8273 47.5609 83.8927 47.5236 83.958C47.4956 84.014 47.4442 84.042 47.3696 84.042C47.0989 84.0233 46.8002 84.0093 46.4736 84C46.1469 84 45.8622 84 45.6196 84C45.3676 84 45.1296 84 44.9056 84C44.6816 84.0093 44.4342 84.0233 44.1636 84.042ZM51.8136 84.042C51.7482 84.042 51.6922 84.014 51.6456 83.958C51.6082 83.8927 51.5896 83.8273 51.5896 83.762C51.5989 83.622 51.6316 83.5473 51.6876 83.538C51.7529 83.5193 51.8276 83.51 51.9116 83.51C52.1729 83.51 52.3502 83.468 52.4436 83.384C52.5462 83.2907 52.6022 83.1693 52.6116 83.02C52.6302 82.8707 52.6396 82.7167 52.6396 82.558V75.726C52.6396 75.558 52.6302 75.404 52.6116 75.264C52.6022 75.1147 52.5509 74.998 52.4576 74.914C52.3642 74.8207 52.1869 74.774 51.9256 74.774C51.8416 74.774 51.7622 74.7647 51.6876 74.746C51.6222 74.718 51.5896 74.634 51.5896 74.494C51.5896 74.354 51.6642 74.27 51.8136 74.242C52.2429 74.1767 52.5696 74.1113 52.7936 74.046C53.0269 73.9807 53.2042 73.9247 53.3256 73.878C53.4469 73.8313 53.5542 73.8033 53.6476 73.794C53.7222 73.7847 53.7829 73.7987 53.8296 73.836C53.8856 73.8733 53.9136 73.948 53.9136 74.06V82.558C53.9136 82.7167 53.9182 82.8707 53.9276 83.02C53.9462 83.1693 54.0022 83.2907 54.0956 83.384C54.1982 83.468 54.3802 83.51 54.6416 83.51C54.7256 83.51 54.7956 83.5193 54.8516 83.538C54.9169 83.5473 54.9542 83.622 54.9636 83.762C54.9636 83.8273 54.9449 83.8927 54.9076 83.958C54.8702 84.014 54.8142 84.042 54.7396 84.042C54.4689 84.0233 54.2169 84.0093 53.9836 84C53.7596 84 53.5216 84 53.2696 84C53.0176 84 52.7796 84 52.5556 84C52.3316 84.0093 52.0842 84.0233 51.8136 84.042ZM55.9594 84.042C55.8941 84.042 55.8381 84.014 55.7914 83.958C55.7541 83.8927 55.7354 83.8273 55.7354 83.762C55.7541 83.622 55.7914 83.5473 55.8474 83.538C55.9034 83.5193 55.9781 83.51 56.0714 83.51C56.3328 83.51 56.5101 83.468 56.6034 83.384C56.6968 83.2907 56.7481 83.1693 56.7574 83.02C56.7761 82.8707 56.7854 82.7167 56.7854 82.558V79.352C56.7854 79.184 56.7761 79.03 56.7574 78.89C56.7481 78.7407 56.6968 78.624 56.6034 78.54C56.5101 78.4467 56.3328 78.4 56.0714 78.4C55.9874 78.4 55.9081 78.3907 55.8334 78.372C55.7681 78.344 55.7354 78.26 55.7354 78.12C55.7354 77.98 55.8101 77.896 55.9594 77.868C56.3888 77.8027 56.7154 77.7373 56.9394 77.672C57.1728 77.6067 57.3501 77.5507 57.4714 77.504C57.5928 77.4573 57.7001 77.4293 57.7934 77.42C57.8681 77.4107 57.9288 77.4247 57.9754 77.462C58.0314 77.4993 58.0594 77.574 58.0594 77.686V82.558C58.0594 82.7167 58.0641 82.8707 58.0734 83.02C58.0921 83.1693 58.1481 83.2907 58.2414 83.384C58.3441 83.468 58.5261 83.51 58.7874 83.51C58.8714 83.51 58.9414 83.5193 58.9974 83.538C59.0628 83.5473 59.1001 83.622 59.1094 83.762C59.1094 83.8273 59.0908 83.8927 59.0534 83.958C59.0161 84.014 58.9601 84.042 58.8854 84.042C58.6148 84.0233 58.3628 84.0093 58.1294 84C57.9054 84 57.6674 84 57.4154 84C57.1634 84 56.9254 84 56.7014 84C56.4774 84.0093 56.2301 84.0233 55.9594 84.042ZM57.3454 75.866C57.0841 75.866 56.8648 75.7867 56.6874 75.628C56.5101 75.46 56.4214 75.2547 56.4214 75.012C56.4214 74.7973 56.5288 74.606 56.7434 74.438C56.9581 74.27 57.2008 74.186 57.4714 74.186C57.7048 74.186 57.8961 74.27 58.0454 74.438C58.1948 74.5967 58.2694 74.802 58.2694 75.054C58.2694 75.278 58.1808 75.4693 58.0034 75.628C57.8261 75.7867 57.6068 75.866 57.3454 75.866ZM60.228 84.042C60.1533 84.042 60.0973 84.014 60.06 83.958C60.0227 83.8927 60.004 83.8273 60.004 83.762C60.0133 83.622 60.046 83.5473 60.102 83.538C60.158 83.5193 60.2327 83.51 60.326 83.51C60.5873 83.51 60.7647 83.468 60.858 83.384C60.9607 83.2907 61.0167 83.1693 61.026 83.02C61.0353 82.8707 61.04 82.7167 61.04 82.558V78.204H60.102C60.0273 78.204 59.9667 78.176 59.92 78.12C59.8827 78.0547 59.864 77.9893 59.864 77.924C59.8733 77.7747 59.906 77.6953 59.962 77.686C60.0273 77.6673 60.1067 77.658 60.2 77.658H61.04V77.07C61.04 76.4447 61.138 75.8893 61.334 75.404C61.53 74.9187 61.8193 74.5313 62.202 74.242C62.594 73.9527 63.07 73.8033 63.63 73.794C63.9193 73.794 64.1993 73.85 64.47 73.962C64.7407 74.074 64.9647 74.2327 65.142 74.438C65.3193 74.634 65.408 74.8767 65.408 75.166C65.408 75.4273 65.3287 75.67 65.17 75.894C65.0113 76.1087 64.7827 76.216 64.484 76.216C64.288 76.216 64.134 76.1647 64.022 76.062C63.9193 75.9593 63.868 75.8893 63.868 75.852C63.868 75.824 63.9053 75.782 63.98 75.726C64.064 75.6607 64.1433 75.5673 64.218 75.446C64.302 75.3247 64.344 75.1753 64.344 74.998C64.344 74.7927 64.2647 74.62 64.106 74.48C63.9567 74.3307 63.7653 74.256 63.532 74.256C63.224 74.256 62.986 74.3493 62.818 74.536C62.65 74.7227 62.5333 74.956 62.468 75.236C62.4027 75.516 62.3607 75.8007 62.342 76.09C62.3327 76.3793 62.328 76.622 62.328 76.818V77.658H63.7C63.7933 77.658 63.8727 77.6673 63.938 77.686C64.0033 77.6953 64.0407 77.7747 64.05 77.924C64.05 77.9893 64.0267 78.0547 63.98 78.12C63.9427 78.176 63.8867 78.204 63.812 78.204H62.328V82.558C62.328 82.8287 62.3467 83.034 62.384 83.174C62.4307 83.314 62.524 83.4073 62.664 83.454C62.8133 83.4913 63.0327 83.51 63.322 83.51C63.4153 83.51 63.49 83.5193 63.546 83.538C63.602 83.5473 63.6347 83.622 63.644 83.762C63.644 83.8273 63.6253 83.8927 63.588 83.958C63.56 84.014 63.5087 84.042 63.434 84.042C63.1633 84.0233 62.8647 84.0093 62.538 84C62.2113 84 61.9267 84 61.684 84C61.432 84 61.194 84 60.97 84C60.746 84.0093 60.4987 84.0233 60.228 84.042ZM67.9008 84.168C67.1821 84.168 66.5754 84.014 66.0808 83.706C65.5954 83.398 65.2314 82.9873 64.9888 82.474C64.7461 81.9607 64.6248 81.4007 64.6248 80.794C64.6248 80.3833 64.6948 79.9867 64.8348 79.604C64.9841 79.212 65.1941 78.8573 65.4648 78.54C65.7354 78.2133 66.0621 77.9567 66.4448 77.77C66.8274 77.5833 67.2614 77.49 67.7468 77.49C68.6054 77.49 69.2494 77.714 69.6788 78.162C70.1174 78.6007 70.3694 79.1607 70.4348 79.842C70.4348 80.1687 70.3414 80.3833 70.1548 80.486C69.9774 80.5887 69.7441 80.64 69.4548 80.64H66.0528C66.0528 81.1813 66.1274 81.6667 66.2768 82.096C66.4261 82.516 66.6594 82.852 66.9768 83.104C67.3034 83.3467 67.7328 83.468 68.2648 83.468C68.6568 83.468 68.9928 83.384 69.2728 83.216C69.5528 83.048 69.8234 82.754 70.0848 82.334C70.1594 82.2407 70.2621 82.236 70.3928 82.32C70.4674 82.3573 70.5141 82.418 70.5328 82.502C70.5514 82.5767 70.5421 82.642 70.5048 82.698C70.2154 83.1553 69.8514 83.5147 69.4128 83.776C68.9741 84.0373 68.4701 84.168 67.9008 84.168ZM66.0528 80.108H68.3348C68.5588 80.108 68.7361 80.066 68.8668 79.982C69.0068 79.8887 69.0814 79.7347 69.0908 79.52C69.0908 79.1187 68.9788 78.764 68.7548 78.456C68.5401 78.1387 68.2041 77.98 67.7468 77.98C67.2801 77.98 66.8881 78.1667 66.5708 78.54C66.2628 78.9133 66.0901 79.436 66.0528 80.108Z" fill="white"/>
<circle cx="55.5059" cy="12.5" r="12.5" fill="#6DFFC8" fill-opacity="0.5"/>
<g clip-path="url(#clip0_1931_67476)">
<path d="M36.8047 32.75C37.6797 29.2959 40.9845 27.5323 48.1797 27.5C48.2947 27.4996 48.4087 27.5219 48.5151 27.5657C48.6214 27.6095 48.718 27.674 48.7994 27.7553C48.8807 27.8367 48.9452 27.9333 48.989 28.0396C49.0328 28.146 49.0551 28.26 49.0547 28.375V44.125C49.0547 44.3571 48.9625 44.5796 48.7984 44.7437C48.6343 44.9078 48.4118 45 48.1797 45C41.1797 45 38.4754 46.4115 36.8047 48.5M36.8047 32.75C35.9297 29.2959 32.6249 27.5323 25.4297 27.5C25.3147 27.4996 25.2007 27.5219 25.0943 27.5657C24.988 27.6095 24.8913 27.674 24.81 27.7553C24.7287 27.8367 24.6642 27.9333 24.6204 28.0396C24.5766 28.146 24.5543 28.26 24.5547 28.375V44.0195C24.5547 44.5598 24.8894 45 25.4297 45C32.4297 45 35.1438 46.4219 36.8047 48.5M36.8047 32.75V48.5" stroke="#6DFFC8" stroke-width="2" stroke-linecap="round" stroke-linejoin="round"/>
</g>
<defs>
<clipPath id="clip0_1931_67476">
<rect width="28" height="28" fill="white" transform="translate(22.8047 24)"/>
</clipPath>
</defs>
</svg>
