<svg width="19" height="19" viewBox="0 0 19 19" fill="none" xmlns="http://www.w3.org/2000/svg">
<g clip-path="url(#clip0_2745_47842)">
<path d="M15.8333 7.125H8.70833C7.83388 7.125 7.125 7.83388 7.125 8.70833V15.8333C7.125 16.7078 7.83388 17.4167 8.70833 17.4167H15.8333C16.7078 17.4167 17.4167 16.7078 17.4167 15.8333V8.70833C17.4167 7.83388 16.7078 7.125 15.8333 7.125Z" stroke="white" stroke-width="1.5" stroke-linecap="round" stroke-linejoin="round"/>
<path d="M3.95898 11.875H3.16732C2.74739 11.875 2.34466 11.7082 2.04773 11.4113C1.7508 11.1143 1.58398 10.7116 1.58398 10.2917V3.16667C1.58398 2.74674 1.7508 2.34402 2.04773 2.04708C2.34466 1.75015 2.74739 1.58334 3.16732 1.58334H10.2923C10.7122 1.58334 11.115 1.75015 11.4119 2.04708C11.7088 2.34402 11.8757 2.74674 11.8757 3.16667V3.95834" stroke="white" stroke-width="1.5" stroke-linecap="round" stroke-linejoin="round"/>
</g>
<defs>
<clipPath id="clip0_2745_47842">
<rect width="19" height="19" fill="white"/>
</clipPath>
</defs>
</svg>
