<svg width="30" height="30" viewBox="0 0 30 30" fill="none" xmlns="http://www.w3.org/2000/svg">
<path d="M15 8.16116L15.7146 10.0923L15.8343 10.4157L16.1577 10.5354L18.0888 11.25L16.1577 11.9646L15.8343 12.0843L15.7146 12.4077L15 14.3388L14.2854 12.4077L14.1657 12.0843L13.8423 11.9646L11.9112 11.25L13.8423 10.5354L14.1657 10.4157L14.2854 10.0923L15 8.16116Z" stroke="#273166" stroke-width="1.5"/>
<path d="M23.75 11.25C23.75 12.3991 23.5237 13.5369 23.0839 14.5985C22.6442 15.6601 21.9997 16.6247 21.1872 17.4372C20.3747 18.2497 19.4101 18.8942 18.3485 19.3339C17.2869 19.7737 16.1491 20 15 20C13.8509 20 12.7131 19.7737 11.6515 19.3339C10.5899 18.8942 9.62533 18.2497 8.81282 17.4372C8.0003 16.6247 7.35578 15.6601 6.91605 14.5985C6.47633 13.5369 6.25 12.3991 6.25 11.25C6.25 8.92936 7.17187 6.70376 8.81282 5.06282C10.4538 3.42187 12.6794 2.5 15 2.5C17.3206 2.5 19.5462 3.42187 21.1872 5.06282C22.8281 6.70376 23.75 8.92936 23.75 11.25Z" stroke="#273166" stroke-width="1.5"/>
<path d="M6.82041 15L3.74041 18.1887C3.06541 18.8875 2.72791 19.2375 2.61041 19.5337C2.34416 20.2075 2.57291 20.9562 3.15166 21.3112C3.40666 21.4662 3.86541 21.515 4.78291 21.6125C5.30166 21.6675 5.56041 21.6938 5.77666 21.7775C6.01857 21.871 6.23723 22.0161 6.41747 22.2026C6.59771 22.3891 6.7352 22.6125 6.82041 22.8575C6.90041 23.0825 6.92666 23.35 6.98041 23.8875C7.07291 24.8375 7.12041 25.3125 7.27041 25.575C7.61291 26.175 8.33666 26.41 8.98666 26.135C9.27416 26.015 9.61166 25.6662 10.2867 24.9662L15.0004 20.085L19.7142 24.9662C20.3892 25.6662 20.7267 26.015 21.0142 26.135C21.6642 26.41 22.3879 26.175 22.7304 25.575C22.8804 25.3125 22.9267 24.8375 23.0204 23.8875C23.0742 23.35 23.1004 23.0825 23.1804 22.8575C23.3604 22.355 23.7379 21.9638 24.2242 21.7775C24.4404 21.6938 24.6992 21.6675 25.2179 21.6125C26.1354 21.515 26.5942 21.4662 26.8492 21.3112C27.4279 20.9562 27.6567 20.2075 27.3904 19.5337C27.2729 19.2375 26.9354 18.8875 26.2604 18.1887L23.1804 15" stroke="#273166" stroke-width="1.5"/>
</svg>
