<svg width="24" height="25" viewBox="0 0 24 25" fill="none" xmlns="http://www.w3.org/2000/svg">
<path d="M8.4991 5.70834C9.42507 5.70804 10.3268 6.0167 11.0718 6.589C11.8169 7.1613 12.366 7.96711 12.6387 8.88815C12.9114 9.8092 12.8932 10.797 12.5869 11.7065C12.2806 12.616 11.7022 13.3994 10.9367 13.9416C12.2654 14.4488 13.4179 15.3584 14.2457 16.5532C15.0736 17.748 15.539 19.1733 15.5819 20.6457C15.5859 20.7274 15.5742 20.8092 15.5475 20.8861C15.5207 20.9631 15.4795 21.0337 15.4262 21.0938C15.3729 21.154 15.3085 21.2024 15.237 21.2364C15.1654 21.2703 15.0881 21.289 15.0095 21.2914C14.9309 21.2938 14.8527 21.2798 14.7793 21.2503C14.706 21.2208 14.639 21.1764 14.5824 21.1196C14.5258 21.0628 14.4807 20.9948 14.4496 20.9196C14.4186 20.8445 14.4023 20.7636 14.4017 20.6817C14.3548 19.085 13.7124 17.5699 12.6107 16.4577C11.5089 15.3455 10.0344 14.7234 8.49949 14.7234C6.96463 14.7234 5.49008 15.3455 4.38831 16.4577C3.28655 17.5699 2.64416 19.085 2.59728 20.6817C2.59258 20.8447 2.52586 20.9991 2.4118 21.1109C2.29774 21.2227 2.14567 21.2828 1.98906 21.2779C1.83245 21.273 1.68413 21.2036 1.57671 21.0849C1.46929 20.9661 1.41158 20.8079 1.41628 20.6449C1.45939 19.1726 1.92481 17.7475 2.75266 16.5528C3.58051 15.3582 4.7329 14.4488 6.06153 13.9416C5.29599 13.3994 4.71762 12.616 4.41128 11.7065C4.10495 10.797 4.0868 9.8092 4.35948 8.88815C4.63217 7.96711 5.18134 7.1613 5.92639 6.589C6.67144 6.0167 7.57312 5.70804 8.4991 5.70834ZM5.34978 10.2154C5.34978 11.0848 5.68158 11.9185 6.27219 12.5333C6.8628 13.148 7.66385 13.4933 8.4991 13.4933C9.33435 13.4933 10.1354 13.148 10.726 12.5333C11.3166 11.9185 11.6484 11.0848 11.6484 10.2154C11.6484 9.34609 11.3166 8.51234 10.726 7.89762C10.1354 7.28289 9.33435 6.93754 8.4991 6.93754C7.66385 6.93754 6.8628 7.28289 6.27219 7.89762C5.68158 8.51234 5.34978 9.34609 5.34978 10.2154Z" fill="white" stroke="white" stroke-width="0.4"/>
<path d="M16 3.125L21 8.125" stroke="white" stroke-width="1.5" stroke-linecap="round" stroke-linejoin="round"/>
<path d="M21 3.125L16 8.125" stroke="white" stroke-width="1.5" stroke-linecap="round" stroke-linejoin="round"/>
</svg>
