<svg width="33" height="32" viewBox="0 0 33 32" fill="none" xmlns="http://www.w3.org/2000/svg">
<path d="M4.5 8H7.16667H28.5" stroke="white" stroke-width="2" stroke-linecap="round" stroke-linejoin="round"/>
<path d="M25.8327 7.99935V26.666C25.8327 27.3733 25.5517 28.0515 25.0516 28.5516C24.5515 29.0517 23.8733 29.3327 23.166 29.3327H9.83268C9.12544 29.3327 8.44716 29.0517 7.94706 28.5516C7.44697 28.0515 7.16602 27.3733 7.16602 26.666V7.99935M11.166 7.99935V5.33268C11.166 4.62544 11.447 3.94716 11.9471 3.44706C12.4472 2.94697 13.1254 2.66602 13.8327 2.66602H19.166C19.8733 2.66602 20.5515 2.94697 21.0516 3.44706C21.5517 3.94716 21.8327 4.62544 21.8327 5.33268V7.99935" stroke="white" stroke-width="2" stroke-linecap="round" stroke-linejoin="round"/>
<path d="M13.834 14.666V22.666" stroke="white" stroke-width="2" stroke-linecap="round" stroke-linejoin="round"/>
<path d="M19.166 14.666V22.666" stroke="white" stroke-width="2" stroke-linecap="round" stroke-linejoin="round"/>
</svg>
