<svg width="61" height="67" viewBox="0 0 61 67" fill="none" xmlns="http://www.w3.org/2000/svg">
<ellipse cx="29.3143" cy="37.5" rx="28.5096" ry="29.5073" fill="white" fill-opacity="0.25"/>
<circle cx="48.5059" cy="12.4927" r="12.5" fill="#E66F6F" fill-opacity="0.5"/>
<path d="M42.7707 16.0347C42.6774 16.0347 42.612 16.002 42.5747 15.9367C42.5374 15.862 42.5187 15.7827 42.5187 15.6987C42.528 15.5307 42.5654 15.442 42.6307 15.4327C42.696 15.4233 42.78 15.4187 42.8827 15.4187C43.284 15.4187 43.6014 15.4 43.8347 15.3627C44.0774 15.316 44.25 15.204 44.3527 15.0267C44.4554 14.84 44.5067 14.5413 44.5067 14.1307V11.2187C44.516 10.808 44.4974 10.5047 44.4507 10.3087C44.404 10.1127 44.32 9.98201 44.1987 9.91668C44.0774 9.85134 43.9047 9.82334 43.6807 9.83268C43.466 9.83268 43.186 9.82801 42.8407 9.81868C42.7474 9.81868 42.682 9.78601 42.6447 9.72068C42.6074 9.64601 42.5887 9.56668 42.5887 9.48268C42.598 9.31468 42.6354 9.22134 42.7007 9.20268C42.766 9.18401 42.85 9.17468 42.9527 9.17468C43.27 9.17468 43.5967 9.12801 43.9327 9.03468C44.278 8.94134 44.5814 8.84334 44.8427 8.74068C45.1134 8.62868 45.286 8.55868 45.3607 8.53068C45.4354 8.50268 45.5147 8.50268 45.5987 8.53068C45.6827 8.54934 45.7247 8.64734 45.7247 8.82468V14.1307C45.7247 14.5413 45.776 14.84 45.8787 15.0267C45.9814 15.204 46.1494 15.316 46.3827 15.3627C46.6254 15.4 46.9474 15.4187 47.3487 15.4187C47.4514 15.4187 47.5354 15.4233 47.6007 15.4327C47.666 15.442 47.7034 15.5307 47.7127 15.6987C47.7127 15.7827 47.694 15.862 47.6567 15.9367C47.6287 16.002 47.5634 16.0347 47.4607 16.0347C47.2367 16.0253 46.9707 16.016 46.6627 16.0067C46.364 16.0067 46.07 16.002 45.7807 15.9927C45.5007 15.9927 45.2767 15.9927 45.1087 15.9927C44.95 15.9927 44.726 15.9927 44.4367 15.9927C44.1567 16.002 43.8627 16.0067 43.5547 16.0067C43.256 16.016 42.9947 16.0253 42.7707 16.0347ZM48.927 15.9927C48.7496 15.9927 48.6236 15.946 48.549 15.8527C48.4743 15.7593 48.437 15.638 48.437 15.4887C48.4556 15.274 48.5163 15.106 48.619 14.9847C48.7216 14.8633 48.8756 14.7373 49.081 14.6067C49.4263 14.3733 49.7903 14.1213 50.173 13.8507C50.5556 13.58 50.915 13.2813 51.251 12.9547C51.587 12.6187 51.8576 12.25 52.063 11.8487C52.2776 11.4473 52.385 10.9947 52.385 10.4907C52.385 10.0427 52.2636 9.69734 52.021 9.45468C51.7876 9.20268 51.4563 9.07668 51.027 9.07668C50.6723 9.07668 50.3736 9.16534 50.131 9.34268C49.8883 9.52001 49.767 9.77201 49.767 10.0987C49.767 10.2573 49.8043 10.3927 49.879 10.5047C49.9536 10.6073 50.0283 10.6913 50.103 10.7567C50.187 10.8127 50.229 10.85 50.229 10.8687C50.229 10.9153 50.173 10.99 50.061 11.0927C49.949 11.1953 49.7903 11.2467 49.585 11.2467C49.2863 11.2467 49.053 11.1533 48.885 10.9667C48.717 10.78 48.633 10.5513 48.633 10.2807C48.633 9.87934 48.7636 9.55268 49.025 9.30068C49.2956 9.04868 49.6223 8.86668 50.005 8.75468C50.397 8.63334 50.7796 8.57268 51.153 8.57268C51.5636 8.57268 51.965 8.64268 52.357 8.78268C52.7583 8.91334 53.085 9.13268 53.337 9.44068C53.5983 9.74868 53.729 10.1593 53.729 10.6727C53.729 11.102 53.631 11.494 53.435 11.8487C53.2483 12.194 53.001 12.5113 52.693 12.8007C52.385 13.09 52.049 13.356 51.685 13.5987C51.3303 13.8413 50.9756 14.07 50.621 14.2847C50.2663 14.4993 49.9536 14.714 49.683 14.9287V14.9987H53.435C53.6216 14.9987 53.7803 15.022 53.911 15.0687C54.0416 15.106 54.107 15.246 54.107 15.4887C54.107 15.8247 53.9436 15.9927 53.617 15.9927H48.927Z" fill="white"/>
<path d="M21.6387 47.326V28.6593C21.6387 28.3499 21.7616 28.0532 21.9804 27.8344C22.1992 27.6156 22.4959 27.4927 22.8053 27.4927H30.006C30.6248 27.4928 31.2182 27.7387 31.6557 28.1763L37.2883 33.809C37.726 34.2465 37.9719 34.8399 37.972 35.4587V47.326C37.972 47.6354 37.8491 47.9322 37.6303 48.151C37.4115 48.3698 37.1148 48.4927 36.8053 48.4927H22.8053C22.4959 48.4927 22.1992 48.3698 21.9804 48.151C21.7616 47.9322 21.6387 47.6354 21.6387 47.326Z" stroke="#E66F6F" stroke-width="2" stroke-linejoin="round"/>
<path d="M29.8047 27.4927V34.4927C29.8047 34.8021 29.9276 35.0988 30.1464 35.3176C30.3652 35.5364 30.6619 35.6593 30.9714 35.6593H37.9714" stroke="#E66F6F" stroke-width="2" stroke-linejoin="round"/>
</svg>
