<svg width="61" height="67" viewBox="0 0 61 67" fill="none" xmlns="http://www.w3.org/2000/svg">
<ellipse cx="29.3143" cy="37.5" rx="28.5096" ry="29.5073" fill="white" fill-opacity="0.25"/>
<circle cx="48.5059" cy="12.4927" r="12.5" fill="#E66F6F" fill-opacity="0.5"/>
<path d="M21.6387 47.326V28.6593C21.6387 28.3499 21.7616 28.0532 21.9804 27.8344C22.1992 27.6156 22.4959 27.4927 22.8053 27.4927H30.006C30.6248 27.4928 31.2182 27.7387 31.6557 28.1763L37.2883 33.809C37.726 34.2465 37.9719 34.8399 37.972 35.4587V47.326C37.972 47.6354 37.8491 47.9322 37.6303 48.151C37.4115 48.3698 37.1148 48.4927 36.8053 48.4927H22.8053C22.4959 48.4927 22.1992 48.3698 21.9804 48.151C21.7616 47.9322 21.6387 47.6354 21.6387 47.326Z" stroke="#E66F6F" stroke-width="2" stroke-linejoin="round"/>
<path d="M29.8047 27.4927V34.4927C29.8047 34.8021 29.9276 35.0988 30.1464 35.3176C30.3652 35.5364 30.6619 35.6593 30.9714 35.6593H37.9714" stroke="#E66F6F" stroke-width="2" stroke-linejoin="round"/>
</svg>
