<svg width="58" height="59" viewBox="0 0 58 59" fill="none" xmlns="http://www.w3.org/2000/svg">
<path d="M28.5879 0.492676C44.0411 0.492745 56.5977 13.4639 56.5977 29.5005C56.5974 45.5369 44.0409 58.5073 28.5879 58.5073C13.1348 58.5073 0.578376 45.5369 0.578125 29.5005C0.578125 13.4638 13.1347 0.492676 28.5879 0.492676Z" fill="white" fill-opacity="0.25" stroke="#E66F6F"/>
<path d="M20.9121 39.326V20.6593C20.9121 20.3499 21.035 20.0532 21.2538 19.8344C21.4726 19.6156 21.7694 19.4927 22.0788 19.4927H29.2794C29.8982 19.4928 30.4916 19.7387 30.9291 20.1763L36.5618 25.809C36.9994 26.2465 37.2453 26.8399 37.2454 27.4587V39.326C37.2454 39.6354 37.1225 39.9322 36.9037 40.151C36.6849 40.3698 36.3882 40.4927 36.0788 40.4927H22.0788C21.7694 40.4927 21.4726 40.3698 21.2538 40.151C21.035 39.9322 20.9121 39.6354 20.9121 39.326Z" stroke="#E66F6F" stroke-width="2" stroke-linejoin="round"/>
<path d="M29.0781 19.4927V26.4927C29.0781 26.8021 29.201 27.0988 29.4198 27.3176C29.6386 27.5364 29.9354 27.6593 30.2448 27.6593H37.2448" stroke="#E66F6F" stroke-width="2" stroke-linejoin="round"/>
</svg>
