<svg width="74" height="89" viewBox="0 0 74 89" fill="none" xmlns="http://www.w3.org/2000/svg">
<path d="M1.64469 84.042C1.56069 84.042 1.50002 84.0093 1.46269 83.944C1.42535 83.8787 1.40669 83.8087 1.40669 83.734C1.41602 83.5753 1.45335 83.4867 1.51869 83.468C1.58402 83.4493 1.66335 83.44 1.75669 83.44C2.05535 83.44 2.26535 83.3887 2.38669 83.286C2.50802 83.174 2.58269 83.0387 2.61069 82.88C2.64802 82.712 2.66669 82.5393 2.66669 82.362V76.804C2.66669 76.6267 2.64802 76.4587 2.61069 76.3C2.58269 76.132 2.50802 75.9967 2.38669 75.894C2.26535 75.782 2.05535 75.726 1.75669 75.726C1.66335 75.726 1.58402 75.7167 1.51869 75.698C1.45335 75.6793 1.41602 75.5907 1.40669 75.432C1.40669 75.3573 1.42535 75.2873 1.46269 75.222C1.50002 75.1567 1.56069 75.124 1.64469 75.124C1.95269 75.1333 2.23735 75.1427 2.49869 75.152C2.76002 75.1613 3.03069 75.166 3.31069 75.166H5.49469C6.39069 75.166 7.20269 75.3433 7.93069 75.698C8.65869 76.0527 9.23735 76.5613 9.66669 77.224C10.096 77.8867 10.3107 78.6893 10.3107 79.632C10.3107 80.3787 10.166 81.0273 9.87669 81.578C9.58735 82.1287 9.20002 82.586 8.71469 82.95C8.22935 83.3047 7.68335 83.5707 7.07669 83.748C6.47935 83.916 5.86802 84 5.24269 84H3.31069C3.03069 84 2.76002 84 2.49869 84C2.23735 84.0093 1.95269 84.0233 1.64469 84.042ZM5.45269 83.482C6.20869 83.482 6.82002 83.3233 7.28669 83.006C7.75335 82.6793 8.08935 82.2267 8.29469 81.648C8.50935 81.0693 8.61669 80.3973 8.61669 79.632C8.61669 78.8667 8.48135 78.1853 8.21069 77.588C7.94002 76.9907 7.54335 76.524 7.02069 76.188C6.50735 75.8427 5.88202 75.67 5.14469 75.67C4.99535 75.67 4.79935 75.6747 4.55669 75.684C4.31402 75.684 4.14602 75.684 4.05269 75.684V82.53C4.05269 82.9033 4.16469 83.1553 4.38869 83.286C4.62202 83.4167 4.97669 83.482 5.45269 83.482ZM14.8262 84.168C14.1729 84.168 13.5989 84.014 13.1042 83.706C12.6189 83.398 12.2409 82.9967 11.9702 82.502C11.6996 82.0073 11.5642 81.48 11.5642 80.92C11.5642 80.3693 11.6622 79.8793 11.8582 79.45C12.0542 79.0207 12.3109 78.6613 12.6282 78.372C12.9549 78.0827 13.3096 77.8633 13.6922 77.714C14.0749 77.5647 14.4529 77.49 14.8262 77.49C15.4796 77.49 16.0489 77.644 16.5342 77.952C17.0289 78.26 17.4116 78.6613 17.6822 79.156C17.9529 79.6507 18.0882 80.178 18.0882 80.738C18.0882 81.2887 17.9856 81.7787 17.7802 82.208C17.5842 82.6373 17.3229 82.9967 16.9962 83.286C16.6789 83.5753 16.3289 83.7947 15.9462 83.944C15.5636 84.0933 15.1902 84.168 14.8262 84.168ZM14.8262 83.65C15.2836 83.65 15.6429 83.5147 15.9042 83.244C16.1749 82.9733 16.3662 82.6187 16.4782 82.18C16.5996 81.732 16.6602 81.2513 16.6602 80.738C16.6602 80.2433 16.5996 79.7907 16.4782 79.38C16.3569 78.9693 16.1609 78.638 15.8902 78.386C15.6196 78.134 15.2649 78.008 14.8262 78.008C14.3689 78.008 14.0049 78.1433 13.7342 78.414C13.4636 78.6753 13.2722 79.0253 13.1602 79.464C13.0482 79.8933 12.9922 80.3693 12.9922 80.892C12.9922 81.3773 13.0482 81.83 13.1602 82.25C13.2816 82.67 13.4776 83.0107 13.7482 83.272C14.0189 83.524 14.3782 83.65 14.8262 83.65ZM22.2862 84.168C21.3248 84.168 20.5735 83.8647 20.0322 83.258C19.5002 82.642 19.2342 81.83 19.2342 80.822C19.2622 80.178 19.4208 79.6087 19.7102 79.114C20.0088 78.6193 20.4008 78.232 20.8862 77.952C21.3808 77.6627 21.9268 77.5087 22.5242 77.49C22.8508 77.49 23.1822 77.532 23.5182 77.616C23.8635 77.6907 24.1482 77.8353 24.3722 78.05C24.6055 78.2553 24.7222 78.554 24.7222 78.946C24.7222 79.2167 24.6382 79.4687 24.4702 79.702C24.3022 79.926 24.0688 80.038 23.7702 80.038C23.5648 80.038 23.4062 79.9867 23.2942 79.884C23.1822 79.7813 23.1262 79.7067 23.1262 79.66C23.1262 79.6413 23.1635 79.604 23.2382 79.548C23.3222 79.4827 23.4015 79.3987 23.4762 79.296C23.5508 79.184 23.5882 79.0487 23.5882 78.89C23.5882 78.5913 23.4808 78.372 23.2662 78.232C23.0515 78.092 22.8088 78.0173 22.5382 78.008C22.1275 78.008 21.7962 78.092 21.5442 78.26C21.3015 78.428 21.1148 78.652 20.9842 78.932C20.8535 79.2027 20.7648 79.5013 20.7182 79.828C20.6808 80.1547 20.6622 80.472 20.6622 80.78C20.6622 81.2933 20.7415 81.7553 20.9002 82.166C21.0588 82.5673 21.2828 82.8847 21.5722 83.118C21.8615 83.3513 22.2068 83.468 22.6082 83.468C23.0188 83.468 23.3642 83.3793 23.6442 83.202C23.9242 83.0247 24.1808 82.7633 24.4142 82.418C24.4795 82.3247 24.5775 82.3153 24.7082 82.39C24.7735 82.4273 24.8202 82.4787 24.8482 82.544C24.8762 82.6093 24.8668 82.6747 24.8202 82.74C24.5122 83.1787 24.1295 83.5287 23.6722 83.79C23.2148 84.042 22.7528 84.168 22.2862 84.168ZM28.6647 84.168C28.03 84.168 27.526 83.9767 27.1527 83.594C26.7794 83.2113 26.5927 82.7073 26.5927 82.082V79.492C26.5927 79.324 26.5834 79.17 26.5647 79.03C26.5554 78.8807 26.504 78.764 26.4107 78.68C26.3174 78.5867 26.14 78.54 25.8787 78.54C25.7947 78.54 25.7154 78.5307 25.6407 78.512C25.5754 78.484 25.5427 78.4 25.5427 78.26C25.5427 78.12 25.6174 78.036 25.7667 78.008C26.196 77.9427 26.5227 77.8773 26.7467 77.812C26.98 77.7467 27.1574 77.6907 27.2787 77.644C27.4 77.5973 27.5074 77.5693 27.6007 77.56C27.6754 77.5507 27.736 77.5647 27.7827 77.602C27.8387 77.6393 27.8667 77.714 27.8667 77.826V82.068C27.8667 82.376 27.932 82.628 28.0627 82.824C28.2027 83.02 28.3754 83.1647 28.5807 83.258C28.786 83.3513 28.996 83.398 29.2107 83.398C29.5374 83.398 29.822 83.342 30.0647 83.23C30.3074 83.1087 30.5034 82.9733 30.6527 82.824C30.802 82.6653 30.9 82.5347 30.9467 82.432V79.492C30.9467 79.324 30.9374 79.17 30.9187 79.03C30.9094 78.8807 30.858 78.764 30.7647 78.68C30.6714 78.5867 30.494 78.54 30.2327 78.54C30.1487 78.54 30.0694 78.5307 29.9947 78.512C29.9294 78.484 29.8967 78.4 29.8967 78.26C29.8967 78.12 29.9714 78.036 30.1207 78.008C30.55 77.9427 30.8767 77.8773 31.1007 77.812C31.334 77.7467 31.5114 77.6907 31.6327 77.644C31.754 77.5973 31.8614 77.5693 31.9547 77.56C32.0294 77.5507 32.09 77.5647 32.1367 77.602C32.1927 77.6393 32.2207 77.714 32.2207 77.826V82.67C32.2207 83.2207 32.5894 83.496 33.3267 83.496C33.4294 83.496 33.4947 83.524 33.5227 83.58C33.5507 83.636 33.5647 83.6967 33.5647 83.762C33.5647 83.8927 33.4854 83.972 33.3267 84L31.0727 84.154C31.0074 84.154 30.97 84.126 30.9607 84.07C30.9514 84.014 30.9467 83.9487 30.9467 83.874V83.09H30.9187C30.7414 83.258 30.55 83.426 30.3447 83.594C30.1487 83.762 29.9154 83.8973 29.6447 84C29.3834 84.112 29.0567 84.168 28.6647 84.168ZM34.3445 84.042C34.2792 84.042 34.2232 84.014 34.1765 83.958C34.1392 83.8927 34.1205 83.8273 34.1205 83.762C34.1299 83.622 34.1625 83.5473 34.2185 83.538C34.2839 83.5193 34.3585 83.51 34.4425 83.51C34.7039 83.51 34.8812 83.468 34.9745 83.384C35.0772 83.2907 35.1332 83.1693 35.1425 83.02C35.1612 82.8707 35.1705 82.7167 35.1705 82.558V79.352C35.1705 79.184 35.1612 79.03 35.1425 78.89C35.1332 78.7407 35.0819 78.624 34.9885 78.54C34.8952 78.4467 34.7179 78.4 34.4565 78.4C34.3725 78.4 34.2932 78.3907 34.2185 78.372C34.1532 78.344 34.1205 78.26 34.1205 78.12C34.1205 77.98 34.1952 77.896 34.3445 77.868C34.7739 77.8027 35.1005 77.7373 35.3245 77.672C35.5579 77.6067 35.7305 77.5507 35.8425 77.504C35.9639 77.4573 36.0712 77.4293 36.1645 77.42C36.2392 77.4107 36.2999 77.4247 36.3465 77.462C36.4025 77.4993 36.4305 77.574 36.4305 77.686V78.568H36.4725C36.6592 78.3907 36.8412 78.2227 37.0185 78.064C37.1959 77.896 37.4105 77.7607 37.6625 77.658C37.9145 77.546 38.2365 77.49 38.6285 77.49C39.0859 77.49 39.4779 77.588 39.8045 77.784C40.1312 77.9707 40.3692 78.232 40.5185 78.568H40.5465C40.7332 78.3907 40.9292 78.2227 41.1345 78.064C41.3399 77.896 41.5825 77.7607 41.8625 77.658C42.1425 77.546 42.4785 77.49 42.8705 77.49C43.5052 77.49 44.0092 77.6813 44.3825 78.064C44.7559 78.4467 44.9425 78.9507 44.9425 79.576V82.558C44.9425 82.7167 44.9472 82.8707 44.9565 83.02C44.9752 83.1693 45.0312 83.2907 45.1245 83.384C45.2272 83.468 45.4092 83.51 45.6705 83.51C45.7545 83.51 45.8245 83.5193 45.8805 83.538C45.9459 83.5473 45.9832 83.622 45.9925 83.762C45.9925 83.8273 45.9739 83.8927 45.9365 83.958C45.8992 84.014 45.8432 84.042 45.7685 84.042C45.4979 84.0233 45.2459 84.0093 45.0125 84C44.7885 84 44.5505 84 44.2985 84C44.0465 84 43.8085 84 43.5845 84C43.3605 84.0093 43.1132 84.0233 42.8425 84.042C42.7679 84.042 42.7119 84.014 42.6745 83.958C42.6372 83.8927 42.6185 83.8273 42.6185 83.762C42.6279 83.622 42.6605 83.5473 42.7165 83.538C42.7819 83.5193 42.8565 83.51 42.9405 83.51C43.2019 83.51 43.3792 83.468 43.4725 83.384C43.5752 83.2907 43.6312 83.1693 43.6405 83.02C43.6592 82.8707 43.6685 82.7167 43.6685 82.558V79.59C43.6685 79.282 43.5985 79.03 43.4585 78.834C43.3279 78.638 43.1599 78.4933 42.9545 78.4C42.7492 78.3067 42.5392 78.26 42.3245 78.26C42.0072 78.26 41.7365 78.3207 41.5125 78.442C41.2885 78.554 41.1112 78.6847 40.9805 78.834C40.8499 78.9833 40.7565 79.114 40.7005 79.226V82.558C40.7005 82.7167 40.7005 82.8707 40.7005 83.02C40.7099 83.1693 40.7565 83.2907 40.8405 83.384C40.9339 83.468 41.1112 83.51 41.3725 83.51C41.4659 83.51 41.5405 83.5193 41.5965 83.538C41.6525 83.5473 41.6852 83.622 41.6945 83.762C41.6945 83.8273 41.6759 83.8927 41.6385 83.958C41.6012 84.014 41.5452 84.042 41.4705 84.042C41.1999 84.0233 40.9572 84.0093 40.7425 84C40.5279 84 40.2945 84 40.0425 84C39.7999 84 39.5712 84 39.3565 84C39.1512 84.0093 38.9132 84.0233 38.6425 84.042C38.5679 84.042 38.5119 84.014 38.4745 83.958C38.4372 83.8927 38.4185 83.8273 38.4185 83.762C38.4279 83.622 38.4605 83.5473 38.5165 83.538C38.5725 83.5193 38.6472 83.51 38.7405 83.51C39.0019 83.51 39.1745 83.468 39.2585 83.384C39.3519 83.2907 39.3985 83.1693 39.3985 83.02C39.4079 82.8707 39.4125 82.7167 39.4125 82.558V79.59C39.4125 79.1233 39.2725 78.7873 38.9925 78.582C38.7125 78.3673 38.4092 78.26 38.0825 78.26C37.7559 78.26 37.4805 78.3207 37.2565 78.442C37.0325 78.554 36.8552 78.6847 36.7245 78.834C36.5939 78.9833 36.5005 79.114 36.4445 79.226V82.558C36.4445 82.7167 36.4492 82.8707 36.4585 83.02C36.4772 83.1693 36.5332 83.2907 36.6265 83.384C36.7292 83.468 36.9112 83.51 37.1725 83.51C37.2565 83.51 37.3265 83.5193 37.3825 83.538C37.4479 83.5473 37.4852 83.622 37.4945 83.762C37.4945 83.8273 37.4759 83.8927 37.4385 83.958C37.4012 84.014 37.3452 84.042 37.2705 84.042C36.9999 84.0233 36.7479 84.0093 36.5145 84C36.2905 84 36.0525 84 35.8005 84C35.5485 84 35.3105 84 35.0865 84C34.8625 84.0093 34.6152 84.0233 34.3445 84.042ZM49.9906 84.168C49.272 84.168 48.6653 84.014 48.1706 83.706C47.6853 83.398 47.3213 82.9873 47.0786 82.474C46.836 81.9607 46.7146 81.4007 46.7146 80.794C46.7146 80.3833 46.7846 79.9867 46.9246 79.604C47.074 79.212 47.284 78.8573 47.5546 78.54C47.8253 78.2133 48.152 77.9567 48.5346 77.77C48.9173 77.5833 49.3513 77.49 49.8366 77.49C50.6953 77.49 51.3393 77.714 51.7686 78.162C52.2073 78.6007 52.4593 79.1607 52.5246 79.842C52.5246 80.1687 52.4313 80.3833 52.2446 80.486C52.0673 80.5887 51.834 80.64 51.5446 80.64H48.1426C48.1426 81.1813 48.2173 81.6667 48.3666 82.096C48.516 82.516 48.7493 82.852 49.0666 83.104C49.3933 83.3467 49.8226 83.468 50.3546 83.468C50.7466 83.468 51.0826 83.384 51.3626 83.216C51.6426 83.048 51.9133 82.754 52.1746 82.334C52.2493 82.2407 52.352 82.236 52.4826 82.32C52.5573 82.3573 52.604 82.418 52.6226 82.502C52.6413 82.5767 52.632 82.642 52.5946 82.698C52.3053 83.1553 51.9413 83.5147 51.5026 83.776C51.064 84.0373 50.56 84.168 49.9906 84.168ZM48.1426 80.108H50.4246C50.6486 80.108 50.826 80.066 50.9566 79.982C51.0966 79.8887 51.1713 79.7347 51.1806 79.52C51.1806 79.1187 51.0686 78.764 50.8446 78.456C50.63 78.1387 50.294 77.98 49.8366 77.98C49.37 77.98 48.978 78.1667 48.6606 78.54C48.3526 78.9133 48.18 79.436 48.1426 80.108ZM53.854 84.042C53.7886 84.042 53.7326 84.014 53.686 83.958C53.6486 83.8927 53.63 83.8273 53.63 83.762C53.6486 83.622 53.686 83.5473 53.742 83.538C53.798 83.5193 53.8726 83.51 53.966 83.51C54.2273 83.51 54.4046 83.468 54.498 83.384C54.5913 83.2907 54.6426 83.1693 54.652 83.02C54.6706 82.8707 54.68 82.7167 54.68 82.558V79.352C54.68 79.184 54.6706 79.03 54.652 78.89C54.6426 78.7407 54.5913 78.624 54.498 78.54C54.4046 78.4467 54.2273 78.4 53.966 78.4C53.882 78.4 53.8026 78.3907 53.728 78.372C53.6626 78.344 53.63 78.26 53.63 78.12C53.63 77.98 53.7046 77.896 53.854 77.868C54.2833 77.8027 54.61 77.7373 54.834 77.672C55.0673 77.6067 55.24 77.5507 55.352 77.504C55.4733 77.4573 55.5806 77.4293 55.674 77.42C55.7486 77.4107 55.8093 77.4247 55.856 77.462C55.912 77.4993 55.94 77.574 55.94 77.686V78.568H55.982C56.1686 78.3907 56.36 78.2227 56.556 78.064C56.752 77.896 56.9806 77.7607 57.242 77.658C57.5126 77.546 57.844 77.49 58.236 77.49C58.8706 77.49 59.3746 77.6813 59.748 78.064C60.1213 78.4467 60.308 78.9507 60.308 79.576V82.558C60.308 82.7167 60.3126 82.8707 60.322 83.02C60.3406 83.1693 60.3966 83.2907 60.49 83.384C60.5926 83.468 60.7746 83.51 61.036 83.51C61.12 83.51 61.19 83.5193 61.246 83.538C61.3113 83.5473 61.3486 83.622 61.358 83.762C61.358 83.8273 61.3393 83.8927 61.302 83.958C61.2646 84.014 61.2086 84.042 61.134 84.042C60.8633 84.0233 60.6113 84.0093 60.378 84C60.154 84 59.916 84 59.664 84C59.412 84 59.174 84 58.95 84C58.726 84.0093 58.4786 84.0233 58.208 84.042C58.1426 84.042 58.0866 84.014 58.04 83.958C58.0026 83.8927 57.984 83.8273 57.984 83.762C57.9933 83.622 58.026 83.5473 58.082 83.538C58.1473 83.5193 58.222 83.51 58.306 83.51C58.5673 83.51 58.7446 83.468 58.838 83.384C58.9406 83.2907 58.9966 83.1693 59.006 83.02C59.0246 82.8707 59.034 82.7167 59.034 82.558V79.59C59.034 79.282 58.964 79.03 58.824 78.834C58.6933 78.638 58.5253 78.4933 58.32 78.4C58.1146 78.3067 57.9046 78.26 57.69 78.26C57.3726 78.26 57.0926 78.3207 56.85 78.442C56.6073 78.554 56.4113 78.6847 56.262 78.834C56.1126 78.9833 56.01 79.114 55.954 79.226V82.558C55.954 82.7167 55.9586 82.8707 55.968 83.02C55.9866 83.1693 56.0426 83.2907 56.136 83.384C56.2386 83.468 56.4206 83.51 56.682 83.51C56.766 83.51 56.836 83.5193 56.892 83.538C56.9573 83.5473 56.9946 83.622 57.004 83.762C57.004 83.8273 56.9853 83.8927 56.948 83.958C56.9106 84.014 56.8546 84.042 56.78 84.042C56.5093 84.0233 56.2573 84.0093 56.024 84C55.8 84 55.562 84 55.31 84C55.058 84 54.82 84 54.596 84C54.372 84.0093 54.1246 84.0233 53.854 84.042ZM64.4771 84.238C64.1971 84.238 63.9311 84.168 63.6791 84.028C63.4271 83.888 63.2171 83.6733 63.0491 83.384C62.8905 83.0947 62.8111 82.7307 62.8111 82.292V78.176L61.9991 78.204C61.9338 78.204 61.8825 78.1807 61.8451 78.134C61.8171 78.078 61.8031 78.0173 61.8031 77.952C61.8031 77.7653 61.8685 77.658 61.9991 77.63C62.3445 77.5647 62.6058 77.4573 62.7831 77.308C62.9605 77.1493 63.0958 76.9627 63.1891 76.748C63.2918 76.5333 63.3851 76.3 63.4691 76.048C63.4971 75.9733 63.5391 75.9267 63.5951 75.908C63.6511 75.88 63.7118 75.866 63.7771 75.866C63.8331 75.866 63.8938 75.88 63.9591 75.908C64.0338 75.936 64.0711 75.9873 64.0711 76.062L63.9731 77.658L65.6111 77.56C65.6951 77.5507 65.7511 77.574 65.7791 77.63C65.8071 77.686 65.8211 77.7513 65.8211 77.826C65.8211 77.9193 65.8025 78.0127 65.7651 78.106C65.7371 78.1993 65.6998 78.246 65.6531 78.246L64.0851 78.204V82.46C64.0851 82.7307 64.1411 82.978 64.2531 83.202C64.3745 83.426 64.5891 83.538 64.8971 83.538C64.9998 83.538 65.1165 83.5287 65.2471 83.51C65.3778 83.4913 65.5178 83.4493 65.6671 83.384C65.7045 83.3653 65.7418 83.3513 65.7791 83.342C65.8165 83.3233 65.8538 83.314 65.8911 83.314C65.9658 83.314 66.0218 83.3467 66.0591 83.412C66.0965 83.468 66.1291 83.5287 66.1571 83.594C66.1851 83.678 66.1618 83.7433 66.0871 83.79C65.7978 83.9767 65.5318 84.098 65.2891 84.154C65.0465 84.21 64.7758 84.238 64.4771 84.238ZM69.8098 84.168C69.0911 84.168 68.4891 84.042 68.0038 83.79C67.5278 83.5287 67.2898 83.1553 67.2898 82.67C67.2898 82.3993 67.3691 82.18 67.5278 82.012C67.6958 81.844 67.9105 81.76 68.1718 81.76C68.3398 81.76 68.4751 81.8067 68.5778 81.9C68.6898 81.984 68.7458 82.0447 68.7458 82.082C68.7458 82.11 68.6898 82.1753 68.5778 82.278C68.4751 82.3713 68.4238 82.5253 68.4238 82.74C68.4238 83.0013 68.5451 83.2207 68.7878 83.398C69.0398 83.566 69.4178 83.65 69.9218 83.65C70.3605 83.65 70.7011 83.5567 70.9438 83.37C71.1958 83.174 71.3218 82.9033 71.3218 82.558C71.3218 82.278 71.2285 82.0633 71.0418 81.914C70.8645 81.7553 70.6311 81.6293 70.3418 81.536C70.0618 81.4427 69.7585 81.3493 69.4318 81.256C69.1145 81.1627 68.8111 81.046 68.5218 80.906C68.2325 80.766 67.9945 80.5747 67.8078 80.332C67.6305 80.08 67.5418 79.7487 67.5418 79.338C67.5418 78.918 67.6678 78.5727 67.9198 78.302C68.1718 78.0313 68.4938 77.8307 68.8858 77.7C69.2778 77.56 69.6745 77.49 70.0758 77.49C70.4211 77.49 70.7478 77.5413 71.0558 77.644C71.3638 77.7373 71.6158 77.882 71.8118 78.078C72.0171 78.274 72.1198 78.5213 72.1198 78.82C72.1198 79.0533 72.0451 79.2633 71.8958 79.45C71.7465 79.6367 71.5411 79.73 71.2798 79.73C71.1118 79.73 70.9718 79.688 70.8598 79.604C70.7571 79.5107 70.7058 79.4453 70.7058 79.408C70.7058 79.3893 70.7385 79.3567 70.8038 79.31C70.8785 79.254 70.9485 79.184 71.0138 79.1C71.0791 79.0067 71.1118 78.89 71.1118 78.75C71.0931 78.4793 70.9625 78.2787 70.7198 78.148C70.4771 78.0173 70.2065 77.952 69.9078 77.952C69.5811 77.952 69.2778 78.0313 68.9978 78.19C68.7178 78.3487 68.5778 78.5773 68.5778 78.876C68.5778 79.1467 68.6338 79.3567 68.7458 79.506C68.8671 79.6553 69.0538 79.786 69.3058 79.898C69.5671 80.0007 69.9031 80.1173 70.3138 80.248C70.7245 80.3787 71.0838 80.514 71.3918 80.654C71.7091 80.794 71.9518 80.9807 72.1198 81.214C72.2971 81.438 72.3858 81.746 72.3858 82.138C72.3858 82.53 72.2738 82.88 72.0498 83.188C71.8258 83.496 71.5178 83.7387 71.1258 83.916C70.7431 84.084 70.3045 84.168 69.8098 84.168Z" fill="white"/>
<ellipse cx="37.3143" cy="37.5073" rx="28.5096" ry="29.5073" fill="white" fill-opacity="0.25"/>
<circle cx="56.5059" cy="12.5" r="12.5" fill="#E66F6F" fill-opacity="0.5"/>
<path d="M29.6387 47.3333V28.6667C29.6387 28.3572 29.7616 28.0605 29.9804 27.8417C30.1992 27.6229 30.4959 27.5 30.8053 27.5H38.006C38.6248 27.5001 39.2182 27.7461 39.6557 28.1837L45.2883 33.8163C45.726 34.2538 45.9719 34.8472 45.972 35.466V47.3333C45.972 47.6428 45.8491 47.9395 45.6303 48.1583C45.4115 48.3771 45.1148 48.5 44.8053 48.5H30.8053C30.4959 48.5 30.1992 48.3771 29.9804 48.1583C29.7616 47.9395 29.6387 47.6428 29.6387 47.3333Z" stroke="#E66F6F" stroke-width="2" stroke-linejoin="round"/>
<path d="M37.8047 27.5V34.5C37.8047 34.8094 37.9276 35.1062 38.1464 35.325C38.3652 35.5438 38.6619 35.6667 38.9714 35.6667H45.9714" stroke="#E66F6F" stroke-width="2" stroke-linejoin="round"/>
</svg>
