<svg width="30" height="30" viewBox="0 0 30 30" fill="none" xmlns="http://www.w3.org/2000/svg">
<path d="M10.1925 19.8075L17.4525 17.4525L19.8075 10.1925L12.5487 12.5487L10.1925 19.8075ZM14.995 16.395C14.6058 16.395 14.2767 16.2587 14.0075 15.9862C13.74 15.7137 13.6063 15.3833 13.6063 14.995C13.6063 14.6058 13.7421 14.2767 14.0138 14.0075C14.2863 13.74 14.6167 13.6063 15.005 13.6063C15.3942 13.6063 15.7233 13.7421 15.9925 14.0138C16.2608 14.2863 16.395 14.6167 16.395 15.005C16.395 15.3942 16.2587 15.7233 15.9862 15.9925C15.7137 16.2608 15.3833 16.395 14.995 16.395ZM15.0037 26.25C13.4479 26.25 11.9854 25.955 10.6163 25.365C9.24708 24.7742 8.05583 23.9725 7.0425 22.96C6.02917 21.9475 5.22708 20.7575 4.63625 19.39C4.04542 18.0225 3.75 16.5604 3.75 15.0037C3.75 13.4471 4.04542 11.9846 4.63625 10.6163C5.22625 9.24708 6.02667 8.05583 7.0375 7.0425C8.04833 6.02917 9.23875 5.22708 10.6088 4.63625C11.9788 4.04542 13.4412 3.75 14.9963 3.75C16.5512 3.75 18.0138 4.04542 19.3837 4.63625C20.7529 5.22625 21.9442 6.02708 22.9575 7.03875C23.9708 8.05042 24.7729 9.24083 25.3638 10.61C25.9546 11.9792 26.25 13.4412 26.25 14.9963C26.25 16.5512 25.955 18.0138 25.365 19.3837C24.775 20.7537 23.9733 21.945 22.96 22.9575C21.9467 23.97 20.7567 24.7721 19.39 25.3638C18.0233 25.9554 16.5613 26.2508 15.0037 26.25ZM15 25C17.7867 25 20.15 24.03 22.09 22.09C24.03 20.15 25 17.7867 25 15C25 12.2133 24.03 9.85 22.09 7.91C20.15 5.97 17.7867 5 15 5C12.2133 5 9.85 5.97 7.91 7.91C5.97 9.85 5 12.2133 5 15C5 17.7867 5.97 20.15 7.91 22.09C9.85 24.03 12.2133 25 15 25Z" fill="#C4C4C4"/>
</svg>
