<svg width="24" height="24" viewBox="0 0 24 24" fill="none" xmlns="http://www.w3.org/2000/svg">
<path d="M3.93425 13.779C5.71425 15.548 8.81725 17.999 12.3472 17.999C15.8772 17.999 18.9813 15.548 20.7603 13.779C21.2303 13.312 21.4653 13.079 21.6143 12.62C21.7213 12.293 21.7213 11.707 21.6143 11.38C21.4643 10.922 21.2293 10.688 20.7603 10.221C18.9803 8.452 15.8782 6 12.3472 6C8.81725 6 5.71325 8.452 3.93425 10.221C3.46425 10.688 3.22925 10.921 3.08025 11.38C2.97325 11.707 2.97325 12.293 3.08025 12.62C3.23025 13.078 3.46425 13.312 3.93425 13.779Z" stroke="black" stroke-width="2" stroke-linecap="round" stroke-linejoin="round"/>
<path d="M10.3477 12C10.3477 12.5304 10.5584 13.0391 10.9334 13.4142C11.3085 13.7893 11.8172 14 12.3477 14C12.8781 14 13.3868 13.7893 13.7619 13.4142C14.1369 13.0391 14.3477 12.5304 14.3477 12C14.3477 11.4696 14.1369 10.9609 13.7619 10.5858C13.3868 10.2107 12.8781 10 12.3477 10C11.8172 10 11.3085 10.2107 10.9334 10.5858C10.5584 10.9609 10.3477 11.4696 10.3477 12Z" fill="black" stroke="black" stroke-width="2" stroke-linecap="round" stroke-linejoin="round"/>
</svg>
