<svg width="17" height="14" viewBox="0 0 17 14" fill="none" xmlns="http://www.w3.org/2000/svg">
<path d="M15.5 7.00034H6.15027M6.15027 7.00034C6.15027 6.60557 5.9757 6.22697 5.66632 5.94783C5.35694 5.66869 4.93732 5.51186 4.49978 5.51186C4.06225 5.51186 3.64263 5.66869 3.33325 5.94783C3.02386 6.22697 2.85005 6.60557 2.85005 7.00034M6.15027 7.00034C6.15027 7.39511 5.9757 7.77371 5.66632 8.05285C5.35694 8.332 4.93732 8.48882 4.49978 8.48882C4.06225 8.48882 3.64263 8.332 3.33325 8.05285C3.02386 7.77371 2.85005 7.39511 2.85005 7.00034M2.85005 7.00034H1.5M15.5 2.48916H11.1502M11.1502 2.48916C11.1502 2.0943 10.9759 1.71527 10.6665 1.43607C10.357 1.15686 9.93731 1 9.49968 1C9.06214 1 8.64253 1.1575 8.33314 1.43665C8.02376 1.71579 7.84995 2.09439 7.84995 2.48916M11.1502 2.48916C11.1502 2.88402 10.9759 3.26237 10.6665 3.54158C10.357 3.82078 9.93731 3.97764 9.49968 3.97764C9.06214 3.97764 8.64253 3.82082 8.33314 3.54167C8.02376 3.26253 7.84995 2.88393 7.84995 2.48916M7.84995 2.48916H1.5M15.5 11.5115H13.1503M13.1503 11.5115C13.1503 11.3161 13.1068 11.1225 13.0239 10.9419C12.941 10.7613 12.8195 10.5972 12.6663 10.459C12.5131 10.3208 12.3313 10.2112 12.1311 10.1363C11.931 10.0615 11.7164 10.023 11.4998 10.023C11.0622 10.023 10.6426 10.1799 10.3332 10.459C10.0239 10.7382 9.85005 11.1168 9.85005 11.5115M13.1503 11.5115C13.1503 11.707 13.1068 11.9005 13.0239 12.0811C12.941 12.2617 12.8195 12.4258 12.6663 12.564C12.5131 12.7023 12.3313 12.8119 12.1311 12.8867C11.931 12.9615 11.7164 13 11.4998 13C11.0622 13 10.6426 12.8432 10.3332 12.564C10.0239 12.2849 9.85005 11.9063 9.85005 11.5115M9.85005 11.5115H1.5" stroke="#11152A" stroke-width="1.2" stroke-miterlimit="10" stroke-linecap="round"/>
</svg>
