<svg width="23" height="26" viewBox="0 0 23 26" fill="none" xmlns="http://www.w3.org/2000/svg">
<path d="M2.44092 15.0393L10.8984 19.9155C11.0429 20.0062 11.1879 20.0515 11.3333 20.0515C11.4788 20.0515 11.6242 20.0062 11.7697 19.9155L20.1988 15.0393L12.0417 10.3218V14.875H10.625V10.3232L2.44092 15.0393ZM10.625 8.69833V7.00542C9.80333 6.84392 9.12617 6.43922 8.5935 5.79133C8.05894 5.14439 7.79167 4.3945 7.79167 3.54167C7.79167 2.55378 8.13497 1.71653 8.82158 1.02992C9.50819 0.343306 10.3454 0 11.3333 0C12.3212 0 13.1585 0.343306 13.8451 1.02992C14.5317 1.71653 14.875 2.55378 14.875 3.54167C14.875 4.3945 14.6082 5.14486 14.0746 5.79275C13.54 6.44064 12.8624 6.84533 12.0417 7.00683V8.69975L21.522 14.1553C21.8847 14.3641 22.1661 14.6436 22.3663 14.994C22.5666 15.3444 22.6667 15.7278 22.6667 16.1443V17.8557C22.6667 18.2722 22.5666 18.6556 22.3663 19.006C22.1661 19.3564 21.8847 19.6359 21.522 19.8447L12.478 25.0566C12.1134 25.2615 11.7305 25.364 11.3291 25.364C10.9277 25.364 10.5476 25.2615 10.1887 25.0566L1.14467 19.8433C0.782 19.6355 0.500555 19.3564 0.300333 19.006C0.100111 18.6556 0 18.2722 0 17.8557V16.1443C0 15.7278 0.100111 15.3444 0.300333 14.994C0.500555 14.6436 0.782 14.3641 1.14467 14.1553L10.625 8.69833ZM10.1887 21.131L1.41667 16.082V17.8557C1.41667 18.0011 1.45303 18.1418 1.52575 18.2778C1.59847 18.4138 1.70708 18.5272 1.85158 18.6178L10.897 23.8382C11.0424 23.9289 11.1879 23.9742 11.3333 23.9742C11.4788 23.9742 11.6242 23.9289 11.7697 23.8382L20.8137 18.6178C20.9591 18.5272 21.0682 18.4138 21.1409 18.2778C21.2136 18.1418 21.25 18.0011 21.25 17.8557V16.082L12.478 21.1324C12.1134 21.3383 11.7305 21.4412 11.3291 21.4412C10.9277 21.4412 10.5476 21.3369 10.1887 21.131ZM11.3333 5.66667C11.9236 5.66667 12.4256 5.46031 12.8392 5.04758C13.2529 4.63486 13.4593 4.13289 13.4583 3.54167C13.4574 2.95044 13.251 2.44894 12.8392 2.03717C12.4275 1.62539 11.9255 1.41856 11.3333 1.41667C10.7412 1.41478 10.2397 1.62161 9.82883 2.03717C9.418 2.45272 9.21117 2.95422 9.20833 3.54167C9.2055 4.12911 9.41233 4.63108 9.82883 5.04758C10.2453 5.46408 10.7468 5.67044 11.3333 5.66667Z" fill="white"/>
</svg>
