<svg width="26" height="21" viewBox="0 0 26 21" fill="none" xmlns="http://www.w3.org/2000/svg">
<path d="M10.9905 15.022C11.4297 15.4622 11.9935 15.6624 12.682 15.6227C13.3705 15.584 13.8729 15.3365 14.1893 14.8804L21.6311 4.50613L11.203 11.8955C10.7289 12.2109 10.4649 12.7011 10.4111 13.366C10.3572 14.0309 10.5504 14.5819 10.9905 15.022ZM12.75 0.583382C14.0524 0.583382 15.2377 0.742049 16.3058 1.05938C17.3749 1.37577 18.4403 1.8598 19.5018 2.51147L18.1985 3.39405C17.3646 2.93883 16.5013 2.59269 15.6088 2.35563C14.7163 2.11858 13.7634 2.00005 12.75 2.00005C9.60972 2.00005 6.93553 3.1041 4.72742 5.31221C2.51931 7.52033 1.41572 10.194 1.41667 13.3334C1.41667 14.325 1.55267 15.3049 1.82467 16.273C2.09667 17.241 2.48011 18.15 2.975 19H22.525C23.0681 18.1028 23.4638 17.1702 23.7122 16.2021C23.9606 15.2341 24.0843 14.2306 24.0833 13.1917C24.0833 12.3417 23.9738 11.4473 23.7547 10.5085C23.5356 9.56977 23.1889 8.69522 22.7148 7.88488L23.5988 6.58155C24.2883 7.76399 24.7761 8.87655 25.0623 9.91921C25.3484 10.9619 25.4943 12.047 25.5 13.1747C25.5057 14.393 25.3701 15.5302 25.0934 16.586C24.8176 17.6419 24.3879 18.7063 23.8042 19.7792C23.6909 19.9681 23.5186 20.1216 23.2872 20.2396C23.0558 20.3577 22.8017 20.4167 22.525 20.4167H2.975C2.71528 20.4167 2.47444 20.3534 2.2525 20.2269C2.0315 20.0994 1.84544 19.9138 1.69433 19.6701C1.22589 18.8437 0.826389 17.9116 0.495833 16.8736C0.165278 15.8357 0 14.6556 0 13.3334C0 11.5918 0.330556 9.94802 0.991667 8.40196C1.65183 6.85591 2.55331 5.50205 3.69608 4.34038C4.83886 3.17871 6.19036 2.26166 7.75058 1.58922C9.31081 0.916771 10.9773 0.581493 12.75 0.583382Z" fill="white"/>
</svg>
