<svg width="61" height="67" viewBox="0 0 61 67" fill="none" xmlns="http://www.w3.org/2000/svg">
<ellipse cx="29.1132" cy="37.5" rx="28.5096" ry="29.5073" fill="white" fill-opacity="0.25"/>
<circle cx="48.3047" cy="12.4927" r="12.5" fill="#5EC9FF" fill-opacity="0.5"/>
<path d="M42.5695 16.0347C42.4762 16.0347 42.4108 16.002 42.3735 15.9367C42.3362 15.862 42.3175 15.7827 42.3175 15.6987C42.3268 15.5307 42.3642 15.442 42.4295 15.4327C42.4948 15.4233 42.5788 15.4187 42.6815 15.4187C43.0828 15.4187 43.4002 15.4 43.6335 15.3627C43.8762 15.316 44.0488 15.204 44.1515 15.0267C44.2542 14.84 44.3055 14.5413 44.3055 14.1307V11.2187C44.3148 10.808 44.2962 10.5047 44.2495 10.3087C44.2028 10.1127 44.1188 9.98201 43.9975 9.91668C43.8762 9.85134 43.7035 9.82334 43.4795 9.83268C43.2648 9.83268 42.9848 9.82801 42.6395 9.81868C42.5462 9.81868 42.4808 9.78601 42.4435 9.72068C42.4062 9.64601 42.3875 9.56668 42.3875 9.48268C42.3968 9.31468 42.4342 9.22134 42.4995 9.20268C42.5648 9.18401 42.6488 9.17468 42.7515 9.17468C43.0688 9.17468 43.3955 9.12801 43.7315 9.03468C44.0768 8.94134 44.3802 8.84334 44.6415 8.74068C44.9122 8.62868 45.0848 8.55868 45.1595 8.53068C45.2342 8.50268 45.3135 8.50268 45.3975 8.53068C45.4815 8.54934 45.5235 8.64734 45.5235 8.82468V14.1307C45.5235 14.5413 45.5748 14.84 45.6775 15.0267C45.7802 15.204 45.9482 15.316 46.1815 15.3627C46.4242 15.4 46.7462 15.4187 47.1475 15.4187C47.2502 15.4187 47.3342 15.4233 47.3995 15.4327C47.4648 15.442 47.5022 15.5307 47.5115 15.6987C47.5115 15.7827 47.4928 15.862 47.4555 15.9367C47.4275 16.002 47.3622 16.0347 47.2595 16.0347C47.0355 16.0253 46.7695 16.016 46.4615 16.0067C46.1628 16.0067 45.8688 16.002 45.5795 15.9927C45.2995 15.9927 45.0755 15.9927 44.9075 15.9927C44.7488 15.9927 44.5248 15.9927 44.2355 15.9927C43.9555 16.002 43.6615 16.0067 43.3535 16.0067C43.0548 16.016 42.7935 16.0253 42.5695 16.0347ZM48.7258 15.9927C48.5485 15.9927 48.4225 15.946 48.3478 15.8527C48.2731 15.7593 48.2358 15.638 48.2358 15.4887C48.2545 15.274 48.3151 15.106 48.4178 14.9847C48.5205 14.8633 48.6745 14.7373 48.8798 14.6067C49.2251 14.3733 49.5891 14.1213 49.9718 13.8507C50.3545 13.58 50.7138 13.2813 51.0498 12.9547C51.3858 12.6187 51.6565 12.25 51.8618 11.8487C52.0765 11.4473 52.1838 10.9947 52.1838 10.4907C52.1838 10.0427 52.0625 9.69734 51.8198 9.45468C51.5865 9.20268 51.2551 9.07668 50.8258 9.07668C50.4711 9.07668 50.1725 9.16534 49.9298 9.34268C49.6871 9.52001 49.5658 9.77201 49.5658 10.0987C49.5658 10.2573 49.6031 10.3927 49.6778 10.5047C49.7525 10.6073 49.8271 10.6913 49.9018 10.7567C49.9858 10.8127 50.0278 10.85 50.0278 10.8687C50.0278 10.9153 49.9718 10.99 49.8598 11.0927C49.7478 11.1953 49.5891 11.2467 49.3838 11.2467C49.0851 11.2467 48.8518 11.1533 48.6838 10.9667C48.5158 10.78 48.4318 10.5513 48.4318 10.2807C48.4318 9.87934 48.5625 9.55268 48.8238 9.30068C49.0945 9.04868 49.4211 8.86668 49.8038 8.75468C50.1958 8.63334 50.5785 8.57268 50.9518 8.57268C51.3625 8.57268 51.7638 8.64268 52.1558 8.78268C52.5571 8.91334 52.8838 9.13268 53.1358 9.44068C53.3971 9.74868 53.5278 10.1593 53.5278 10.6727C53.5278 11.102 53.4298 11.494 53.2338 11.8487C53.0471 12.194 52.7998 12.5113 52.4918 12.8007C52.1838 13.09 51.8478 13.356 51.4838 13.5987C51.1291 13.8413 50.7745 14.07 50.4198 14.2847C50.0651 14.4993 49.7525 14.714 49.4818 14.9287V14.9987H53.2338C53.4205 14.9987 53.5791 15.022 53.7098 15.0687C53.8405 15.106 53.9058 15.246 53.9058 15.4887C53.9058 15.8247 53.7425 15.9927 53.4158 15.9927H48.7258Z" fill="white"/>
<g clip-path="url(#clip0_2053_12232)">
<path d="M15.6035 30.9927C15.6035 30.0644 15.9723 29.1742 16.6286 28.5178C17.285 27.8614 18.1753 27.4927 19.1035 27.4927H40.1035C41.0318 27.4927 41.922 27.8614 42.5784 28.5178C43.2348 29.1742 43.6035 30.0644 43.6035 30.9927V44.9927C43.6035 45.9209 43.2348 46.8112 42.5784 47.4675C41.922 48.1239 41.0318 48.4927 40.1035 48.4927H19.1035C18.1753 48.4927 17.285 48.1239 16.6286 47.4675C15.9723 46.8112 15.6035 45.9209 15.6035 44.9927V30.9927ZM19.1035 29.2427C18.6394 29.2427 18.1943 29.4271 17.8661 29.7552C17.5379 30.0834 17.3535 30.5285 17.3535 30.9927V31.3724L29.6035 38.7224L41.8535 31.3724V30.9927C41.8535 30.5285 41.6691 30.0834 41.341 29.7552C41.0128 29.4271 40.5676 29.2427 40.1035 29.2427H19.1035ZM41.8535 33.4129L33.6145 38.3567L41.8535 43.4264V33.4129ZM41.794 45.4459L31.924 39.3717L29.6035 40.7629L27.283 39.3717L17.413 45.4442C17.5125 45.8166 17.7321 46.1457 18.0377 46.3805C18.3434 46.6153 18.7181 46.7426 19.1035 46.7427H40.1035C40.4887 46.7427 40.8632 46.6157 41.1688 46.3812C41.4745 46.1468 41.6942 45.818 41.794 45.4459ZM17.3535 43.4264L25.5925 38.3567L17.3535 33.4129V43.4264Z" fill="#5EC9FF"/>
</g>
<defs>
<clipPath id="clip0_2053_12232">
<rect width="28" height="28" fill="white" transform="translate(15.6035 23.9927)"/>
</clipPath>
</defs>
</svg>
