<svg width="62" height="89" viewBox="0 0 62 89" fill="none" xmlns="http://www.w3.org/2000/svg">
<path d="M6.59552 84.07C6.53952 84.07 6.48352 84.056 6.42752 84.028C6.37152 84.0093 6.32952 83.9767 6.30152 83.93L3.15152 76.804H3.10952L3.13752 82.362C3.14685 82.5393 3.16085 82.712 3.17952 82.88C3.20752 83.0387 3.28218 83.174 3.40352 83.286C3.52485 83.3887 3.73018 83.44 4.01952 83.44C4.12218 83.44 4.20618 83.4493 4.27152 83.468C4.33685 83.4867 4.37418 83.5753 4.38352 83.734C4.38352 83.8087 4.36018 83.8787 4.31352 83.944C4.27618 84.0093 4.21552 84.042 4.13152 84.042C3.93552 84.0327 3.77685 84.0233 3.65552 84.014C3.53418 84.014 3.41752 84.0093 3.30552 84C3.19352 84 3.04418 84 2.85752 84C2.57752 84 2.34885 84 2.17152 84C2.00352 84.0093 1.77018 84.0233 1.47152 84.042C1.37818 84.042 1.31285 84.0093 1.27552 83.944C1.23818 83.8787 1.21952 83.8087 1.21952 83.734C1.22885 83.5753 1.26618 83.4867 1.33152 83.468C1.39685 83.4493 1.47618 83.44 1.56952 83.44C1.86818 83.44 2.07352 83.3887 2.18552 83.286C2.30685 83.174 2.38152 83.0387 2.40952 82.88C2.43752 82.712 2.45152 82.5393 2.45152 82.362L2.47952 76.804C2.47952 76.5053 2.44685 76.286 2.38152 76.146C2.31618 75.9967 2.21352 75.894 2.07352 75.838C1.93352 75.7727 1.75618 75.7213 1.54152 75.684C1.41085 75.656 1.31752 75.6327 1.26152 75.614C1.21485 75.5953 1.19152 75.5113 1.19152 75.362C1.19152 75.2033 1.24752 75.1193 1.35952 75.11C1.47152 75.0913 1.60218 75.082 1.75152 75.082C2.20885 75.082 2.61018 75.1193 2.95552 75.194C3.31018 75.2687 3.61818 75.4133 3.87952 75.628C4.14085 75.8333 4.35552 76.146 4.52352 76.566L6.93152 81.97H6.97352L9.73152 75.166H10.5295C10.8095 75.166 11.0802 75.1613 11.3415 75.152C11.6122 75.1427 11.8968 75.1333 12.1955 75.124C12.2888 75.124 12.3542 75.1567 12.3915 75.222C12.4288 75.2873 12.4475 75.3573 12.4475 75.432C12.4382 75.5907 12.4008 75.6793 12.3355 75.698C12.2702 75.7167 12.1908 75.726 12.0975 75.726C11.8082 75.726 11.5982 75.782 11.4675 75.894C11.3462 75.9967 11.2715 76.132 11.2435 76.3C11.2155 76.4587 11.1968 76.6267 11.1875 76.804V82.362C11.1968 82.5393 11.2155 82.712 11.2435 82.88C11.2715 83.0387 11.3462 83.174 11.4675 83.286C11.5982 83.3887 11.8082 83.44 12.0975 83.44C12.1908 83.44 12.2702 83.4493 12.3355 83.468C12.4008 83.4867 12.4382 83.5753 12.4475 83.734C12.4475 83.8087 12.4288 83.8787 12.3915 83.944C12.3542 84.0093 12.2888 84.042 12.1955 84.042C11.8968 84.0233 11.6122 84.0093 11.3415 84C11.0708 84 10.7955 84 10.5155 84C9.97418 84 9.40018 84.014 8.79352 84.042C8.70018 84.042 8.63485 84.0093 8.59752 83.944C8.56018 83.8787 8.54152 83.8087 8.54152 83.734C8.55085 83.5753 8.58818 83.4867 8.65352 83.468C8.71885 83.4493 8.79818 83.44 8.89152 83.44C9.19018 83.44 9.40018 83.3887 9.52152 83.286C9.64285 83.174 9.71752 83.0387 9.74552 82.88C9.78285 82.712 9.80152 82.5393 9.80152 82.362V76.804H9.75952L6.87552 83.93C6.85685 83.9767 6.81952 84.0093 6.76352 84.028C6.70752 84.056 6.65152 84.07 6.59552 84.07ZM16.102 84.168C15.3833 84.168 14.7766 84.014 14.282 83.706C13.7966 83.398 13.4326 82.9873 13.19 82.474C12.9473 81.9607 12.826 81.4007 12.826 80.794C12.826 80.3833 12.896 79.9867 13.036 79.604C13.1853 79.212 13.3953 78.8573 13.666 78.54C13.9366 78.2133 14.2633 77.9567 14.646 77.77C15.0286 77.5833 15.4626 77.49 15.948 77.49C16.8066 77.49 17.4506 77.714 17.88 78.162C18.3186 78.6007 18.5706 79.1607 18.636 79.842C18.636 80.1687 18.5426 80.3833 18.356 80.486C18.1786 80.5887 17.9453 80.64 17.656 80.64H14.254C14.254 81.1813 14.3286 81.6667 14.478 82.096C14.6273 82.516 14.8606 82.852 15.178 83.104C15.5046 83.3467 15.934 83.468 16.466 83.468C16.858 83.468 17.194 83.384 17.474 83.216C17.754 83.048 18.0246 82.754 18.286 82.334C18.3606 82.2407 18.4633 82.236 18.594 82.32C18.6686 82.3573 18.7153 82.418 18.734 82.502C18.7526 82.5767 18.7433 82.642 18.706 82.698C18.4166 83.1553 18.0526 83.5147 17.614 83.776C17.1753 84.0373 16.6713 84.168 16.102 84.168ZM14.254 80.108H16.536C16.76 80.108 16.9373 80.066 17.068 79.982C17.208 79.8887 17.2826 79.7347 17.292 79.52C17.292 79.1187 17.18 78.764 16.956 78.456C16.7413 78.1387 16.4053 77.98 15.948 77.98C15.4813 77.98 15.0893 78.1667 14.772 78.54C14.464 78.9133 14.2913 79.436 14.254 80.108ZM22.3313 84.168C21.6126 84.168 21.0106 84.042 20.5253 83.79C20.0493 83.5287 19.8113 83.1553 19.8113 82.67C19.8113 82.3993 19.8906 82.18 20.0493 82.012C20.2173 81.844 20.432 81.76 20.6933 81.76C20.8613 81.76 20.9966 81.8067 21.0993 81.9C21.2113 81.984 21.2673 82.0447 21.2673 82.082C21.2673 82.11 21.2113 82.1753 21.0993 82.278C20.9966 82.3713 20.9453 82.5253 20.9453 82.74C20.9453 83.0013 21.0666 83.2207 21.3093 83.398C21.5613 83.566 21.9393 83.65 22.4433 83.65C22.882 83.65 23.2226 83.5567 23.4653 83.37C23.7173 83.174 23.8433 82.9033 23.8433 82.558C23.8433 82.278 23.75 82.0633 23.5633 81.914C23.386 81.7553 23.1526 81.6293 22.8633 81.536C22.5833 81.4427 22.28 81.3493 21.9533 81.256C21.636 81.1627 21.3326 81.046 21.0433 80.906C20.754 80.766 20.516 80.5747 20.3293 80.332C20.152 80.08 20.0633 79.7487 20.0633 79.338C20.0633 78.918 20.1893 78.5727 20.4413 78.302C20.6933 78.0313 21.0153 77.8307 21.4073 77.7C21.7993 77.56 22.196 77.49 22.5973 77.49C22.9426 77.49 23.2693 77.5413 23.5773 77.644C23.8853 77.7373 24.1373 77.882 24.3333 78.078C24.5386 78.274 24.6413 78.5213 24.6413 78.82C24.6413 79.0533 24.5666 79.2633 24.4173 79.45C24.268 79.6367 24.0626 79.73 23.8013 79.73C23.6333 79.73 23.4933 79.688 23.3813 79.604C23.2786 79.5107 23.2273 79.4453 23.2273 79.408C23.2273 79.3893 23.26 79.3567 23.3253 79.31C23.4 79.254 23.47 79.184 23.5353 79.1C23.6006 79.0067 23.6333 78.89 23.6333 78.75C23.6146 78.4793 23.484 78.2787 23.2413 78.148C22.9986 78.0173 22.728 77.952 22.4293 77.952C22.1026 77.952 21.7993 78.0313 21.5193 78.19C21.2393 78.3487 21.0993 78.5773 21.0993 78.876C21.0993 79.1467 21.1553 79.3567 21.2673 79.506C21.3886 79.6553 21.5753 79.786 21.8273 79.898C22.0886 80.0007 22.4246 80.1173 22.8353 80.248C23.246 80.3787 23.6053 80.514 23.9133 80.654C24.2306 80.794 24.4733 80.9807 24.6413 81.214C24.8186 81.438 24.9073 81.746 24.9073 82.138C24.9073 82.53 24.7953 82.88 24.5713 83.188C24.3473 83.496 24.0393 83.7387 23.6473 83.916C23.2646 84.084 22.826 84.168 22.3313 84.168ZM28.5383 84.168C27.8197 84.168 27.2177 84.042 26.7323 83.79C26.2563 83.5287 26.0183 83.1553 26.0183 82.67C26.0183 82.3993 26.0977 82.18 26.2563 82.012C26.4243 81.844 26.639 81.76 26.9003 81.76C27.0683 81.76 27.2037 81.8067 27.3063 81.9C27.4183 81.984 27.4743 82.0447 27.4743 82.082C27.4743 82.11 27.4183 82.1753 27.3063 82.278C27.2037 82.3713 27.1523 82.5253 27.1523 82.74C27.1523 83.0013 27.2737 83.2207 27.5163 83.398C27.7683 83.566 28.1463 83.65 28.6503 83.65C29.089 83.65 29.4297 83.5567 29.6723 83.37C29.9243 83.174 30.0503 82.9033 30.0503 82.558C30.0503 82.278 29.957 82.0633 29.7703 81.914C29.593 81.7553 29.3597 81.6293 29.0703 81.536C28.7903 81.4427 28.487 81.3493 28.1603 81.256C27.843 81.1627 27.5397 81.046 27.2503 80.906C26.961 80.766 26.723 80.5747 26.5363 80.332C26.359 80.08 26.2703 79.7487 26.2703 79.338C26.2703 78.918 26.3963 78.5727 26.6483 78.302C26.9003 78.0313 27.2223 77.8307 27.6143 77.7C28.0063 77.56 28.403 77.49 28.8043 77.49C29.1497 77.49 29.4763 77.5413 29.7843 77.644C30.0923 77.7373 30.3443 77.882 30.5403 78.078C30.7457 78.274 30.8483 78.5213 30.8483 78.82C30.8483 79.0533 30.7737 79.2633 30.6243 79.45C30.475 79.6367 30.2697 79.73 30.0083 79.73C29.8403 79.73 29.7003 79.688 29.5883 79.604C29.4857 79.5107 29.4343 79.4453 29.4343 79.408C29.4343 79.3893 29.467 79.3567 29.5323 79.31C29.607 79.254 29.677 79.184 29.7423 79.1C29.8077 79.0067 29.8403 78.89 29.8403 78.75C29.8217 78.4793 29.691 78.2787 29.4483 78.148C29.2057 78.0173 28.935 77.952 28.6363 77.952C28.3097 77.952 28.0063 78.0313 27.7263 78.19C27.4463 78.3487 27.3063 78.5773 27.3063 78.876C27.3063 79.1467 27.3623 79.3567 27.4743 79.506C27.5957 79.6553 27.7823 79.786 28.0343 79.898C28.2957 80.0007 28.6317 80.1173 29.0423 80.248C29.453 80.3787 29.8123 80.514 30.1203 80.654C30.4377 80.794 30.6803 80.9807 30.8483 81.214C31.0257 81.438 31.1143 81.746 31.1143 82.138C31.1143 82.53 31.0023 82.88 30.7783 83.188C30.5543 83.496 30.2463 83.7387 29.8543 83.916C29.4717 84.084 29.033 84.168 28.5383 84.168ZM34.0454 84.168C33.476 84.168 33.0187 84.0047 32.6734 83.678C32.3374 83.3513 32.1694 82.9593 32.1694 82.502C32.1694 82.026 32.2907 81.6527 32.5334 81.382C32.7854 81.1113 33.112 80.9107 33.5134 80.78C33.924 80.6493 34.3674 80.5607 34.8434 80.514C35.3287 80.4673 35.8 80.43 36.2574 80.402V79.296C36.2574 78.8573 36.1454 78.5167 35.9214 78.274C35.7067 78.022 35.338 77.896 34.8154 77.896C34.554 77.896 34.3067 77.98 34.0734 78.148C33.8494 78.316 33.7374 78.5587 33.7374 78.876C33.7374 79.0253 33.7747 79.1513 33.8494 79.254C33.924 79.3567 33.9987 79.436 34.0734 79.492C34.148 79.548 34.1854 79.5853 34.1854 79.604C34.1854 79.6413 34.1294 79.7113 34.0174 79.814C33.9147 79.9073 33.77 79.954 33.5834 79.954C33.294 79.954 33.07 79.8467 32.9114 79.632C32.7527 79.4173 32.6734 79.1793 32.6734 78.918C32.6734 78.5633 32.7807 78.2833 32.9954 78.078C33.2194 77.8727 33.504 77.7233 33.8494 77.63C34.1947 77.5367 34.5447 77.49 34.8994 77.49C35.3194 77.49 35.7254 77.5413 36.1174 77.644C36.5187 77.7467 36.8454 77.9427 37.0974 78.232C37.3587 78.5213 37.4894 78.9553 37.4894 79.534V82.796C37.4987 82.8893 37.522 83.0013 37.5594 83.132C37.5967 83.2627 37.6667 83.3793 37.7694 83.482C37.8814 83.5753 38.0307 83.622 38.2174 83.622C38.2827 83.622 38.334 83.636 38.3714 83.664C38.4087 83.6827 38.4274 83.7433 38.4274 83.846C38.4274 83.93 38.3807 83.9953 38.2874 84.042C38.194 84.0887 38.0867 84.1213 37.9654 84.14C37.844 84.1587 37.7414 84.168 37.6574 84.168C37.312 84.168 37.004 84.07 36.7334 83.874C36.4627 83.6687 36.304 83.3887 36.2574 83.034C36.052 83.4073 35.744 83.692 35.3334 83.888C34.932 84.0747 34.5027 84.168 34.0454 84.168ZM34.4934 83.412C34.8107 83.412 35.1 83.3327 35.3614 83.174C35.632 83.0153 35.8467 82.8007 36.0054 82.53C36.1734 82.25 36.2574 81.942 36.2574 81.606V80.808C35.296 80.8733 34.61 81.0273 34.1994 81.27C33.7887 81.5127 33.5834 81.9093 33.5834 82.46C33.5834 83.0947 33.8867 83.412 34.4934 83.412ZM42.039 87.052C40.0697 87.052 39.085 86.492 39.085 85.372C39.085 85.064 39.183 84.7887 39.379 84.546C39.575 84.3127 39.8364 84.196 40.163 84.196C40.3777 84.196 40.555 84.252 40.695 84.364C40.835 84.4853 40.905 84.5693 40.905 84.616C40.905 84.6347 40.8677 84.6767 40.793 84.742C40.7277 84.8073 40.6577 84.896 40.583 85.008C40.5177 85.12 40.485 85.2693 40.485 85.456C40.485 86.1747 41.101 86.534 42.333 86.534C43.033 86.534 43.5744 86.4127 43.957 86.17C44.349 85.9273 44.545 85.5587 44.545 85.064C44.545 84.7933 44.4564 84.588 44.279 84.448C44.111 84.308 43.8824 84.21 43.593 84.154C43.313 84.098 43.0004 84.0607 42.655 84.042C42.3097 84.0327 41.9597 84.0233 41.605 84.014C41.2597 84.0047 40.9377 83.9767 40.639 83.93C40.3124 83.874 40.037 83.7667 39.813 83.608C39.5984 83.44 39.491 83.1693 39.491 82.796C39.491 82.4507 39.6124 82.152 39.855 81.9C40.107 81.6387 40.4804 81.508 40.975 81.508C40.3777 81.2747 39.9764 80.99 39.771 80.654C39.575 80.318 39.477 79.9727 39.477 79.618C39.477 79.2167 39.589 78.8573 39.813 78.54C40.0464 78.2133 40.3637 77.9567 40.765 77.77C41.1757 77.574 41.647 77.476 42.179 77.476C42.4404 77.476 42.711 77.4993 42.991 77.546C43.2804 77.5833 43.5277 77.6533 43.733 77.756L45.651 77.392C45.7537 77.3827 45.8237 77.4153 45.861 77.49C45.8984 77.5647 45.917 77.644 45.917 77.728C45.917 77.8493 45.8984 77.9707 45.861 78.092C45.8237 78.204 45.7724 78.26 45.707 78.26L44.321 78.204V78.232C44.4797 78.3907 44.615 78.6007 44.727 78.862C44.839 79.1233 44.895 79.3707 44.895 79.604C44.895 80.052 44.7644 80.4393 44.503 80.766C44.251 81.0927 43.9244 81.3447 43.523 81.522C43.131 81.69 42.7204 81.774 42.291 81.774H41.675C41.1897 81.774 40.835 81.8207 40.611 81.914C40.3964 82.0073 40.289 82.1613 40.289 82.376C40.289 82.544 40.345 82.6747 40.457 82.768C40.5784 82.852 40.793 82.9033 41.101 82.922L43.019 82.992C44.0177 83.0293 44.727 83.188 45.147 83.468C45.5764 83.748 45.791 84.1633 45.791 84.714C45.791 85.2087 45.6324 85.6287 45.315 85.974C45.007 86.3287 44.5684 86.5947 43.999 86.772C43.439 86.9587 42.7857 87.052 42.039 87.052ZM42.179 81.368C42.6084 81.368 42.9584 81.2187 43.229 80.92C43.4997 80.612 43.635 80.1733 43.635 79.604C43.635 79.0813 43.495 78.6707 43.215 78.372C42.9444 78.064 42.5944 77.91 42.165 77.91C41.7544 77.91 41.409 78.0593 41.129 78.358C40.8584 78.6473 40.723 79.0533 40.723 79.576C40.723 80.1453 40.8584 80.5887 41.129 80.906C41.409 81.214 41.759 81.368 42.179 81.368ZM49.8305 84.168C49.1118 84.168 48.5051 84.014 48.0105 83.706C47.5251 83.398 47.1611 82.9873 46.9185 82.474C46.6758 81.9607 46.5545 81.4007 46.5545 80.794C46.5545 80.3833 46.6245 79.9867 46.7645 79.604C46.9138 79.212 47.1238 78.8573 47.3945 78.54C47.6651 78.2133 47.9918 77.9567 48.3745 77.77C48.7571 77.5833 49.1911 77.49 49.6765 77.49C50.5351 77.49 51.1791 77.714 51.6085 78.162C52.0471 78.6007 52.2991 79.1607 52.3645 79.842C52.3645 80.1687 52.2711 80.3833 52.0845 80.486C51.9071 80.5887 51.6738 80.64 51.3845 80.64H47.9825C47.9825 81.1813 48.0571 81.6667 48.2065 82.096C48.3558 82.516 48.5891 82.852 48.9065 83.104C49.2331 83.3467 49.6625 83.468 50.1945 83.468C50.5865 83.468 50.9225 83.384 51.2025 83.216C51.4825 83.048 51.7531 82.754 52.0145 82.334C52.0891 82.2407 52.1918 82.236 52.3225 82.32C52.3971 82.3573 52.4438 82.418 52.4625 82.502C52.4811 82.5767 52.4718 82.642 52.4345 82.698C52.1451 83.1553 51.7811 83.5147 51.3425 83.776C50.9038 84.0373 50.3998 84.168 49.8305 84.168ZM47.9825 80.108H50.2645C50.4885 80.108 50.6658 80.066 50.7965 79.982C50.9365 79.8887 51.0111 79.7347 51.0205 79.52C51.0205 79.1187 50.9085 78.764 50.6845 78.456C50.4698 78.1387 50.1338 77.98 49.6765 77.98C49.2098 77.98 48.8178 78.1667 48.5005 78.54C48.1925 78.9133 48.0198 79.436 47.9825 80.108ZM56.0598 84.168C55.3411 84.168 54.7391 84.042 54.2538 83.79C53.7778 83.5287 53.5398 83.1553 53.5398 82.67C53.5398 82.3993 53.6191 82.18 53.7778 82.012C53.9458 81.844 54.1605 81.76 54.4218 81.76C54.5898 81.76 54.7251 81.8067 54.8278 81.9C54.9398 81.984 54.9958 82.0447 54.9958 82.082C54.9958 82.11 54.9398 82.1753 54.8278 82.278C54.7251 82.3713 54.6738 82.5253 54.6738 82.74C54.6738 83.0013 54.7951 83.2207 55.0378 83.398C55.2898 83.566 55.6678 83.65 56.1718 83.65C56.6105 83.65 56.9511 83.5567 57.1938 83.37C57.4458 83.174 57.5718 82.9033 57.5718 82.558C57.5718 82.278 57.4785 82.0633 57.2918 81.914C57.1145 81.7553 56.8811 81.6293 56.5918 81.536C56.3118 81.4427 56.0085 81.3493 55.6818 81.256C55.3645 81.1627 55.0611 81.046 54.7718 80.906C54.4825 80.766 54.2445 80.5747 54.0578 80.332C53.8805 80.08 53.7918 79.7487 53.7918 79.338C53.7918 78.918 53.9178 78.5727 54.1698 78.302C54.4218 78.0313 54.7438 77.8307 55.1358 77.7C55.5278 77.56 55.9245 77.49 56.3258 77.49C56.6711 77.49 56.9978 77.5413 57.3058 77.644C57.6138 77.7373 57.8658 77.882 58.0618 78.078C58.2671 78.274 58.3698 78.5213 58.3698 78.82C58.3698 79.0533 58.2951 79.2633 58.1458 79.45C57.9965 79.6367 57.7911 79.73 57.5298 79.73C57.3618 79.73 57.2218 79.688 57.1098 79.604C57.0071 79.5107 56.9558 79.4453 56.9558 79.408C56.9558 79.3893 56.9885 79.3567 57.0538 79.31C57.1285 79.254 57.1985 79.184 57.2638 79.1C57.3291 79.0067 57.3618 78.89 57.3618 78.75C57.3431 78.4793 57.2125 78.2787 56.9698 78.148C56.7271 78.0173 56.4565 77.952 56.1578 77.952C55.8311 77.952 55.5278 78.0313 55.2478 78.19C54.9678 78.3487 54.8278 78.5773 54.8278 78.876C54.8278 79.1467 54.8838 79.3567 54.9958 79.506C55.1171 79.6553 55.3038 79.786 55.5558 79.898C55.8171 80.0007 56.1531 80.1173 56.5638 80.248C56.9745 80.3787 57.3338 80.514 57.6418 80.654C57.9591 80.794 58.2018 80.9807 58.3698 81.214C58.5471 81.438 58.6358 81.746 58.6358 82.138C58.6358 82.53 58.5238 82.88 58.2998 83.188C58.0758 83.496 57.7678 83.7387 57.3758 83.916C56.9931 84.084 56.5545 84.168 56.0598 84.168Z" fill="white"/>
<ellipse cx="30.1132" cy="37.5073" rx="28.5096" ry="29.5073" fill="white" fill-opacity="0.25"/>
<circle cx="49.3047" cy="12.5" r="12.5" fill="#5EC9FF" fill-opacity="0.5"/>
<g clip-path="url(#clip0_1931_67458)">
<path d="M16.6035 31C16.6035 30.0717 16.9723 29.1815 17.6286 28.5251C18.285 27.8687 19.1753 27.5 20.1035 27.5H41.1035C42.0318 27.5 42.922 27.8687 43.5784 28.5251C44.2348 29.1815 44.6035 30.0717 44.6035 31V45C44.6035 45.9283 44.2348 46.8185 43.5784 47.4749C42.922 48.1313 42.0318 48.5 41.1035 48.5H20.1035C19.1753 48.5 18.285 48.1313 17.6286 47.4749C16.9723 46.8185 16.6035 45.9283 16.6035 45V31ZM20.1035 29.25C19.6394 29.25 19.1943 29.4344 18.8661 29.7626C18.5379 30.0908 18.3535 30.5359 18.3535 31V31.3798L30.6035 38.7297L42.8535 31.3798V31C42.8535 30.5359 42.6691 30.0908 42.341 29.7626C42.0128 29.4344 41.5676 29.25 41.1035 29.25H20.1035ZM42.8535 33.4202L34.6145 38.364L42.8535 43.4337V33.4202ZM42.794 45.4532L32.924 39.379L30.6035 40.7703L28.283 39.379L18.413 45.4515C18.5125 45.8239 18.7321 46.153 19.0377 46.3878C19.3434 46.6226 19.7181 46.7499 20.1035 46.75H41.1035C41.4887 46.75 41.8632 46.623 42.1688 46.3885C42.4745 46.1541 42.6942 45.8253 42.794 45.4532ZM18.3535 43.4337L26.5925 38.364L18.3535 33.4202V43.4337Z" fill="#5EC9FF"/>
</g>
<defs>
<clipPath id="clip0_1931_67458">
<rect width="28" height="28" fill="white" transform="translate(16.6035 24)"/>
</clipPath>
</defs>
</svg>
