<svg width="61" height="67" viewBox="0 0 61 67" fill="none" xmlns="http://www.w3.org/2000/svg">
<ellipse cx="29.1132" cy="37.5" rx="28.5096" ry="29.5073" fill="white" fill-opacity="0.25"/>
<circle cx="48.3047" cy="12.4927" r="12.5" fill="#5EC9FF" fill-opacity="0.5"/>
<g clip-path="url(#clip0_1931_67458)">
<path d="M15.6035 30.9927C15.6035 30.0644 15.9723 29.1742 16.6286 28.5178C17.285 27.8614 18.1753 27.4927 19.1035 27.4927H40.1035C41.0318 27.4927 41.922 27.8614 42.5784 28.5178C43.2348 29.1742 43.6035 30.0644 43.6035 30.9927V44.9927C43.6035 45.9209 43.2348 46.8112 42.5784 47.4675C41.922 48.1239 41.0318 48.4927 40.1035 48.4927H19.1035C18.1753 48.4927 17.285 48.1239 16.6286 47.4675C15.9723 46.8112 15.6035 45.9209 15.6035 44.9927V30.9927ZM19.1035 29.2427C18.6394 29.2427 18.1943 29.4271 17.8661 29.7552C17.5379 30.0834 17.3535 30.5285 17.3535 30.9927V31.3724L29.6035 38.7224L41.8535 31.3724V30.9927C41.8535 30.5285 41.6691 30.0834 41.341 29.7552C41.0128 29.4271 40.5676 29.2427 40.1035 29.2427H19.1035ZM41.8535 33.4129L33.6145 38.3567L41.8535 43.4264V33.4129ZM41.794 45.4459L31.924 39.3717L29.6035 40.7629L27.283 39.3717L17.413 45.4442C17.5125 45.8166 17.7321 46.1457 18.0377 46.3805C18.3434 46.6153 18.7181 46.7426 19.1035 46.7427H40.1035C40.4887 46.7427 40.8632 46.6157 41.1688 46.3812C41.4745 46.1468 41.6942 45.818 41.794 45.4459ZM17.3535 43.4264L25.5925 38.3567L17.3535 33.4129V43.4264Z" fill="#5EC9FF"/>
</g>
<defs>
<clipPath id="clip0_1931_67458">
<rect width="28" height="28" fill="white" transform="translate(15.6035 23.9927)"/>
</clipPath>
</defs>
</svg>
