<svg width="58" height="59" viewBox="0 0 58 59" fill="none" xmlns="http://www.w3.org/2000/svg">
<path d="M28.5684 0.492676C44.0215 0.492745 56.5781 13.4639 56.5781 29.5005C56.5779 45.5369 44.0214 58.5073 28.5684 58.5073C13.1153 58.5073 0.558845 45.5369 0.558594 29.5005C0.558594 13.4638 13.1151 0.492676 28.5684 0.492676Z" fill="white" fill-opacity="0.25" stroke="#5EC9FF"/>
<g clip-path="url(#clip0_4091_24082)">
<path d="M15.0586 22.9927C15.0586 22.0644 15.4273 21.1742 16.0837 20.5178C16.7401 19.8614 17.6303 19.4927 18.5586 19.4927H39.5586C40.4869 19.4927 41.3771 19.8614 42.0335 20.5178C42.6898 21.1742 43.0586 22.0644 43.0586 22.9927V36.9927C43.0586 37.9209 42.6898 38.8112 42.0335 39.4675C41.3771 40.1239 40.4869 40.4927 39.5586 40.4927H18.5586C17.6303 40.4927 16.7401 40.1239 16.0837 39.4675C15.4273 38.8112 15.0586 37.9209 15.0586 36.9927V22.9927ZM18.5586 21.2427C18.0945 21.2427 17.6493 21.4271 17.3212 21.7552C16.993 22.0834 16.8086 22.5285 16.8086 22.9927V23.3724L29.0586 30.7224L41.3086 23.3724V22.9927C41.3086 22.5285 41.1242 22.0834 40.796 21.7552C40.4678 21.4271 40.0227 21.2427 39.5586 21.2427H18.5586ZM41.3086 25.4129L33.0696 30.3567L41.3086 35.4264V25.4129ZM41.2491 37.4459L31.3791 31.3717L29.0586 32.7629L26.7381 31.3717L16.8681 37.4442C16.9675 37.8166 17.1871 38.1457 17.4928 38.3805C17.7985 38.6153 18.1731 38.7426 18.5586 38.7427H39.5586C39.9438 38.7427 40.3183 38.6157 40.6239 38.3812C40.9296 38.1468 41.1493 37.818 41.2491 37.4459ZM16.8086 35.4264L25.0476 30.3567L16.8086 25.4129V35.4264Z" fill="#5EC9FF"/>
</g>
<defs>
<clipPath id="clip0_4091_24082">
<rect width="28" height="28" fill="white" transform="translate(15.0586 15.9927)"/>
</clipPath>
</defs>
</svg>
