<svg width="32" height="32" viewBox="0 0 32 32" fill="none" xmlns="http://www.w3.org/2000/svg">
<path d="M15.9993 17.3327C16.7357 17.3327 17.3327 16.7357 17.3327 15.9993C17.3327 15.263 16.7357 14.666 15.9993 14.666C15.263 14.666 14.666 15.263 14.666 15.9993C14.666 16.7357 15.263 17.3327 15.9993 17.3327Z" fill="white" stroke="white" stroke-width="2" stroke-linecap="round" stroke-linejoin="round"/>
<path d="M15.9993 8.00065C16.7357 8.00065 17.3327 7.4037 17.3327 6.66732C17.3327 5.93094 16.7357 5.33398 15.9993 5.33398C15.263 5.33398 14.666 5.93094 14.666 6.66732C14.666 7.4037 15.263 8.00065 15.9993 8.00065Z" fill="white" stroke="white" stroke-width="2" stroke-linecap="round" stroke-linejoin="round"/>
<path d="M15.9993 26.6667C16.7357 26.6667 17.3327 26.0697 17.3327 25.3333C17.3327 24.597 16.7357 24 15.9993 24C15.263 24 14.666 24.597 14.666 25.3333C14.666 26.0697 15.263 26.6667 15.9993 26.6667Z" fill="white" stroke="white" stroke-width="2" stroke-linecap="round" stroke-linejoin="round"/>
</svg>
