<svg width="157" height="157" viewBox="0 0 157 157" fill="none" xmlns="http://www.w3.org/2000/svg">
<line x1="1.06066" y1="1.93934" x2="155.061" y2="155.939" stroke="white" stroke-width="3"/>
<path d="M96.7988 30.5109C96.7988 35.7622 98.8849 40.7984 102.598 44.5117C106.311 48.2249 111.348 50.3109 116.599 50.3109C121.85 50.3109 126.886 48.2249 130.6 44.5117C134.313 40.7984 136.399 35.7622 136.399 30.5109C136.399 25.2597 134.313 20.2234 130.6 16.5102C126.886 12.797 121.85 10.7109 116.599 10.7109C111.348 10.7109 106.311 12.797 102.598 16.5102C98.8849 20.2234 96.7988 25.2597 96.7988 30.5109Z" stroke="white" stroke-width="4" stroke-linecap="round" stroke-linejoin="round"/>
<path d="M146.3 99.8138V89.9136C146.3 73.5104 133.003 60.2129 116.6 60.2129C105.414 60.2129 95.6729 66.3961 90.6074 75.5308" stroke="white" stroke-width="4" stroke-linecap="round" stroke-linejoin="round"/>
<path d="M17.5996 30.5109C17.5996 35.7622 19.6857 40.7984 23.3989 44.5117C27.1121 48.2249 32.1483 50.3109 37.3996 50.3109C42.6509 50.3109 47.6871 48.2249 51.4003 44.5117C55.1135 40.7984 57.1996 35.7622 57.1996 30.5109C57.1996 25.2597 55.1135 20.2234 51.4003 16.5102C47.6871 12.797 42.6509 10.7109 37.3996 10.7109C32.1483 10.7109 27.1121 12.797 23.3989 16.5102C19.6857 20.2234 17.5996 25.2597 17.5996 30.5109Z" stroke="white" stroke-width="4" stroke-linecap="round" stroke-linejoin="round"/>
<path d="M7.69922 99.8138V89.9136C7.69922 73.5104 20.9967 60.2129 37.3999 60.2129C48.5852 60.2129 58.3264 66.3961 63.3919 75.5308" stroke="white" stroke-width="4" stroke-linecap="round" stroke-linejoin="round"/>
<path d="M57.2109 89.8898C57.2109 95.1411 59.297 100.177 63.0102 103.891C66.7234 107.604 71.7596 109.69 77.0109 109.69C82.2622 109.69 87.2984 107.604 91.0116 103.891C94.7249 100.177 96.8109 95.1411 96.8109 89.8898C96.8109 84.6386 94.7249 79.6024 91.0116 75.8891C87.2984 72.1759 82.2622 70.0898 77.0109 70.0898C71.7596 70.0898 66.7234 72.1759 63.0102 75.8891C59.297 79.6024 57.2109 84.6386 57.2109 89.8898Z" stroke="white" stroke-width="4" stroke-linecap="round" stroke-linejoin="round"/>
<path d="M106.714 149.288C106.714 132.885 93.4162 119.588 77.0131 119.588C60.6099 119.588 47.3125 132.885 47.3125 149.288" stroke="white" stroke-width="4" stroke-linecap="round" stroke-linejoin="round"/>
</svg>
