<svg width="143" height="143" viewBox="0 0 143 143" fill="none" xmlns="http://www.w3.org/2000/svg">
<path d="M2.97852 2.97852L61.7098 61.7098M61.7098 61.7098C63.9868 58.5717 66.9174 55.9648 70.2993 54.0687C73.6813 52.1727 77.4342 51.0327 81.2993 50.7273C85.1645 50.4219 89.0499 50.9584 92.6876 52.2999C96.3254 53.6413 99.6289 55.7556 102.371 58.4972C105.112 61.2388 107.226 64.5424 108.568 68.1801C109.909 71.8179 110.446 75.7032 110.14 79.5684C109.835 83.4335 108.695 87.1865 106.799 90.5684C104.903 93.9504 102.296 96.8809 99.1579 99.1579M61.7098 61.7098L99.1639 99.1639L140.02 140.02M56.6035 77.4577C56.6035 84.5688 59.4284 91.3887 64.4567 96.417C69.485 101.445 76.3049 104.27 83.416 104.27M17.8743 56.6035H35.7493M17.8743 38.7285H2.97852V122.145H101.291M38.7285 38.7285H44.6868C49.4276 38.7285 53.9742 36.8453 57.3264 33.493C60.6786 30.1408 62.5618 25.5943 62.5618 20.8535H104.27C104.27 25.5943 106.153 30.1408 109.506 33.493C112.858 36.8453 117.404 38.7285 122.145 38.7285H140.02V104.27C140.02 109.011 138.137 113.557 134.785 116.91C131.432 120.262 126.886 122.145 122.145 122.145" stroke="white" stroke-width="5"/>
</svg>
