<svg width="61" height="67" viewBox="0 0 61 67" fill="none" xmlns="http://www.w3.org/2000/svg">
<ellipse cx="28.5096" cy="37.5" rx="28.5096" ry="29.5073" fill="white" fill-opacity="0.25"/>
<circle cx="47.7012" cy="12.4927" r="12.5" fill="#FEEDB6" fill-opacity="0.5"/>
<path d="M43.654 16.2727C42.7767 16.2727 42.072 16.002 41.54 15.4607C41.008 14.91 40.742 14.154 40.742 13.1927C40.742 12.4273 40.924 11.7227 41.288 11.0787C41.652 10.4253 42.156 9.87934 42.8 9.44068C43.444 8.99268 44.1907 8.69401 45.04 8.54468C45.1893 8.52601 45.306 8.53068 45.39 8.55868C45.4833 8.57734 45.53 8.65201 45.53 8.78268C45.53 8.82934 45.5113 8.88534 45.474 8.95068C45.446 9.00668 45.3807 9.04868 45.278 9.07668C44.382 9.35668 43.6867 9.74401 43.192 10.2387C42.7067 10.7333 42.3847 11.3027 42.226 11.9467C42.5527 11.732 42.8653 11.5873 43.164 11.5127C43.4627 11.4287 43.7707 11.3867 44.088 11.3867C44.5453 11.3867 44.956 11.4893 45.32 11.6947C45.684 11.8907 45.9733 12.1613 46.188 12.5067C46.412 12.852 46.524 13.2533 46.524 13.7107C46.524 14.224 46.384 14.6767 46.104 15.0687C45.8333 15.4513 45.4787 15.75 45.04 15.9647C44.6107 16.17 44.1487 16.2727 43.654 16.2727ZM43.654 15.8247C44.0927 15.8247 44.4567 15.6427 44.746 15.2787C45.0353 14.9147 45.18 14.434 45.18 13.8367C45.18 13.286 45.0353 12.8473 44.746 12.5207C44.4567 12.1847 44.0787 12.0167 43.612 12.0167C43.3787 12.0167 43.1313 12.0773 42.87 12.1987C42.618 12.3107 42.3847 12.4647 42.17 12.6607C42.1607 12.7167 42.142 12.796 42.114 12.8987C42.0953 13.0013 42.086 13.104 42.086 13.2067C42.086 13.4493 42.1093 13.72 42.156 14.0187C42.212 14.3173 42.296 14.6067 42.408 14.8867C42.5293 15.1573 42.688 15.3813 42.884 15.5587C43.0893 15.736 43.346 15.8247 43.654 15.8247ZM50.777 16.2727C49.8997 16.2727 49.195 16.002 48.663 15.4607C48.131 14.91 47.865 14.154 47.865 13.1927C47.865 12.4273 48.047 11.7227 48.411 11.0787C48.775 10.4253 49.279 9.87934 49.923 9.44068C50.567 8.99268 51.3137 8.69401 52.163 8.54468C52.3124 8.52601 52.429 8.53068 52.513 8.55868C52.6064 8.57734 52.653 8.65201 52.653 8.78268C52.653 8.82934 52.6344 8.88534 52.597 8.95068C52.569 9.00668 52.5037 9.04868 52.401 9.07668C51.505 9.35668 50.8097 9.74401 50.315 10.2387C49.8297 10.7333 49.5077 11.3027 49.349 11.9467C49.6757 11.732 49.9884 11.5873 50.287 11.5127C50.5857 11.4287 50.8937 11.3867 51.211 11.3867C51.6684 11.3867 52.079 11.4893 52.443 11.6947C52.807 11.8907 53.0964 12.1613 53.311 12.5067C53.535 12.852 53.647 13.2533 53.647 13.7107C53.647 14.224 53.507 14.6767 53.227 15.0687C52.9564 15.4513 52.6017 15.75 52.163 15.9647C51.7337 16.17 51.2717 16.2727 50.777 16.2727ZM50.777 15.8247C51.2157 15.8247 51.5797 15.6427 51.869 15.2787C52.1584 14.9147 52.303 14.434 52.303 13.8367C52.303 13.286 52.1584 12.8473 51.869 12.5207C51.5797 12.1847 51.2017 12.0167 50.735 12.0167C50.5017 12.0167 50.2544 12.0773 49.993 12.1987C49.741 12.3107 49.5077 12.4647 49.293 12.6607C49.2837 12.7167 49.265 12.796 49.237 12.8987C49.2184 13.0013 49.209 13.104 49.209 13.2067C49.209 13.4493 49.2324 13.72 49.279 14.0187C49.335 14.3173 49.419 14.6067 49.531 14.8867C49.6524 15.1573 49.811 15.3813 50.007 15.5587C50.2124 15.736 50.469 15.8247 50.777 15.8247Z" fill="white"/>
<path d="M38.334 28.6595V42.6595H24.334V28.6595H38.334ZM38.334 26.3262H24.334C23.0507 26.3262 22.0007 27.3762 22.0007 28.6595V42.6595C22.0007 43.9428 23.0507 44.9928 24.334 44.9928H38.334C39.6173 44.9928 40.6673 43.9428 40.6673 42.6595V28.6595C40.6673 27.3762 39.6173 26.3262 38.334 26.3262ZM28.4173 37.6078L30.389 40.2445L33.2823 36.6278L37.1673 41.4928H25.5007L28.4173 37.6078ZM17.334 30.9928V47.3262C17.334 48.6095 18.384 49.6595 19.6673 49.6595H36.0007V47.3262H19.6673V30.9928H17.334Z" fill="#FEEDB6"/>
</svg>
