<svg width="58" height="59" viewBox="0 0 58 59" fill="none" xmlns="http://www.w3.org/2000/svg">
<path d="M28.5098 0.492676C43.9629 0.492745 56.5195 13.4639 56.5195 29.5005C56.5193 45.5369 43.9628 58.5073 28.5098 58.5073C13.0567 58.5073 0.500251 45.5369 0.5 29.5005C0.5 13.4638 13.0565 0.492676 28.5098 0.492676Z" fill="white" fill-opacity="0.25" stroke="#FEEDB6"/>
<path d="M38.334 20.6595V34.6595H24.334V20.6595H38.334ZM38.334 18.3262H24.334C23.0507 18.3262 22.0007 19.3762 22.0007 20.6595V34.6595C22.0007 35.9428 23.0507 36.9928 24.334 36.9928H38.334C39.6173 36.9928 40.6673 35.9428 40.6673 34.6595V20.6595C40.6673 19.3762 39.6173 18.3262 38.334 18.3262ZM28.4173 29.6078L30.389 32.2445L33.2823 28.6278L37.1673 33.4928H25.5007L28.4173 29.6078ZM17.334 22.9928V39.3262C17.334 40.6095 18.384 41.6595 19.6673 41.6595H36.0007V39.3262H19.6673V22.9928H17.334Z" fill="#FEEDB6"/>
</svg>
