<svg width="61" height="91" viewBox="0 0 61 91" fill="none" xmlns="http://www.w3.org/2000/svg">
<path d="M6.84 84.9629C6.756 84.9629 6.69067 84.9302 6.644 84.8649C6.60667 84.7996 6.588 84.7296 6.588 84.6549C6.59733 84.4962 6.63467 84.4076 6.7 84.3889C6.77467 84.3702 6.85867 84.3609 6.952 84.3609C7.25067 84.3609 7.46067 84.3096 7.582 84.2069C7.70333 84.0949 7.778 83.9596 7.806 83.8009C7.84333 83.6329 7.862 83.4602 7.862 83.2829V77.7249C7.862 77.5476 7.84333 77.3796 7.806 77.2209C7.778 77.0529 7.70333 76.9176 7.582 76.8149C7.46067 76.7029 7.25067 76.6469 6.952 76.6469C6.85867 76.6469 6.77467 76.6376 6.7 76.6189C6.63467 76.6002 6.59733 76.5116 6.588 76.3529C6.588 76.2782 6.60667 76.2082 6.644 76.1429C6.69067 76.0776 6.756 76.0449 6.84 76.0449C7.13867 76.0542 7.42333 76.0636 7.694 76.0729C7.96467 76.0822 8.24 76.0869 8.52 76.0869H10.62C10.7973 76.0869 11.026 76.1009 11.306 76.1289C11.5953 76.1569 11.8987 76.2129 12.216 76.2969C12.5427 76.3809 12.8507 76.5162 13.14 76.7029C13.4293 76.8896 13.6627 77.1369 13.84 77.4449C14.0267 77.7529 14.12 78.1402 14.12 78.6069C14.12 79.0456 14.0173 79.4422 13.812 79.7969C13.616 80.1516 13.35 80.4549 13.014 80.7069C12.6873 80.9589 12.314 81.1549 11.894 81.2949C11.4833 81.4256 11.0633 81.4909 10.634 81.4909C10.4287 81.4909 10.2047 81.4769 9.962 81.4489C9.71933 81.4209 9.47667 81.3602 9.234 81.2669V83.2829C9.24333 83.4602 9.262 83.6329 9.29 83.8009C9.318 83.9596 9.39267 84.0949 9.514 84.2069C9.64467 84.3096 9.85467 84.3609 10.144 84.3609C10.2467 84.3609 10.3307 84.3702 10.396 84.3889C10.4613 84.4076 10.4987 84.4962 10.508 84.6549C10.508 84.7296 10.4847 84.7996 10.438 84.8649C10.4007 84.9302 10.34 84.9629 10.256 84.9629C9.65867 84.9349 9.07533 84.9209 8.506 84.9209C8.226 84.9209 7.95067 84.9209 7.68 84.9209C7.41867 84.9302 7.13867 84.9442 6.84 84.9629ZM10.228 80.8609C10.4427 80.8609 10.6807 80.8282 10.942 80.7629C11.2127 80.6882 11.4693 80.5716 11.712 80.4129C11.964 80.2449 12.1693 80.0209 12.328 79.7409C12.4867 79.4516 12.566 79.0876 12.566 78.6489C12.566 78.1729 12.4727 77.7996 12.286 77.5289C12.0993 77.2489 11.866 77.0436 11.586 76.9129C11.3153 76.7822 11.0447 76.6982 10.774 76.6609C10.5033 76.6236 10.284 76.6049 10.116 76.6049C9.892 76.6049 9.71467 76.6282 9.584 76.6749C9.45333 76.7216 9.36 76.8242 9.304 76.9829C9.25733 77.1322 9.234 77.3656 9.234 77.6829V80.7069C9.32733 80.7442 9.46267 80.7816 9.64 80.8189C9.81733 80.8469 10.0133 80.8609 10.228 80.8609ZM14.7901 84.9629C14.7155 84.9629 14.6595 84.9349 14.6221 84.8789C14.5848 84.8136 14.5661 84.7482 14.5661 84.6829C14.5755 84.5429 14.6081 84.4682 14.6641 84.4589C14.7295 84.4402 14.8041 84.4309 14.8881 84.4309C15.1495 84.4309 15.3268 84.3889 15.4201 84.3049C15.5228 84.2116 15.5788 84.0902 15.5881 83.9409C15.6068 83.7916 15.6161 83.6376 15.6161 83.4789V76.6469C15.6161 76.4789 15.6068 76.3249 15.5881 76.1849C15.5788 76.0356 15.5275 75.9189 15.4341 75.8349C15.3408 75.7416 15.1635 75.6949 14.9021 75.6949C14.8181 75.6949 14.7388 75.6856 14.6641 75.6669C14.5988 75.6389 14.5661 75.5549 14.5661 75.4149C14.5661 75.2749 14.6408 75.1909 14.7901 75.1629C15.2195 75.0976 15.5461 75.0322 15.7701 74.9669C16.0035 74.9016 16.1808 74.8456 16.3021 74.7989C16.4235 74.7429 16.5308 74.7149 16.6241 74.7149C16.6988 74.7149 16.7595 74.7336 16.8061 74.7709C16.8621 74.7989 16.8901 74.8689 16.8901 74.9809V79.4889H16.9181C17.1048 79.3116 17.2961 79.1436 17.4921 78.9849C17.6881 78.8169 17.9168 78.6816 18.1781 78.5789C18.4488 78.4669 18.7801 78.4109 19.1721 78.4109C19.8068 78.4109 20.3108 78.6022 20.6841 78.9849C21.0575 79.3676 21.2441 79.8716 21.2441 80.4969V83.4789C21.2441 83.6376 21.2488 83.7916 21.2581 83.9409C21.2768 84.0902 21.3328 84.2116 21.4261 84.3049C21.5288 84.3889 21.7061 84.4309 21.9581 84.4309C22.0515 84.4309 22.1261 84.4402 22.1821 84.4589C22.2381 84.4682 22.2708 84.5429 22.2801 84.6829C22.2801 84.7482 22.2615 84.8136 22.2241 84.8789C22.1961 84.9349 22.1448 84.9629 22.0701 84.9629C21.7995 84.9442 21.5475 84.9302 21.3141 84.9209C21.0808 84.9209 20.8428 84.9209 20.6001 84.9209C20.3481 84.9209 20.1101 84.9209 19.8861 84.9209C19.6621 84.9302 19.4148 84.9442 19.1441 84.9629C19.0695 84.9629 19.0135 84.9349 18.9761 84.8789C18.9388 84.8136 18.9201 84.7482 18.9201 84.6829C18.9295 84.5429 18.9621 84.4682 19.0181 84.4589C19.0741 84.4402 19.1488 84.4309 19.2421 84.4309C19.5035 84.4309 19.6808 84.3889 19.7741 84.3049C19.8768 84.2116 19.9328 84.0902 19.9421 83.9409C19.9515 83.7916 19.9561 83.6376 19.9561 83.4789V80.5109C19.9561 80.0442 19.8161 79.7082 19.5361 79.5029C19.2561 79.2882 18.9528 79.1809 18.6261 79.1809C18.3088 79.1809 18.0288 79.2416 17.7861 79.3629C17.5435 79.4749 17.3475 79.6056 17.1981 79.7549C17.0488 79.9042 16.9461 80.0349 16.8901 80.1469V83.4789C16.8901 83.6376 16.8948 83.7916 16.9041 83.9409C16.9228 84.0902 16.9788 84.2116 17.0721 84.3049C17.1748 84.3889 17.3521 84.4309 17.6041 84.4309C17.6975 84.4309 17.7721 84.4402 17.8281 84.4589C17.8841 84.4682 17.9168 84.5429 17.9261 84.6829C17.9261 84.7482 17.9075 84.8136 17.8701 84.8789C17.8421 84.9349 17.7908 84.9629 17.7161 84.9629C17.4455 84.9442 17.1935 84.9302 16.9601 84.9209C16.7268 84.9209 16.4888 84.9209 16.2461 84.9209C15.9941 84.9209 15.7561 84.9209 15.5321 84.9209C15.3081 84.9302 15.0608 84.9442 14.7901 84.9629ZM26.2696 85.0889C25.6163 85.0889 25.0423 84.9349 24.5476 84.6269C24.0623 84.3189 23.6843 83.9176 23.4136 83.4229C23.1429 82.9282 23.0076 82.4009 23.0076 81.8409C23.0076 81.2902 23.1056 80.8002 23.3016 80.3709C23.4976 79.9416 23.7543 79.5822 24.0716 79.2929C24.3983 79.0036 24.7529 78.7842 25.1356 78.6349C25.5183 78.4856 25.8963 78.4109 26.2696 78.4109C26.9229 78.4109 27.4923 78.5649 27.9776 78.8729C28.4723 79.1809 28.8549 79.5822 29.1256 80.0769C29.3963 80.5716 29.5316 81.0989 29.5316 81.6589C29.5316 82.2096 29.4289 82.6996 29.2236 83.1289C29.0276 83.5582 28.7663 83.9176 28.4396 84.2069C28.1223 84.4962 27.7723 84.7156 27.3896 84.8649C27.0069 85.0142 26.6336 85.0889 26.2696 85.0889ZM26.2696 84.5709C26.7269 84.5709 27.0863 84.4356 27.3476 84.1649C27.6183 83.8942 27.8096 83.5396 27.9216 83.1009C28.0429 82.6529 28.1036 82.1722 28.1036 81.6589C28.1036 81.1642 28.0429 80.7116 27.9216 80.3009C27.8003 79.8902 27.6043 79.5589 27.3336 79.3069C27.0629 79.0549 26.7083 78.9289 26.2696 78.9289C25.8123 78.9289 25.4483 79.0642 25.1776 79.3349C24.9069 79.5962 24.7156 79.9462 24.6036 80.3849C24.4916 80.8142 24.4356 81.2902 24.4356 81.8129C24.4356 82.2982 24.4916 82.7509 24.6036 83.1709C24.7249 83.5909 24.9209 83.9316 25.1916 84.1929C25.4623 84.4449 25.8216 84.5709 26.2696 84.5709ZM33.0592 85.1589C32.7792 85.1589 32.5132 85.0889 32.2612 84.9489C32.0092 84.8089 31.7992 84.5942 31.6312 84.3049C31.4725 84.0156 31.3932 83.6516 31.3932 83.2129V79.0969L30.5812 79.1249C30.5158 79.1249 30.4645 79.1016 30.4272 79.0549C30.3992 78.9989 30.3852 78.9382 30.3852 78.8729C30.3852 78.6862 30.4505 78.5789 30.5812 78.5509C30.9265 78.4856 31.1878 78.3782 31.3652 78.2289C31.5425 78.0702 31.6778 77.8836 31.7712 77.6689C31.8738 77.4542 31.9672 77.2209 32.0512 76.9689C32.0792 76.8942 32.1212 76.8476 32.1772 76.8289C32.2332 76.8009 32.2938 76.7869 32.3592 76.7869C32.4152 76.7869 32.4758 76.8009 32.5412 76.8289C32.6158 76.8569 32.6532 76.9082 32.6532 76.9829L32.5552 78.5789L34.1932 78.4809C34.2772 78.4716 34.3332 78.4949 34.3612 78.5509C34.3892 78.6069 34.4032 78.6722 34.4032 78.7469C34.4032 78.8402 34.3845 78.9336 34.3472 79.0269C34.3192 79.1202 34.2818 79.1669 34.2352 79.1669L32.6672 79.1249V83.3809C32.6672 83.6516 32.7232 83.8989 32.8352 84.1229C32.9565 84.3469 33.1712 84.4589 33.4792 84.4589C33.5818 84.4589 33.6985 84.4496 33.8292 84.4309C33.9598 84.4122 34.0998 84.3702 34.2492 84.3049C34.2865 84.2862 34.3238 84.2722 34.3612 84.2629C34.3985 84.2442 34.4358 84.2349 34.4732 84.2349C34.5478 84.2349 34.6038 84.2676 34.6412 84.3329C34.6785 84.3889 34.7112 84.4496 34.7392 84.5149C34.7672 84.5989 34.7438 84.6642 34.6692 84.7109C34.3798 84.8976 34.1138 85.0189 33.8712 85.0749C33.6285 85.1309 33.3578 85.1589 33.0592 85.1589ZM39.1758 85.0889C38.5225 85.0889 37.9485 84.9349 37.4538 84.6269C36.9685 84.3189 36.5905 83.9176 36.3198 83.4229C36.0492 82.9282 35.9138 82.4009 35.9138 81.8409C35.9138 81.2902 36.0118 80.8002 36.2078 80.3709C36.4038 79.9416 36.6605 79.5822 36.9778 79.2929C37.3045 79.0036 37.6592 78.7842 38.0418 78.6349C38.4245 78.4856 38.8025 78.4109 39.1758 78.4109C39.8292 78.4109 40.3985 78.5649 40.8838 78.8729C41.3785 79.1809 41.7612 79.5822 42.0318 80.0769C42.3025 80.5716 42.4378 81.0989 42.4378 81.6589C42.4378 82.2096 42.3352 82.6996 42.1298 83.1289C41.9338 83.5582 41.6725 83.9176 41.3458 84.2069C41.0285 84.4962 40.6785 84.7156 40.2958 84.8649C39.9132 85.0142 39.5398 85.0889 39.1758 85.0889ZM39.1758 84.5709C39.6332 84.5709 39.9925 84.4356 40.2538 84.1649C40.5245 83.8942 40.7158 83.5396 40.8278 83.1009C40.9492 82.6529 41.0098 82.1722 41.0098 81.6589C41.0098 81.1642 40.9492 80.7116 40.8278 80.3009C40.7065 79.8902 40.5105 79.5589 40.2398 79.3069C39.9692 79.0549 39.6145 78.9289 39.1758 78.9289C38.7185 78.9289 38.3545 79.0642 38.0838 79.3349C37.8132 79.5962 37.6218 79.9462 37.5098 80.3849C37.3978 80.8142 37.3418 81.2902 37.3418 81.8129C37.3418 82.2982 37.3978 82.7509 37.5098 83.1709C37.6312 83.5909 37.8272 83.9316 38.0978 84.1929C38.3685 84.4449 38.7278 84.5709 39.1758 84.5709ZM43.3683 78.4669C43.275 78.4949 43.1956 78.4809 43.1303 78.4249C43.0743 78.3689 43.0463 78.2989 43.0463 78.2149C43.0463 78.1309 43.093 78.0702 43.1863 78.0329C43.9796 77.7342 44.3763 77.3189 44.3763 76.7869C44.3763 76.6189 44.3203 76.4836 44.2083 76.3809C44.1056 76.2689 43.9843 76.1756 43.8443 76.1009C43.7136 76.0169 43.5923 75.9236 43.4803 75.8209C43.3776 75.7182 43.3263 75.5876 43.3263 75.4289C43.3263 75.2516 43.3916 75.0929 43.5223 74.9529C43.6623 74.8036 43.8303 74.7289 44.0263 74.7289C44.297 74.7289 44.5396 74.8129 44.7543 74.9809C44.969 75.1489 45.137 75.3636 45.2583 75.6249C45.3796 75.8769 45.4403 76.1336 45.4403 76.3949C45.4403 76.7776 45.333 77.1089 45.1183 77.3889C44.913 77.6596 44.6516 77.8836 44.3343 78.0609C44.017 78.2382 43.695 78.3736 43.3683 78.4669ZM48.5774 85.0889C47.8587 85.0889 47.2567 84.9629 46.7714 84.7109C46.2954 84.4496 46.0574 84.0762 46.0574 83.5909C46.0574 83.3202 46.1367 83.1009 46.2954 82.9329C46.4634 82.7649 46.6781 82.6809 46.9394 82.6809C47.1074 82.6809 47.2427 82.7276 47.3454 82.8209C47.4574 82.9049 47.5134 82.9656 47.5134 83.0029C47.5134 83.0309 47.4574 83.0962 47.3454 83.1989C47.2427 83.2922 47.1914 83.4462 47.1914 83.6609C47.1914 83.9222 47.3127 84.1416 47.5554 84.3189C47.8074 84.4869 48.1854 84.5709 48.6894 84.5709C49.1281 84.5709 49.4687 84.4776 49.7114 84.2909C49.9634 84.0949 50.0894 83.8242 50.0894 83.4789C50.0894 83.1989 49.9961 82.9842 49.8094 82.8349C49.6321 82.6762 49.3987 82.5502 49.1094 82.4569C48.8294 82.3636 48.5261 82.2702 48.1994 82.1769C47.8821 82.0836 47.5787 81.9669 47.2894 81.8269C47.0001 81.6869 46.7621 81.4956 46.5754 81.2529C46.3981 81.0009 46.3094 80.6696 46.3094 80.2589C46.3094 79.8389 46.4354 79.4936 46.6874 79.2229C46.9394 78.9522 47.2614 78.7516 47.6534 78.6209C48.0454 78.4809 48.4421 78.4109 48.8434 78.4109C49.1887 78.4109 49.5154 78.4622 49.8234 78.5649C50.1314 78.6582 50.3834 78.8029 50.5794 78.9989C50.7847 79.1949 50.8874 79.4422 50.8874 79.7409C50.8874 79.9742 50.8127 80.1842 50.6634 80.3709C50.5141 80.5576 50.3087 80.6509 50.0474 80.6509C49.8794 80.6509 49.7394 80.6089 49.6274 80.5249C49.5247 80.4316 49.4734 80.3662 49.4734 80.3289C49.4734 80.3102 49.5061 80.2776 49.5714 80.2309C49.6461 80.1749 49.7161 80.1049 49.7814 80.0209C49.8467 79.9276 49.8794 79.8109 49.8794 79.6709C49.8607 79.4002 49.7301 79.1996 49.4874 79.0689C49.2447 78.9382 48.9741 78.8729 48.6754 78.8729C48.3487 78.8729 48.0454 78.9522 47.7654 79.1109C47.4854 79.2696 47.3454 79.4982 47.3454 79.7969C47.3454 80.0676 47.4014 80.2776 47.5134 80.4269C47.6347 80.5762 47.8214 80.7069 48.0734 80.8189C48.3347 80.9216 48.6707 81.0382 49.0814 81.1689C49.4921 81.2996 49.8514 81.4349 50.1594 81.5749C50.4767 81.7149 50.7194 81.9016 50.8874 82.1349C51.0647 82.3589 51.1534 82.6669 51.1534 83.0589C51.1534 83.4509 51.0414 83.8009 50.8174 84.1089C50.5934 84.4169 50.2854 84.6596 49.8934 84.8369C49.5107 85.0049 49.0721 85.0889 48.5774 85.0889Z" fill="white"/>
<ellipse cx="28.5096" cy="38.4282" rx="28.5096" ry="29.5073" fill="white" fill-opacity="0.25"/>
<circle cx="47.7012" cy="13.4209" r="12.5" fill="#FEEDB6" fill-opacity="0.5"/>
<path d="M38.334 29.5877V43.5877H24.334V29.5877H38.334ZM38.334 27.2544H24.334C23.0507 27.2544 22.0007 28.3044 22.0007 29.5877V43.5877C22.0007 44.8711 23.0507 45.9211 24.334 45.9211H38.334C39.6173 45.9211 40.6673 44.8711 40.6673 43.5877V29.5877C40.6673 28.3044 39.6173 27.2544 38.334 27.2544ZM28.4173 38.5361L30.389 41.1727L33.2823 37.5561L37.1673 42.4211H25.5007L28.4173 38.5361ZM17.334 31.9211V48.2544C17.334 49.5377 18.384 50.5877 19.6673 50.5877H36.0007V48.2544H19.6673V31.9211H17.334Z" fill="#FEEDB6"/>
</svg>
