<svg width="61" height="67" viewBox="0 0 61 67" fill="none" xmlns="http://www.w3.org/2000/svg">
<ellipse cx="28.5096" cy="37.5" rx="28.5096" ry="29.5073" fill="white" fill-opacity="0.25"/>
<circle cx="47.7012" cy="12.4927" r="12.5" fill="#FEEDB6" fill-opacity="0.5"/>
<path d="M38.334 28.6595V42.6595H24.334V28.6595H38.334ZM38.334 26.3262H24.334C23.0507 26.3262 22.0007 27.3762 22.0007 28.6595V42.6595C22.0007 43.9428 23.0507 44.9928 24.334 44.9928H38.334C39.6173 44.9928 40.6673 43.9428 40.6673 42.6595V28.6595C40.6673 27.3762 39.6173 26.3262 38.334 26.3262ZM28.4173 37.6078L30.389 40.2445L33.2823 36.6278L37.1673 41.4928H25.5007L28.4173 37.6078ZM17.334 30.9928V47.3262C17.334 48.6095 18.384 49.6595 19.6673 49.6595H36.0007V47.3262H19.6673V30.9928H17.334Z" fill="#FEEDB6"/>
</svg>
