<svg width="24" height="22" viewBox="0 0 24 22" fill="none" xmlns="http://www.w3.org/2000/svg">
<path d="M11.1521 17.3561L7.76806 15.6641M7.76806 15.6641L1 19.0482V4.38403L7.76806 1M7.76806 15.6641V1M7.76806 1L14.5361 4.38403M14.5361 4.38403L21.3042 1V10.5881M14.5361 4.38403V12.8441" stroke="#C4C4C4" stroke-width="2" stroke-linecap="round" stroke-linejoin="round"/>
<g clip-path="url(#clip0_1931_32090)">
<path d="M18.2715 18.1458C18.2715 18.0153 18.3066 17.8873 18.373 17.775C18.4395 17.6627 18.5348 17.5702 18.6491 17.5073C18.7634 17.4444 18.8925 17.4133 19.0229 17.4173C19.1533 17.4213 19.2803 17.4602 19.3906 17.53C19.5008 17.5998 19.5903 17.6978 19.6498 17.814C19.7092 17.9301 19.7364 18.0601 19.7285 18.1903C19.7206 18.3206 19.6779 18.4463 19.6048 18.5544C19.5318 18.6625 19.431 18.749 19.3132 18.805V19.0833C19.3132 19.1662 19.2802 19.2457 19.2216 19.3043C19.163 19.3629 19.0835 19.3958 19.0007 19.3958C18.9178 19.3958 18.8383 19.3629 18.7797 19.3043C18.7211 19.2457 18.6882 19.1662 18.6882 19.0833V18.805C18.5634 18.7458 18.4581 18.6525 18.3843 18.5358C18.3105 18.4191 18.2714 18.2838 18.2715 18.1458Z" fill="#C4C4C4"/>
<g filter="url(#filter0_d_1931_32090)">
<path d="M17.0215 14.9167C17.0215 14.3918 17.23 13.8884 17.6012 13.5172C17.9723 13.146 18.4757 12.9375 19.0007 12.9375C19.5256 12.9375 20.029 13.146 20.4001 13.5172C20.7713 13.8884 20.9798 14.3918 20.9798 14.9167V15.8983C21.1215 15.9225 21.2523 15.9608 21.3769 16.0246C21.6707 16.1744 21.9096 16.4133 22.0594 16.7071C22.154 16.8925 22.1932 17.0925 22.2119 17.32C22.2298 17.5412 22.2298 17.8146 22.2298 18.1533V18.7633C22.2298 19.1021 22.2298 19.3754 22.2119 19.5967C22.1932 19.8242 22.1536 20.0242 22.0594 20.2092C21.9097 20.5034 21.6706 20.7426 21.3765 20.8925C21.1915 20.9867 20.9915 21.0258 20.764 21.0446C20.5427 21.0625 20.2694 21.0625 19.9307 21.0625H18.0707C17.7319 21.0625 17.4586 21.0625 17.2373 21.0446C17.0098 21.0258 16.8098 20.9862 16.6248 20.8921C16.3306 20.7423 16.0914 20.5033 15.9415 20.2092C15.8473 20.0242 15.8082 19.8242 15.7894 19.5967C15.7715 19.3754 15.7715 19.1021 15.7715 18.7633V18.1533C15.7715 17.8146 15.7715 17.5412 15.7894 17.32C15.8082 17.0925 15.8477 16.8925 15.9419 16.7075C16.0916 16.4133 16.3307 16.1741 16.6248 16.0242C16.7499 15.9623 16.8836 15.9199 17.0215 15.8983V14.9167ZM20.3548 14.9167C20.3548 14.5575 20.2121 14.2131 19.9582 13.9591C19.7042 13.7052 19.3598 13.5625 19.0007 13.5625C18.6415 13.5625 18.2971 13.7052 18.0431 13.9591C17.7892 14.2131 17.6465 14.5575 17.6465 14.9167V15.8558C17.7751 15.8544 17.9165 15.8539 18.0707 15.8542H19.9307C20.0851 15.8539 20.2265 15.8544 20.3548 15.8558V14.9167ZM17.2882 16.495C17.0994 16.5104 16.9907 16.5396 16.9086 16.5812C16.732 16.6712 16.5885 16.8147 16.4986 16.9912C16.4569 17.0733 16.4277 17.1821 16.4123 17.3712C16.3969 17.5637 16.3965 17.8112 16.3965 18.1667V18.75C16.3965 19.105 16.3965 19.3529 16.4123 19.5458C16.4277 19.7346 16.4569 19.8433 16.4986 19.9258C16.5886 20.1021 16.7319 20.2454 16.9086 20.3354C16.9907 20.3771 17.0994 20.4062 17.2886 20.4217C17.4811 20.4371 17.729 20.4375 18.084 20.4375H19.9173C20.2727 20.4375 20.5202 20.4375 20.7132 20.4217C20.9019 20.4058 21.0107 20.3771 21.0932 20.3354C21.2694 20.2454 21.4127 20.1021 21.5027 19.9258C21.5444 19.8433 21.5736 19.7346 21.589 19.5454C21.6044 19.3529 21.6048 19.105 21.6048 18.75V18.1667C21.6048 17.8112 21.6048 17.5638 21.589 17.3708C21.5732 17.1821 21.5444 17.0733 21.5027 16.9908C21.4129 16.8145 21.2695 16.6711 21.0932 16.5812C21.0107 16.5396 20.9019 16.5104 20.7127 16.495C20.5202 16.4796 20.2723 16.4792 19.9173 16.4792H18.084C17.729 16.4792 17.4811 16.4792 17.2882 16.495Z" fill="#C4C4C4"/>
<path d="M17.0215 14.9167C17.0215 14.3918 17.23 13.8884 17.6012 13.5172C17.9723 13.146 18.4757 12.9375 19.0007 12.9375C19.5256 12.9375 20.029 13.146 20.4001 13.5172C20.7713 13.8884 20.9798 14.3918 20.9798 14.9167V15.8983C21.1215 15.9225 21.2523 15.9608 21.3769 16.0246C21.6707 16.1744 21.9096 16.4133 22.0594 16.7071C22.154 16.8925 22.1932 17.0925 22.2119 17.32C22.2298 17.5412 22.2298 17.8146 22.2298 18.1533V18.7633C22.2298 19.1021 22.2298 19.3754 22.2119 19.5967C22.1932 19.8242 22.1536 20.0242 22.0594 20.2092C21.9097 20.5034 21.6706 20.7426 21.3765 20.8925C21.1915 20.9867 20.9915 21.0258 20.764 21.0446C20.5427 21.0625 20.2694 21.0625 19.9307 21.0625H18.0707C17.7319 21.0625 17.4586 21.0625 17.2373 21.0446C17.0098 21.0258 16.8098 20.9862 16.6248 20.8921C16.3306 20.7423 16.0914 20.5033 15.9415 20.2092C15.8473 20.0242 15.8082 19.8242 15.7894 19.5967C15.7715 19.3754 15.7715 19.1021 15.7715 18.7633V18.1533C15.7715 17.8146 15.7715 17.5412 15.7894 17.32C15.8082 17.0925 15.8477 16.8925 15.9419 16.7075C16.0916 16.4133 16.3307 16.1741 16.6248 16.0242C16.7499 15.9623 16.8836 15.9199 17.0215 15.8983V14.9167ZM20.3548 14.9167C20.3548 14.5575 20.2121 14.2131 19.9582 13.9591C19.7042 13.7052 19.3598 13.5625 19.0007 13.5625C18.6415 13.5625 18.2971 13.7052 18.0431 13.9591C17.7892 14.2131 17.6465 14.5575 17.6465 14.9167V15.8558C17.7751 15.8544 17.9165 15.8539 18.0707 15.8542H19.9307C20.0851 15.8539 20.2265 15.8544 20.3548 15.8558V14.9167ZM17.2882 16.495C17.0994 16.5104 16.9907 16.5396 16.9086 16.5812C16.732 16.6712 16.5885 16.8147 16.4986 16.9912C16.4569 17.0733 16.4277 17.1821 16.4123 17.3712C16.3969 17.5637 16.3965 17.8112 16.3965 18.1667V18.75C16.3965 19.105 16.3965 19.3529 16.4123 19.5458C16.4277 19.7346 16.4569 19.8433 16.4986 19.9258C16.5886 20.1021 16.7319 20.2454 16.9086 20.3354C16.9907 20.3771 17.0994 20.4062 17.2886 20.4217C17.4811 20.4371 17.729 20.4375 18.084 20.4375H19.9173C20.2727 20.4375 20.5202 20.4375 20.7132 20.4217C20.9019 20.4058 21.0107 20.3771 21.0932 20.3354C21.2694 20.2454 21.4127 20.1021 21.5027 19.9258C21.5444 19.8433 21.5736 19.7346 21.589 19.5454C21.6044 19.3529 21.6048 19.105 21.6048 18.75V18.1667C21.6048 17.8112 21.6048 17.5638 21.589 17.3708C21.5732 17.1821 21.5444 17.0733 21.5027 16.9908C21.4129 16.8145 21.2695 16.6711 21.0932 16.5812C21.0107 16.5396 20.9019 16.5104 20.7127 16.495C20.5202 16.4796 20.2723 16.4792 19.9173 16.4792H18.084C17.729 16.4792 17.4811 16.4792 17.2882 16.495Z" stroke="#C4C4C4" stroke-width="0.6"/>
</g>
</g>
<defs>
<filter id="filter0_d_1931_32090" x="11.4707" y="12.6377" width="15.0586" height="16.7246" filterUnits="userSpaceOnUse" color-interpolation-filters="sRGB">
<feFlood flood-opacity="0" result="BackgroundImageFix"/>
<feColorMatrix in="SourceAlpha" type="matrix" values="0 0 0 0 0 0 0 0 0 0 0 0 0 0 0 0 0 0 127 0" result="hardAlpha"/>
<feOffset dy="4"/>
<feGaussianBlur stdDeviation="2"/>
<feComposite in2="hardAlpha" operator="out"/>
<feColorMatrix type="matrix" values="0 0 0 0 0 0 0 0 0 0 0 0 0 0 0 0 0 0 0.25 0"/>
<feBlend mode="normal" in2="BackgroundImageFix" result="effect1_dropShadow_1931_32090"/>
<feBlend mode="normal" in="SourceGraphic" in2="effect1_dropShadow_1931_32090" result="shape"/>
</filter>
<clipPath id="clip0_1931_32090">
<rect width="10" height="10" fill="white" transform="translate(14 12)"/>
</clipPath>
</defs>
</svg>
