<svg width="24" height="23" viewBox="0 0 24 23" fill="none" xmlns="http://www.w3.org/2000/svg">
<path d="M11.1521 17.3561L7.76806 15.6641M7.76806 15.6641L1 19.0482V4.38403L7.76806 1M7.76806 15.6641V1M7.76806 1L14.5361 4.38403M14.5361 4.38403L21.3042 1V10.5881M14.5361 4.38403V12.8441" stroke="#FEEDB6" stroke-width="2" stroke-linecap="round" stroke-linejoin="round"/>
<path d="M15.5179 22.6582L14.704 20.4587L12.5045 19.6448L14.704 18.8309L15.5179 16.6314L16.3317 18.8309L18.5312 19.6448L16.3317 20.4587L15.5179 22.6582Z" fill="#FEEDB6"/>
<path d="M20.1272 18.4036L19.3133 16.2041L17.1138 15.3902L19.3133 14.5763L20.1272 12.3768L20.9411 14.5763L23.1406 15.3902L20.9411 16.2041L20.1272 18.4036Z" fill="#FEEDB6"/>
</svg>
