<svg width="24" height="23" viewBox="0 0 24 23" fill="none" xmlns="http://www.w3.org/2000/svg">
<path d="M11.1521 17.3561L7.76806 15.6641M7.76806 15.6641L1 19.0482V4.38403L7.76806 1M7.76806 15.6641V1M7.76806 1L14.5361 4.38403M14.5361 4.38403L21.3042 1V10.5881M14.5361 4.38403V12.8441" stroke="#C4C4C4" stroke-width="2" stroke-linecap="round" stroke-linejoin="round"/>
<path d="M15.5179 21.2174L15.1729 20.2852L15.0931 20.0696L14.8775 19.9898L13.9452 19.6448L14.8775 19.2998L15.0931 19.2201L15.1729 19.0044L15.5179 18.0722L15.8628 19.0044L15.9426 19.2201L16.1582 19.2998L17.0905 19.6448L16.1582 19.9898L15.9426 20.0696L15.8628 20.2852L15.5179 21.2174Z" fill="#FEEDB6" stroke="#C4C4C4"/>
<path d="M20.1272 16.9625L19.7823 16.0303L19.7025 15.8147L19.4869 15.7349L18.5546 15.3899L19.4869 15.045L19.7025 14.9652L19.7823 14.7495L20.1272 13.8173L20.4722 14.7495L20.552 14.9652L20.7676 15.045L21.6999 15.3899L20.7676 15.7349L20.552 15.8147L20.4722 16.0303L20.1272 16.9625Z" fill="#FEEDB6" stroke="#C4C4C4"/>
</svg>
