<svg width="40" height="40" viewBox="0 0 40 40" fill="none" xmlns="http://www.w3.org/2000/svg">
<path d="M5 10H8.33333H35" stroke="white" stroke-width="2" stroke-linecap="round" stroke-linejoin="round"/>
<path d="M31.6673 10V33.3334C31.6673 34.2174 31.3161 35.0653 30.691 35.6904C30.0659 36.3155 29.218 36.6667 28.334 36.6667H11.6673C10.7833 36.6667 9.93542 36.3155 9.31029 35.6904C8.68517 35.0653 8.33398 34.2174 8.33398 33.3334V10M13.334 10V6.66671C13.334 5.78265 13.6852 4.93481 14.3103 4.30968C14.9354 3.68456 15.7833 3.33337 16.6673 3.33337H23.334C24.218 3.33337 25.0659 3.68456 25.691 4.30968C26.3161 4.93481 26.6673 5.78265 26.6673 6.66671V10" stroke="white" stroke-width="2" stroke-linecap="round" stroke-linejoin="round"/>
<path d="M16.666 18.3334V28.3334" stroke="white" stroke-width="2" stroke-linecap="round" stroke-linejoin="round"/>
<path d="M23.334 18.3334V28.3334" stroke="white" stroke-width="2" stroke-linecap="round" stroke-linejoin="round"/>
</svg>
