<svg width="29" height="28" viewBox="0 0 29 28" fill="none" xmlns="http://www.w3.org/2000/svg">
<path d="M3.58301 7H5.91634H24.583" stroke="#E02424" stroke-width="2" stroke-linecap="round" stroke-linejoin="round"/>
<path d="M22.2493 7.00004V23.3334C22.2493 23.9522 22.0035 24.5457 21.5659 24.9833C21.1283 25.4209 20.5349 25.6667 19.916 25.6667H8.24935C7.63051 25.6667 7.03702 25.4209 6.59943 24.9833C6.16185 24.5457 5.91602 23.9522 5.91602 23.3334V7.00004M9.41602 7.00004V4.66671C9.41602 4.04787 9.66185 3.45438 10.0994 3.01679C10.537 2.57921 11.1305 2.33337 11.7493 2.33337H16.416C17.0349 2.33337 17.6283 2.57921 18.0659 3.01679C18.5035 3.45438 18.7493 4.04787 18.7493 4.66671V7.00004" stroke="#E02424" stroke-width="2" stroke-linecap="round" stroke-linejoin="round"/>
<path d="M11.75 12.8334V19.8334" stroke="#E02424" stroke-width="2" stroke-linecap="round" stroke-linejoin="round"/>
<path d="M16.416 12.8334V19.8334" stroke="#E02424" stroke-width="2" stroke-linecap="round" stroke-linejoin="round"/>
</svg>
