<svg width="34" height="34" viewBox="0 0 34 34" fill="none" xmlns="http://www.w3.org/2000/svg">
<g clip-path="url(#clip0_2695_21211)">
<path d="M22.6673 22.6667L17.0007 17L11.334 22.6667" stroke="black" stroke-width="3" stroke-linecap="round" stroke-linejoin="round"/>
<path d="M17 17V29.75" stroke="black" stroke-width="3" stroke-linecap="round" stroke-linejoin="round"/>
<path d="M28.8849 26.0529C30.2667 25.2996 31.3582 24.1077 31.9872 22.6651C32.6163 21.2226 32.7471 19.6117 32.3589 18.0866C31.9707 16.5615 31.0857 15.2091 29.8435 14.2428C28.6014 13.2765 27.0728 12.7515 25.4991 12.7504H23.7141C23.2853 11.0918 22.4861 9.55207 21.3765 8.24683C20.267 6.9416 18.876 5.90488 17.3081 5.21462C15.7402 4.52436 14.0362 4.19852 12.3243 4.26159C10.6123 4.32467 8.93693 4.77502 7.42409 5.57878C5.91125 6.38255 4.6003 7.51882 3.5898 8.90217C2.57931 10.2855 1.89557 11.8799 1.58998 13.5656C1.28439 15.2512 1.3649 16.9842 1.82547 18.6342C2.28604 20.2842 3.11468 21.8084 4.24909 23.0921" stroke="black" stroke-width="3" stroke-linecap="round" stroke-linejoin="round"/>
</g>
<defs>
<clipPath id="clip0_2695_21211">
<rect width="34" height="34" fill="white"/>
</clipPath>
</defs>
</svg>
