<svg width="61" height="67" viewBox="0 0 61 67" fill="none" xmlns="http://www.w3.org/2000/svg">
<ellipse cx="28.7108" cy="37.5" rx="28.5096" ry="29.5073" fill="white" fill-opacity="0.25"/>
<circle cx="47.9023" cy="12.4927" r="12.5" fill="#C3A7FF" fill-opacity="0.5"/>
<path d="M42.1672 16.0347C42.0738 16.0347 42.0085 16.002 41.9712 15.9367C41.9338 15.862 41.9152 15.7827 41.9152 15.6987C41.9245 15.5307 41.9618 15.442 42.0272 15.4327C42.0925 15.4233 42.1765 15.4187 42.2792 15.4187C42.6805 15.4187 42.9978 15.4 43.2312 15.3627C43.4738 15.316 43.6465 15.204 43.7492 15.0267C43.8518 14.84 43.9032 14.5413 43.9032 14.1307V11.2187C43.9125 10.808 43.8938 10.5047 43.8472 10.3087C43.8005 10.1127 43.7165 9.98201 43.5952 9.91668C43.4738 9.85134 43.3012 9.82334 43.0772 9.83268C42.8625 9.83268 42.5825 9.82801 42.2372 9.81868C42.1438 9.81868 42.0785 9.78601 42.0412 9.72068C42.0038 9.64601 41.9852 9.56668 41.9852 9.48268C41.9945 9.31468 42.0318 9.22134 42.0972 9.20268C42.1625 9.18401 42.2465 9.17468 42.3492 9.17468C42.6665 9.17468 42.9932 9.12801 43.3292 9.03468C43.6745 8.94134 43.9778 8.84334 44.2392 8.74068C44.5098 8.62868 44.6825 8.55868 44.7572 8.53068C44.8318 8.50268 44.9112 8.50268 44.9952 8.53068C45.0792 8.54934 45.1212 8.64734 45.1212 8.82468V14.1307C45.1212 14.5413 45.1725 14.84 45.2752 15.0267C45.3778 15.204 45.5458 15.316 45.7792 15.3627C46.0218 15.4 46.3438 15.4187 46.7452 15.4187C46.8478 15.4187 46.9318 15.4233 46.9972 15.4327C47.0625 15.442 47.0998 15.5307 47.1092 15.6987C47.1092 15.7827 47.0905 15.862 47.0532 15.9367C47.0252 16.002 46.9598 16.0347 46.8572 16.0347C46.6332 16.0253 46.3672 16.016 46.0592 16.0067C45.7605 16.0067 45.4665 16.002 45.1772 15.9927C44.8972 15.9927 44.6732 15.9927 44.5052 15.9927C44.3465 15.9927 44.1225 15.9927 43.8332 15.9927C43.5532 16.002 43.2592 16.0067 42.9512 16.0067C42.6525 16.016 42.3912 16.0253 42.1672 16.0347ZM48.3235 15.9927C48.1461 15.9927 48.0201 15.946 47.9455 15.8527C47.8708 15.7593 47.8335 15.638 47.8335 15.4887C47.8521 15.274 47.9128 15.106 48.0155 14.9847C48.1181 14.8633 48.2721 14.7373 48.4775 14.6067C48.8228 14.3733 49.1868 14.1213 49.5695 13.8507C49.9521 13.58 50.3115 13.2813 50.6475 12.9547C50.9835 12.6187 51.2541 12.25 51.4595 11.8487C51.6741 11.4473 51.7815 10.9947 51.7815 10.4907C51.7815 10.0427 51.6601 9.69734 51.4175 9.45468C51.1841 9.20268 50.8528 9.07668 50.4235 9.07668C50.0688 9.07668 49.7701 9.16534 49.5275 9.34268C49.2848 9.52001 49.1635 9.77201 49.1635 10.0987C49.1635 10.2573 49.2008 10.3927 49.2755 10.5047C49.3501 10.6073 49.4248 10.6913 49.4995 10.7567C49.5835 10.8127 49.6255 10.85 49.6255 10.8687C49.6255 10.9153 49.5695 10.99 49.4575 11.0927C49.3455 11.1953 49.1868 11.2467 48.9815 11.2467C48.6828 11.2467 48.4495 11.1533 48.2815 10.9667C48.1135 10.78 48.0295 10.5513 48.0295 10.2807C48.0295 9.87934 48.1601 9.55268 48.4215 9.30068C48.6921 9.04868 49.0188 8.86668 49.4015 8.75468C49.7935 8.63334 50.1761 8.57268 50.5495 8.57268C50.9601 8.57268 51.3615 8.64268 51.7535 8.78268C52.1548 8.91334 52.4815 9.13268 52.7335 9.44068C52.9948 9.74868 53.1255 10.1593 53.1255 10.6727C53.1255 11.102 53.0275 11.494 52.8315 11.8487C52.6448 12.194 52.3975 12.5113 52.0895 12.8007C51.7815 13.09 51.4455 13.356 51.0815 13.5987C50.7268 13.8413 50.3721 14.07 50.0175 14.2847C49.6628 14.4993 49.3501 14.714 49.0795 14.9287V14.9987H52.8315C53.0181 14.9987 53.1768 15.022 53.3075 15.0687C53.4381 15.106 53.5035 15.246 53.5035 15.4887C53.5035 15.8247 53.3401 15.9927 53.0135 15.9927H48.3235Z" fill="white"/>
<path fill-rule="evenodd" clip-rule="evenodd" d="M38.5352 27.4927C39.1238 27.4925 39.6908 27.7148 40.1225 28.1151C40.5541 28.5154 40.8185 29.064 40.8627 29.651L40.8685 29.826V46.1593C40.8687 46.748 40.6463 47.315 40.2461 47.7466C39.8458 48.1783 39.2972 48.4427 38.7102 48.4868L38.5352 48.4927H19.8685C19.2798 48.4929 18.7128 48.2705 18.2812 47.8703C17.8495 47.47 17.5851 46.9214 17.541 46.3343L17.5352 46.1593V29.826C17.535 29.2373 17.7573 28.6703 18.1576 28.2387C18.5578 27.8071 19.1065 27.5427 19.6935 27.4985L19.8685 27.4927H38.5352ZM38.5352 29.826H19.8685V46.1593H38.5352V29.826ZM27.2652 32.9037L27.8695 33.172L28.2638 33.3587L28.7153 33.5803L29.217 33.8347L29.7653 34.1263L30.3568 34.453L30.6672 34.6303L31.2715 34.9862L31.8245 35.3268L32.3262 35.6453L32.7695 35.9405L33.3295 36.3255L33.7542 36.6323L33.865 36.714C34.045 36.848 34.1913 37.0222 34.292 37.2227C34.3928 37.4233 34.4452 37.6446 34.4452 37.869C34.4452 38.0934 34.3928 38.3147 34.292 38.5153C34.1913 38.7158 34.045 38.89 33.865 39.024L33.4882 39.2982L32.9748 39.6575L32.5595 39.9363L32.087 40.2432L31.5585 40.5733L30.9763 40.9233L30.3533 41.2838L29.7595 41.6128L29.21 41.9045L28.7083 42.1612L28.258 42.3805L27.5323 42.7165L27.264 42.8332C27.058 42.9219 26.8341 42.9614 26.6101 42.9482C26.3862 42.9351 26.1684 42.8699 25.9742 42.7577C25.7799 42.6455 25.6146 42.4895 25.4914 42.302C25.3681 42.1146 25.2904 41.901 25.2643 41.6782L25.1967 41.019L25.1593 40.5827L25.1103 39.808L25.0835 39.2153L25.066 38.5678L25.0613 38.2248L25.059 37.869C25.059 37.6279 25.0613 37.3946 25.066 37.169L25.0835 36.5215L25.1103 35.93L25.1418 35.3968L25.1768 34.929L25.2643 34.061C25.2902 33.838 25.3679 33.6241 25.4911 33.4364C25.6144 33.2486 25.7798 33.0923 25.9741 32.9799C26.1685 32.8675 26.3865 32.802 26.6106 32.7888C26.8348 32.7756 27.0589 32.8149 27.2652 32.9037ZM27.978 35.8215L27.4693 35.5672L27.4355 36.1353L27.4098 36.7782L27.3947 37.4898L27.3923 37.869L27.3947 38.2482L27.4098 38.9587L27.4215 39.2888L27.4518 39.8955L27.4693 40.1697L27.9757 39.9153L28.5438 39.6167L29.168 39.2737L29.4993 39.0847L30.1422 38.7043L30.7185 38.3473L31.2272 38.0207L31.4558 37.869L30.981 37.554L30.4373 37.211C30.128 37.0195 29.8157 36.8328 29.5005 36.651L29.1703 36.4632L28.5473 36.1202L27.978 35.8215Z" fill="#C3A7FF"/>
</svg>
