<svg width="61" height="89" viewBox="0 0 61 89" fill="none" xmlns="http://www.w3.org/2000/svg">
<path d="M10.4572 84.14C10.4572 84.14 10.4058 84.0093 10.3032 83.748C10.2098 83.4773 10.0838 83.1273 9.92517 82.698C9.77584 82.2593 9.60317 81.7833 9.40717 81.27C9.22051 80.7473 9.02917 80.2293 8.83317 79.716C8.64651 79.1933 8.47384 78.7173 8.31517 78.288C8.16584 77.8587 8.03984 77.5133 7.93717 77.252C7.84384 76.9907 7.79717 76.86 7.79717 76.86C7.64784 76.4773 7.49851 76.202 7.34917 76.034C7.19984 75.866 6.97584 75.754 6.67717 75.698C6.54651 75.67 6.45317 75.6467 6.39717 75.628C6.35051 75.6093 6.32717 75.5253 6.32717 75.376C6.32717 75.2173 6.38317 75.1333 6.49517 75.124C6.60717 75.1053 6.73784 75.096 6.88717 75.096C7.51251 75.1053 7.99784 75.222 8.34317 75.446C8.68851 75.6607 8.96384 76.034 9.16917 76.566L11.1992 82.026H11.2412L13.1732 76.412C13.2758 76.1133 13.2805 75.9267 13.1872 75.852C13.0938 75.768 12.8838 75.726 12.5572 75.726C12.4638 75.726 12.3845 75.7167 12.3192 75.698C12.2538 75.6793 12.2165 75.5907 12.2072 75.432C12.2072 75.3573 12.2258 75.2873 12.2632 75.222C12.3005 75.1567 12.3612 75.124 12.4452 75.124C12.7438 75.1333 13.0005 75.1427 13.2152 75.152C13.4392 75.1613 13.6912 75.166 13.9712 75.166C14.1578 75.166 14.3118 75.166 14.4332 75.166C14.5545 75.1567 14.6758 75.152 14.7972 75.152C14.9278 75.1427 15.0912 75.1333 15.2872 75.124C15.3805 75.124 15.4458 75.1567 15.4832 75.222C15.5205 75.2873 15.5392 75.3573 15.5392 75.432C15.5298 75.5907 15.4925 75.6793 15.4272 75.698C15.3712 75.7167 15.2918 75.726 15.1892 75.726C14.8345 75.726 14.5545 75.7913 14.3492 75.922C14.1438 76.0527 13.9665 76.3047 13.8172 76.678C13.8172 76.6687 13.7658 76.7993 13.6632 77.07C13.5698 77.3313 13.4438 77.686 13.2852 78.134C13.1265 78.5727 12.9492 79.058 12.7532 79.59C12.5665 80.122 12.3752 80.654 12.1792 81.186C11.9832 81.718 11.8058 82.208 11.6472 82.656C11.4885 83.104 11.3578 83.4633 11.2552 83.734C11.1618 84.0047 11.1152 84.14 11.1152 84.14H10.4572ZM15.8696 84.042C15.8043 84.042 15.7483 84.014 15.7016 83.958C15.6643 83.8927 15.6456 83.8273 15.6456 83.762C15.6643 83.622 15.7016 83.5473 15.7576 83.538C15.8136 83.5193 15.8883 83.51 15.9816 83.51C16.2429 83.51 16.4203 83.468 16.5136 83.384C16.6069 83.2907 16.6583 83.1693 16.6676 83.02C16.6863 82.8707 16.6956 82.7167 16.6956 82.558V79.352C16.6956 79.184 16.6863 79.03 16.6676 78.89C16.6583 78.7407 16.6069 78.624 16.5136 78.54C16.4203 78.4467 16.2429 78.4 15.9816 78.4C15.8976 78.4 15.8183 78.3907 15.7436 78.372C15.6783 78.344 15.6456 78.26 15.6456 78.12C15.6456 77.98 15.7203 77.896 15.8696 77.868C16.2989 77.8027 16.6256 77.7373 16.8496 77.672C17.0829 77.6067 17.2603 77.5507 17.3816 77.504C17.5029 77.4573 17.6103 77.4293 17.7036 77.42C17.7783 77.4107 17.8389 77.4247 17.8856 77.462C17.9416 77.4993 17.9696 77.574 17.9696 77.686V82.558C17.9696 82.7167 17.9743 82.8707 17.9836 83.02C18.0023 83.1693 18.0583 83.2907 18.1516 83.384C18.2543 83.468 18.4363 83.51 18.6976 83.51C18.7816 83.51 18.8516 83.5193 18.9076 83.538C18.9729 83.5473 19.0103 83.622 19.0196 83.762C19.0196 83.8273 19.0009 83.8927 18.9636 83.958C18.9263 84.014 18.8703 84.042 18.7956 84.042C18.5249 84.0233 18.2729 84.0093 18.0396 84C17.8156 84 17.5776 84 17.3256 84C17.0736 84 16.8356 84 16.6116 84C16.3876 84.0093 16.1403 84.0233 15.8696 84.042ZM17.2556 75.866C16.9943 75.866 16.7749 75.7867 16.5976 75.628C16.4203 75.46 16.3316 75.2547 16.3316 75.012C16.3316 74.7973 16.4389 74.606 16.6536 74.438C16.8683 74.27 17.1109 74.186 17.3816 74.186C17.6149 74.186 17.8063 74.27 17.9556 74.438C18.1049 74.5967 18.1796 74.802 18.1796 75.054C18.1796 75.278 18.0909 75.4693 17.9136 75.628C17.7363 75.7867 17.5169 75.866 17.2556 75.866ZM22.7445 84.168C22.2218 84.168 21.7365 84.028 21.2885 83.748C20.8405 83.468 20.4811 83.076 20.2105 82.572C19.9398 82.068 19.8045 81.4847 19.8045 80.822C19.8045 80.2433 19.9398 79.702 20.2105 79.198C20.4905 78.6847 20.8731 78.274 21.3585 77.966C21.8531 77.6487 22.4131 77.49 23.0385 77.49C23.3371 77.49 23.6311 77.5273 23.9205 77.602C24.2098 77.6673 24.4571 77.7607 24.6625 77.882H24.7045V75.74C24.7045 75.572 24.6951 75.418 24.6765 75.278C24.6671 75.1287 24.6158 75.012 24.5225 74.928C24.4291 74.8347 24.2518 74.788 23.9905 74.788C23.9065 74.788 23.8271 74.7787 23.7525 74.76C23.6871 74.732 23.6545 74.648 23.6545 74.508C23.6545 74.368 23.7291 74.284 23.8785 74.256C24.3078 74.1907 24.6345 74.1253 24.8585 74.06C25.0918 73.9947 25.2691 73.9387 25.3905 73.892C25.5118 73.8453 25.6191 73.8173 25.7125 73.808C25.7871 73.7987 25.8478 73.8127 25.8945 73.85C25.9505 73.8873 25.9785 73.962 25.9785 74.074V82.712C25.9785 83.2627 26.3425 83.538 27.0705 83.538C27.1731 83.538 27.2385 83.566 27.2665 83.622C27.2945 83.6687 27.3085 83.7153 27.3085 83.762C27.3085 83.8927 27.2291 83.972 27.0705 84L24.8445 84.154C24.7791 84.154 24.7418 84.126 24.7325 84.07C24.7231 84.014 24.7185 83.9487 24.7185 83.874V83.314H24.6765C24.4431 83.5567 24.1491 83.762 23.7945 83.93C23.4491 84.0887 23.0991 84.168 22.7445 84.168ZM23.2205 83.468C23.5751 83.468 23.8691 83.398 24.1025 83.258C24.3358 83.1087 24.5365 82.9453 24.7045 82.768V79.072C24.6578 78.9133 24.5691 78.7547 24.4385 78.596C24.3171 78.428 24.1491 78.288 23.9345 78.176C23.7291 78.0547 23.4771 77.994 23.1785 77.994C22.6371 77.994 22.1798 78.2507 21.8065 78.764C21.4331 79.268 21.2465 79.9773 21.2465 80.892C21.2465 81.3307 21.3165 81.7507 21.4565 82.152C21.6058 82.544 21.8251 82.8613 22.1145 83.104C22.4038 83.3467 22.7725 83.468 23.2205 83.468ZM31.2016 84.168C30.4829 84.168 29.8762 84.014 29.3816 83.706C28.8962 83.398 28.5322 82.9873 28.2896 82.474C28.0469 81.9607 27.9256 81.4007 27.9256 80.794C27.9256 80.3833 27.9956 79.9867 28.1356 79.604C28.2849 79.212 28.4949 78.8573 28.7656 78.54C29.0362 78.2133 29.3629 77.9567 29.7456 77.77C30.1282 77.5833 30.5622 77.49 31.0476 77.49C31.9062 77.49 32.5502 77.714 32.9796 78.162C33.4182 78.6007 33.6702 79.1607 33.7356 79.842C33.7356 80.1687 33.6422 80.3833 33.4556 80.486C33.2782 80.5887 33.0449 80.64 32.7556 80.64H29.3536C29.3536 81.1813 29.4282 81.6667 29.5776 82.096C29.7269 82.516 29.9602 82.852 30.2776 83.104C30.6042 83.3467 31.0336 83.468 31.5656 83.468C31.9576 83.468 32.2936 83.384 32.5736 83.216C32.8536 83.048 33.1242 82.754 33.3856 82.334C33.4602 82.2407 33.5629 82.236 33.6936 82.32C33.7682 82.3573 33.8149 82.418 33.8336 82.502C33.8522 82.5767 33.8429 82.642 33.8056 82.698C33.5162 83.1553 33.1522 83.5147 32.7136 83.776C32.2749 84.0373 31.7709 84.168 31.2016 84.168ZM29.3536 80.108H31.6356C31.8596 80.108 32.0369 80.066 32.1676 79.982C32.3076 79.8887 32.3822 79.7347 32.3916 79.52C32.3916 79.1187 32.2796 78.764 32.0556 78.456C31.8409 78.1387 31.5049 77.98 31.0476 77.98C30.5809 77.98 30.1889 78.1667 29.8716 78.54C29.5636 78.9133 29.3909 79.436 29.3536 80.108ZM38.2149 84.168C37.5616 84.168 36.9876 84.014 36.4929 83.706C36.0076 83.398 35.6296 82.9967 35.3589 82.502C35.0882 82.0073 34.9529 81.48 34.9529 80.92C34.9529 80.3693 35.0509 79.8793 35.2469 79.45C35.4429 79.0207 35.6996 78.6613 36.0169 78.372C36.3436 78.0827 36.6982 77.8633 37.0809 77.714C37.4636 77.5647 37.8416 77.49 38.2149 77.49C38.8682 77.49 39.4376 77.644 39.9229 77.952C40.4176 78.26 40.8002 78.6613 41.0709 79.156C41.3416 79.6507 41.4769 80.178 41.4769 80.738C41.4769 81.2887 41.3742 81.7787 41.1689 82.208C40.9729 82.6373 40.7116 82.9967 40.3849 83.286C40.0676 83.5753 39.7176 83.7947 39.3349 83.944C38.9522 84.0933 38.5789 84.168 38.2149 84.168ZM38.2149 83.65C38.6722 83.65 39.0316 83.5147 39.2929 83.244C39.5636 82.9733 39.7549 82.6187 39.8669 82.18C39.9882 81.732 40.0489 81.2513 40.0489 80.738C40.0489 80.2433 39.9882 79.7907 39.8669 79.38C39.7456 78.9693 39.5496 78.638 39.2789 78.386C39.0082 78.134 38.6536 78.008 38.2149 78.008C37.7576 78.008 37.3936 78.1433 37.1229 78.414C36.8522 78.6753 36.6609 79.0253 36.5489 79.464C36.4369 79.8933 36.3809 80.3693 36.3809 80.892C36.3809 81.3773 36.4369 81.83 36.5489 82.25C36.6702 82.67 36.8662 83.0107 37.1369 83.272C37.4076 83.524 37.7669 83.65 38.2149 83.65ZM42.4074 77.546C42.314 77.574 42.2347 77.56 42.1694 77.504C42.1134 77.448 42.0854 77.378 42.0854 77.294C42.0854 77.21 42.132 77.1493 42.2254 77.112C43.0187 76.8133 43.4154 76.398 43.4154 75.866C43.4154 75.698 43.3594 75.5627 43.2474 75.46C43.1447 75.348 43.0234 75.2547 42.8834 75.18C42.7527 75.096 42.6314 75.0027 42.5194 74.9C42.4167 74.7973 42.3654 74.6667 42.3654 74.508C42.3654 74.3307 42.4307 74.172 42.5614 74.032C42.7014 73.8827 42.8694 73.808 43.0654 73.808C43.336 73.808 43.5787 73.892 43.7934 74.06C44.008 74.228 44.176 74.4427 44.2974 74.704C44.4187 74.956 44.4794 75.2127 44.4794 75.474C44.4794 75.8567 44.372 76.188 44.1574 76.468C43.952 76.7387 43.6907 76.9627 43.3734 77.14C43.056 77.3173 42.734 77.4527 42.4074 77.546ZM47.6165 84.168C46.8978 84.168 46.2958 84.042 45.8105 83.79C45.3345 83.5287 45.0965 83.1553 45.0965 82.67C45.0965 82.3993 45.1758 82.18 45.3345 82.012C45.5025 81.844 45.7171 81.76 45.9785 81.76C46.1465 81.76 46.2818 81.8067 46.3845 81.9C46.4965 81.984 46.5525 82.0447 46.5525 82.082C46.5525 82.11 46.4965 82.1753 46.3845 82.278C46.2818 82.3713 46.2305 82.5253 46.2305 82.74C46.2305 83.0013 46.3518 83.2207 46.5945 83.398C46.8465 83.566 47.2245 83.65 47.7285 83.65C48.1671 83.65 48.5078 83.5567 48.7505 83.37C49.0025 83.174 49.1285 82.9033 49.1285 82.558C49.1285 82.278 49.0351 82.0633 48.8485 81.914C48.6711 81.7553 48.4378 81.6293 48.1485 81.536C47.8685 81.4427 47.5651 81.3493 47.2385 81.256C46.9211 81.1627 46.6178 81.046 46.3285 80.906C46.0391 80.766 45.8011 80.5747 45.6145 80.332C45.4371 80.08 45.3485 79.7487 45.3485 79.338C45.3485 78.918 45.4745 78.5727 45.7265 78.302C45.9785 78.0313 46.3005 77.8307 46.6925 77.7C47.0845 77.56 47.4811 77.49 47.8825 77.49C48.2278 77.49 48.5545 77.5413 48.8625 77.644C49.1705 77.7373 49.4225 77.882 49.6185 78.078C49.8238 78.274 49.9265 78.5213 49.9265 78.82C49.9265 79.0533 49.8518 79.2633 49.7025 79.45C49.5531 79.6367 49.3478 79.73 49.0865 79.73C48.9185 79.73 48.7785 79.688 48.6665 79.604C48.5638 79.5107 48.5125 79.4453 48.5125 79.408C48.5125 79.3893 48.5451 79.3567 48.6105 79.31C48.6851 79.254 48.7551 79.184 48.8205 79.1C48.8858 79.0067 48.9185 78.89 48.9185 78.75C48.8998 78.4793 48.7691 78.2787 48.5265 78.148C48.2838 78.0173 48.0131 77.952 47.7145 77.952C47.3878 77.952 47.0845 78.0313 46.8045 78.19C46.5245 78.3487 46.3845 78.5773 46.3845 78.876C46.3845 79.1467 46.4405 79.3567 46.5525 79.506C46.6738 79.6553 46.8605 79.786 47.1125 79.898C47.3738 80.0007 47.7098 80.1173 48.1205 80.248C48.5311 80.3787 48.8905 80.514 49.1985 80.654C49.5158 80.794 49.7585 80.9807 49.9265 81.214C50.1038 81.438 50.1925 81.746 50.1925 82.138C50.1925 82.53 50.0805 82.88 49.8565 83.188C49.6325 83.496 49.3245 83.7387 48.9325 83.916C48.5498 84.084 48.1111 84.168 47.6165 84.168Z" fill="white"/>
<ellipse cx="28.7108" cy="37.5073" rx="28.5096" ry="29.5073" fill="white" fill-opacity="0.25"/>
<circle cx="47.9023" cy="12.5" r="12.5" fill="#C3A7FF" fill-opacity="0.5"/>
<path fill-rule="evenodd" clip-rule="evenodd" d="M38.5352 27.5C39.1238 27.4998 39.6908 27.7221 40.1225 28.1224C40.5541 28.5227 40.8185 29.0713 40.8627 29.6583L40.8685 29.8333V46.1667C40.8687 46.7553 40.6463 47.3223 40.2461 47.754C39.8458 48.1856 39.2972 48.45 38.7102 48.4942L38.5352 48.5H19.8685C19.2798 48.5002 18.7128 48.2779 18.2812 47.8776C17.8495 47.4773 17.5851 46.9287 17.541 46.3417L17.5352 46.1667V29.8333C17.535 29.2447 17.7573 28.6777 18.1576 28.246C18.5578 27.8144 19.1065 27.55 19.6935 27.5058L19.8685 27.5H38.5352ZM38.5352 29.8333H19.8685V46.1667H38.5352V29.8333ZM27.2652 32.911L27.8695 33.1793L28.2638 33.366L28.7153 33.5877L29.217 33.842L29.7653 34.1337L30.3568 34.4603L30.6672 34.6377L31.2715 34.9935L31.8245 35.3342L32.3262 35.6527L32.7695 35.9478L33.3295 36.3328L33.7542 36.6397L33.865 36.7213C34.045 36.8553 34.1913 37.0295 34.292 37.2301C34.3928 37.4306 34.4452 37.6519 34.4452 37.8763C34.4452 38.1008 34.3928 38.3221 34.292 38.5226C34.1913 38.7232 34.045 38.8974 33.865 39.0313L33.4882 39.3055L32.9748 39.6648L32.5595 39.9437L32.087 40.2505L31.5585 40.5807L30.9763 40.9307L30.3533 41.2912L29.7595 41.6202L29.21 41.9118L28.7083 42.1685L28.258 42.3878L27.5323 42.7238L27.264 42.8405C27.058 42.9293 26.8341 42.9687 26.6101 42.9556C26.3862 42.9425 26.1684 42.8772 25.9742 42.765C25.7799 42.6528 25.6146 42.4968 25.4914 42.3094C25.3681 42.1219 25.2904 41.9083 25.2643 41.6855L25.1967 41.0263L25.1593 40.59L25.1103 39.8153L25.0835 39.2227L25.066 38.5752L25.0613 38.2322L25.059 37.8763C25.059 37.6352 25.0613 37.4019 25.066 37.1763L25.0835 36.5288L25.1103 35.9373L25.1418 35.4042L25.1768 34.9363L25.2643 34.0683C25.2902 33.8453 25.3679 33.6314 25.4911 33.4437C25.6144 33.256 25.7798 33.0997 25.9741 32.9872C26.1685 32.8748 26.3865 32.8094 26.6106 32.7961C26.8348 32.7829 27.0589 32.8222 27.2652 32.911ZM27.978 35.8288L27.4693 35.5745L27.4355 36.1427L27.4098 36.7855L27.3947 37.4972L27.3923 37.8763L27.3947 38.2555L27.4098 38.966L27.4215 39.2962L27.4518 39.9028L27.4693 40.177L27.9757 39.9227L28.5438 39.624L29.168 39.281L29.4993 39.092L30.1422 38.7117L30.7185 38.3547L31.2272 38.028L31.4558 37.8763L30.981 37.5613L30.4373 37.2183C30.128 37.0268 29.8157 36.8401 29.5005 36.6583L29.1703 36.4705L28.5473 36.1275L27.978 35.8288Z" fill="#C3A7FF"/>
</svg>
