<svg width="58" height="59" viewBox="0 0 58 59" fill="none" xmlns="http://www.w3.org/2000/svg">
<path d="M28.5293 0.492676C43.9825 0.492745 56.5391 13.4639 56.5391 29.5005C56.5388 45.5369 43.9823 58.5073 28.5293 58.5073C13.0762 58.5073 0.519782 45.5369 0.519531 29.5005C0.519531 13.4638 13.0761 0.492676 28.5293 0.492676Z" fill="white" fill-opacity="0.25" stroke="#C3A7FF"/>
<path fill-rule="evenodd" clip-rule="evenodd" d="M38.3535 19.4927C38.9422 19.4925 39.5092 19.7148 39.9408 20.1151C40.3725 20.5154 40.6369 21.064 40.681 21.651L40.6868 21.826V38.1593C40.687 38.748 40.4647 39.315 40.0644 39.7466C39.6642 40.1783 39.1155 40.4427 38.5285 40.4868L38.3535 40.4927H19.6868C19.0982 40.4929 18.5312 40.2705 18.0995 39.8703C17.6679 39.47 17.4035 38.9214 17.3593 38.3343L17.3535 38.1593V21.826C17.3533 21.2373 17.5757 20.6703 17.9759 20.2387C18.3762 19.8071 18.9248 19.5427 19.5118 19.4985L19.6868 19.4927H38.3535ZM38.3535 21.826H19.6868V38.1593H38.3535V21.826ZM27.0835 24.9037L27.6878 25.172L28.0822 25.3587L28.5337 25.5803L29.0353 25.8347L29.5837 26.1263L30.1752 26.453L30.4855 26.6303L31.0898 26.9862L31.6428 27.3268L32.1445 27.6453L32.5878 27.9405L33.1478 28.3255L33.5725 28.6323L33.6833 28.714C33.8634 28.848 34.0096 29.0222 34.1104 29.2227C34.2111 29.4233 34.2636 29.6446 34.2636 29.869C34.2636 30.0934 34.2111 30.3147 34.1104 30.5153C34.0096 30.7158 33.8634 30.89 33.6833 31.024L33.3065 31.2982L32.7932 31.6575L32.3778 31.9363L31.9053 32.2432L31.3768 32.5733L30.7947 32.9233L30.1717 33.2838L29.5778 33.6128L29.0283 33.9045L28.5267 34.1612L28.0763 34.3805L27.3507 34.7165L27.0823 34.8332C26.8763 34.9219 26.6524 34.9614 26.4285 34.9482C26.2046 34.9351 25.9868 34.8699 25.7926 34.7577C25.5983 34.6455 25.433 34.4895 25.3097 34.302C25.1865 34.1146 25.1087 33.901 25.0827 33.6782L25.015 33.019L24.9777 32.5827L24.9287 31.808L24.9018 31.2153L24.8843 30.5678L24.8797 30.2248L24.8773 29.869C24.8773 29.6279 24.8797 29.3946 24.8843 29.169L24.9018 28.5215L24.9287 27.93L24.9602 27.3968L24.9952 26.929L25.0827 26.061C25.1086 25.838 25.1862 25.6241 25.3095 25.4364C25.4327 25.2486 25.5981 25.0923 25.7925 24.9799C25.9869 24.8675 26.2048 24.802 26.429 24.7888C26.6531 24.7756 26.8773 24.8149 27.0835 24.9037ZM27.7963 27.8215L27.2877 27.5672L27.2538 28.1353L27.2282 28.7782L27.213 29.4898L27.2107 29.869L27.213 30.2482L27.2282 30.9587L27.2398 31.2888L27.2702 31.8955L27.2877 32.1697L27.794 31.9153L28.3622 31.6167L28.9863 31.2737L29.3177 31.0847L29.9605 30.7043L30.5368 30.3473L31.0455 30.0207L31.2742 29.869L30.7993 29.554L30.2557 29.211C29.9463 29.0195 29.634 28.8328 29.3188 28.651L28.9887 28.4632L28.3657 28.1202L27.7963 27.8215Z" fill="#C3A7FF"/>
</svg>
