<svg width="61" height="67" viewBox="0 0 61 67" fill="none" xmlns="http://www.w3.org/2000/svg">
<ellipse cx="28.7108" cy="37.5" rx="28.5096" ry="29.5073" fill="white" fill-opacity="0.25"/>
<circle cx="47.9023" cy="12.4927" r="12.5" fill="#C3A7FF" fill-opacity="0.5"/>
<path fill-rule="evenodd" clip-rule="evenodd" d="M38.5352 27.4927C39.1238 27.4925 39.6908 27.7148 40.1225 28.1151C40.5541 28.5154 40.8185 29.064 40.8627 29.651L40.8685 29.826V46.1593C40.8687 46.748 40.6463 47.315 40.2461 47.7466C39.8458 48.1783 39.2972 48.4427 38.7102 48.4868L38.5352 48.4927H19.8685C19.2798 48.4929 18.7128 48.2705 18.2812 47.8703C17.8495 47.47 17.5851 46.9214 17.541 46.3343L17.5352 46.1593V29.826C17.535 29.2373 17.7573 28.6703 18.1576 28.2387C18.5578 27.8071 19.1065 27.5427 19.6935 27.4985L19.8685 27.4927H38.5352ZM38.5352 29.826H19.8685V46.1593H38.5352V29.826ZM27.2652 32.9037L27.8695 33.172L28.2638 33.3587L28.7153 33.5803L29.217 33.8347L29.7653 34.1263L30.3568 34.453L30.6672 34.6303L31.2715 34.9862L31.8245 35.3268L32.3262 35.6453L32.7695 35.9405L33.3295 36.3255L33.7542 36.6323L33.865 36.714C34.045 36.848 34.1913 37.0222 34.292 37.2227C34.3928 37.4233 34.4452 37.6446 34.4452 37.869C34.4452 38.0934 34.3928 38.3147 34.292 38.5153C34.1913 38.7158 34.045 38.89 33.865 39.024L33.4882 39.2982L32.9748 39.6575L32.5595 39.9363L32.087 40.2432L31.5585 40.5733L30.9763 40.9233L30.3533 41.2838L29.7595 41.6128L29.21 41.9045L28.7083 42.1612L28.258 42.3805L27.5323 42.7165L27.264 42.8332C27.058 42.9219 26.8341 42.9614 26.6101 42.9482C26.3862 42.9351 26.1684 42.8699 25.9742 42.7577C25.7799 42.6455 25.6146 42.4895 25.4914 42.302C25.3681 42.1146 25.2904 41.901 25.2643 41.6782L25.1967 41.019L25.1593 40.5827L25.1103 39.808L25.0835 39.2153L25.066 38.5678L25.0613 38.2248L25.059 37.869C25.059 37.6279 25.0613 37.3946 25.066 37.169L25.0835 36.5215L25.1103 35.93L25.1418 35.3968L25.1768 34.929L25.2643 34.061C25.2902 33.838 25.3679 33.6241 25.4911 33.4364C25.6144 33.2486 25.7798 33.0923 25.9741 32.9799C26.1685 32.8675 26.3865 32.802 26.6106 32.7888C26.8348 32.7756 27.0589 32.8149 27.2652 32.9037ZM27.978 35.8215L27.4693 35.5672L27.4355 36.1353L27.4098 36.7782L27.3947 37.4898L27.3923 37.869L27.3947 38.2482L27.4098 38.9587L27.4215 39.2888L27.4518 39.8955L27.4693 40.1697L27.9757 39.9153L28.5438 39.6167L29.168 39.2737L29.4993 39.0847L30.1422 38.7043L30.7185 38.3473L31.2272 38.0207L31.4558 37.869L30.981 37.554L30.4373 37.211C30.128 37.0195 29.8157 36.8328 29.5005 36.651L29.1703 36.4632L28.5473 36.1202L27.978 35.8215Z" fill="#C3A7FF"/>
</svg>
